<svg xmlns="http://www.w3.org/2000/svg" xmlns:xlink="http://www.w3.org/1999/xlink" width="191" zoomAndPan="magnify" viewBox="0 0 143.25 112.499997" height="150" preserveAspectRatio="xMidYMid meet" version="1.0"><defs><clipPath id="1f7ba5e632"><path d="M 11 0.0429688 L 131 0.0429688 L 131 111.957031 L 11 111.957031 Z M 11 0.0429688 " clip-rule="nonzero"/></clipPath></defs><g clip-path="url(#1f7ba5e632)"><path fill="#c9e5a0" d="M 90.363281 111.972656 C 64.652344 111.972656 28.523438 101.003906 16.796875 87.542969 C 16.796875 87.542969 2.289062 70.496094 22.007812 61.199219 C 27.964844 58.390625 32.597656 55.660156 36.015625 53.042969 L 36.015625 94.820312 C 36.015625 95.726562 36.75 96.464844 37.660156 96.464844 L 76.375 96.464844 C 77.28125 96.464844 78.019531 95.726562 78.019531 94.820312 L 78.019531 22 C 78.019531 21.09375 77.28125 20.355469 76.375 20.355469 L 37.660156 20.355469 C 36.75 20.355469 36.015625 21.09375 36.015625 22 L 36.015625 32.492188 C 27.816406 26.140625 25.09375 18.328125 27.972656 10.304688 C 30.261719 3.941406 38.175781 0.0546875 51.921875 0.0546875 C 65.101562 0.0546875 83.640625 3.628906 107.722656 12.019531 C 140.3125 23.378906 132.394531 40.808594 118.15625 46.34375 C 104.835938 51.519531 110.214844 60.910156 111.8125 64.96875 C 113.410156 69.027344 128.355469 86.207031 116.027344 103.9375 C 112.105469 109.578125 102.367188 111.972656 90.363281 111.972656 " fill-opacity="1" fill-rule="nonzero"/></g><path fill="#ecf8fd" d="M 37.980469 51.339844 C 37.980469 51.492188 37.855469 51.613281 37.703125 51.613281 L 34.964844 51.613281 C 34.8125 51.613281 34.691406 51.492188 34.691406 51.339844 L 34.691406 37.242188 C 34.691406 37.089844 34.8125 36.96875 34.964844 36.96875 L 37.703125 36.96875 C 37.855469 36.96875 37.980469 37.089844 37.980469 37.242188 L 37.980469 51.339844 " fill-opacity="1" fill-rule="nonzero"/><path fill="#ecf8fd" d="M 38.226562 63.730469 C 38.226562 63.839844 38.105469 63.933594 37.953125 63.933594 L 35.214844 63.933594 C 35.0625 63.933594 34.941406 63.839844 34.941406 63.730469 L 34.941406 53.320312 C 34.941406 53.210938 35.0625 53.117188 35.214844 53.117188 L 37.953125 53.117188 C 38.105469 53.117188 38.226562 53.210938 38.226562 53.320312 L 38.226562 63.730469 " fill-opacity="1" fill-rule="nonzero"/><path fill="#28598a" d="M 78.019531 94.820312 C 78.019531 95.726562 77.28125 96.464844 76.375 96.464844 L 37.660156 96.464844 C 36.75 96.464844 36.015625 95.726562 36.015625 94.820312 L 36.015625 22 C 36.015625 21.09375 36.75 20.355469 37.660156 20.355469 L 76.375 20.355469 C 77.28125 20.355469 78.019531 21.09375 78.019531 22 L 78.019531 94.820312 " fill-opacity="1" fill-rule="nonzero"/><path fill="#3f74c3" d="M 77.449219 93.835938 C 77.449219 94.71875 76.734375 95.433594 75.847656 95.433594 L 38.183594 95.433594 C 37.300781 95.433594 36.585938 94.71875 36.585938 93.835938 L 36.585938 22.988281 C 36.585938 22.105469 37.300781 21.390625 38.183594 21.390625 L 75.847656 21.390625 C 76.734375 21.390625 77.449219 22.105469 77.449219 22.988281 L 77.449219 93.835938 " fill-opacity="1" fill-rule="nonzero"/><path fill="#3267aa" d="M 75.847656 21.390625 L 44.230469 21.390625 L 65.964844 95.433594 L 75.847656 95.433594 C 76.734375 95.433594 77.449219 94.71875 77.449219 93.835938 L 77.449219 22.988281 C 77.449219 22.105469 76.734375 21.390625 75.847656 21.390625 " fill-opacity="1" fill-rule="nonzero"/><path fill="#aed9f4" d="M 37.386719 81.679688 L 76.648438 81.679688 L 76.648438 30.578125 L 37.386719 30.578125 Z M 37.386719 81.679688 " fill-opacity="1" fill-rule="nonzero"/><path fill="#c7e5f8" d="M 75.804688 80.582031 L 61.535156 80.582031 L 47.253906 31.675781 L 75.804688 31.675781 L 75.804688 80.582031 " fill-opacity="1" fill-rule="nonzero"/><path fill="#ffffff" d="M 60.03125 88.84375 C 60.03125 90.582031 58.617188 91.992188 56.878906 91.992188 C 55.140625 91.992188 53.730469 90.582031 53.730469 88.84375 C 53.730469 87.105469 55.140625 85.695312 56.878906 85.695312 C 58.617188 85.695312 60.03125 87.105469 60.03125 88.84375 " fill-opacity="1" fill-rule="nonzero"/><path fill="#b4e5f9" d="M 59.664062 88.84375 C 59.664062 90.382812 58.417969 91.628906 56.878906 91.628906 C 55.339844 91.628906 54.09375 90.382812 54.09375 88.84375 C 54.09375 87.308594 55.339844 86.0625 56.878906 86.0625 C 58.417969 86.0625 59.664062 87.308594 59.664062 88.84375 " fill-opacity="1" fill-rule="nonzero"/><path fill="#ffffff" d="M 65.175781 72.640625 C 65.175781 73.605469 64.390625 74.390625 63.425781 74.390625 L 17.167969 74.390625 C 16.203125 74.390625 15.417969 73.605469 15.417969 72.640625 L 15.417969 38.453125 C 15.417969 37.488281 16.203125 36.703125 17.167969 36.703125 L 63.425781 36.703125 C 64.390625 36.703125 65.175781 37.488281 65.175781 38.453125 L 65.175781 72.640625 " fill-opacity="1" fill-rule="nonzero"/><path fill="#f58635" d="M 65.175781 40.6875 L 65.175781 38.453125 C 65.175781 37.488281 64.390625 36.703125 63.425781 36.703125 L 17.167969 36.703125 C 16.203125 36.703125 15.417969 37.488281 15.417969 38.453125 L 15.417969 40.6875 L 65.175781 40.6875 " fill-opacity="1" fill-rule="nonzero"/><path fill="#ffffff" d="M 19.527344 38.695312 C 19.527344 39.277344 19.050781 39.753906 18.46875 39.753906 C 17.882812 39.753906 17.410156 39.277344 17.410156 38.695312 C 17.410156 38.113281 17.882812 37.640625 18.46875 37.640625 C 19.050781 37.640625 19.527344 38.113281 19.527344 38.695312 " fill-opacity="1" fill-rule="nonzero"/><path fill="#ffffff" d="M 22.621094 38.695312 C 22.621094 39.277344 22.148438 39.753906 21.566406 39.753906 C 20.980469 39.753906 20.507812 39.277344 20.507812 38.695312 C 20.507812 38.113281 20.980469 37.640625 21.566406 37.640625 C 22.148438 37.640625 22.621094 38.113281 22.621094 38.695312 " fill-opacity="1" fill-rule="nonzero"/><path fill="#ffffff" d="M 54.4375 38.695312 C 54.4375 39.339844 53.914062 39.859375 53.269531 39.859375 C 52.625 39.859375 52.105469 39.339844 52.105469 38.695312 C 52.105469 38.050781 52.625 37.53125 53.269531 37.53125 C 53.914062 37.53125 54.4375 38.050781 54.4375 38.695312 " fill-opacity="1" fill-rule="nonzero"/><path fill="#ffffff" d="M 58.007812 38.695312 C 58.007812 39.339844 57.484375 39.859375 56.84375 39.859375 C 56.199219 39.859375 55.675781 39.339844 55.675781 38.695312 C 55.675781 38.050781 56.199219 37.53125 56.84375 37.53125 C 57.484375 37.53125 58.007812 38.050781 58.007812 38.695312 " fill-opacity="1" fill-rule="nonzero"/><path fill="#ffffff" d="M 61.578125 38.695312 C 61.578125 39.339844 61.058594 39.859375 60.414062 39.859375 C 59.769531 39.859375 59.246094 39.339844 59.246094 38.695312 C 59.246094 38.050781 59.769531 37.53125 60.414062 37.53125 C 61.058594 37.53125 61.578125 38.050781 61.578125 38.695312 " fill-opacity="1" fill-rule="nonzero"/><path fill="#418ac0" d="M 65.175781 40.6875 L 15.417969 40.6875 L 15.417969 54.574219 L 65.175781 54.574219 L 65.175781 40.6875 " fill-opacity="1" fill-rule="nonzero"/><path fill="#69c6f1" d="M 25.933594 52.222656 C 23.398438 52.222656 21.339844 50.167969 21.339844 47.632812 C 21.339844 45.09375 23.398438 43.039062 25.933594 43.039062 C 28.472656 43.039062 30.527344 45.09375 30.527344 47.632812 C 30.527344 50.167969 28.472656 52.222656 25.933594 52.222656 Z M 25.933594 41.949219 C 22.792969 41.949219 20.25 44.492188 20.25 47.632812 C 20.25 50.769531 22.792969 53.3125 25.933594 53.3125 C 29.074219 53.3125 31.621094 50.769531 31.621094 47.632812 C 31.621094 44.492188 29.074219 41.949219 25.933594 41.949219 " fill-opacity="1" fill-rule="nonzero"/><path fill="#ffffff" d="M 25.933594 41.949219 C 25.902344 41.949219 25.871094 41.953125 25.839844 41.953125 L 25.839844 43.042969 C 25.871094 43.042969 25.902344 43.039062 25.933594 43.039062 C 28.472656 43.039062 30.527344 45.09375 30.527344 47.632812 C 30.527344 50.167969 28.472656 52.222656 25.933594 52.222656 C 25.902344 52.222656 25.871094 52.21875 25.839844 52.21875 L 25.839844 53.3125 C 25.871094 53.3125 25.902344 53.3125 25.933594 53.3125 C 29.074219 53.3125 31.621094 50.769531 31.621094 47.632812 C 31.621094 44.492188 29.074219 41.949219 25.933594 41.949219 " fill-opacity="1" fill-rule="nonzero"/><path fill="#69c6f1" d="M 38.226562 51.765625 C 35.945312 50.660156 34.988281 47.914062 36.09375 45.632812 C 37.195312 43.351562 39.941406 42.394531 42.226562 43.5 C 44.511719 44.601562 45.46875 47.347656 44.363281 49.628906 C 43.257812 51.910156 40.511719 52.867188 38.226562 51.765625 Z M 42.703125 42.515625 C 39.875 41.148438 36.476562 42.332031 35.109375 45.15625 C 33.742188 47.984375 34.925781 51.378906 37.753906 52.746094 C 40.578125 54.113281 43.980469 52.929688 45.34375 50.101562 C 46.710938 47.277344 45.527344 43.882812 42.703125 42.515625 " fill-opacity="1" fill-rule="nonzero"/><path fill="#ffffff" d="M 44.792969 47.167969 C 44.875 47.984375 44.746094 48.835938 44.363281 49.628906 C 43.257812 51.910156 40.511719 52.867188 38.226562 51.765625 L 38.140625 51.71875 L 37.667969 52.703125 L 37.753906 52.746094 C 40.578125 54.113281 43.980469 52.929688 45.34375 50.101562 C 45.871094 49.019531 46.015625 47.851562 45.839844 46.746094 C 45.492188 46.890625 45.140625 47.027344 44.792969 47.167969 " fill-opacity="1" fill-rule="nonzero"/><path fill="#69c6f1" d="M 52.660156 51.765625 C 50.375 50.660156 49.421875 47.914062 50.523438 45.632812 C 51.628906 43.351562 54.375 42.394531 56.65625 43.5 C 58.941406 44.601562 59.898438 47.347656 58.792969 49.628906 C 57.691406 51.910156 54.941406 52.867188 52.660156 51.765625 Z M 57.132812 42.515625 C 54.308594 41.148438 50.90625 42.332031 49.539062 45.15625 C 48.175781 47.984375 49.359375 51.382812 52.183594 52.746094 C 55.011719 54.113281 58.410156 52.929688 59.777344 50.101562 C 61.144531 47.277344 59.960938 43.882812 57.132812 42.515625 " fill-opacity="1" fill-rule="nonzero"/><path fill="#ffffff" d="M 59.222656 47.167969 C 59.308594 47.988281 59.175781 48.835938 58.792969 49.628906 C 57.691406 51.910156 54.941406 52.867188 52.660156 51.765625 L 52.574219 51.71875 L 52.097656 52.703125 L 52.183594 52.746094 C 55.011719 54.113281 58.410156 52.929688 59.777344 50.101562 C 60.300781 49.019531 60.445312 47.851562 60.273438 46.746094 C 59.921875 46.890625 59.574219 47.027344 59.222656 47.167969 " fill-opacity="1" fill-rule="nonzero"/><path fill="#caebf7" d="M 31.585938 64.25 L 18.105469 64.25 L 18.105469 56.382812 L 31.585938 56.382812 L 31.585938 64.25 " fill-opacity="1" fill-rule="nonzero"/><path fill="#caebf7" d="M 31.585938 65.707031 L 18.105469 65.707031 L 18.105469 64.722656 L 31.585938 64.722656 L 31.585938 65.707031 " fill-opacity="1" fill-rule="nonzero"/><path fill="#caebf7" d="M 31.585938 67.273438 L 18.105469 67.273438 L 18.105469 66.292969 L 31.585938 66.292969 L 31.585938 67.273438 " fill-opacity="1" fill-rule="nonzero"/><path fill="#caebf7" d="M 31.585938 68.839844 L 18.105469 68.839844 L 18.105469 67.855469 L 31.585938 67.855469 L 31.585938 68.839844 " fill-opacity="1" fill-rule="nonzero"/><path fill="#caebf7" d="M 31.585938 70.40625 L 18.105469 70.40625 L 18.105469 69.421875 L 31.585938 69.421875 L 31.585938 70.40625 " fill-opacity="1" fill-rule="nonzero"/><path fill="#caebf7" d="M 31.585938 71.972656 L 18.105469 71.972656 L 18.105469 70.988281 L 31.585938 70.988281 L 31.585938 71.972656 " fill-opacity="1" fill-rule="nonzero"/><path fill="#caebf7" d="M 47.039062 64.25 L 33.554688 64.25 L 33.554688 56.382812 L 47.039062 56.382812 L 47.039062 64.25 " fill-opacity="1" fill-rule="nonzero"/><path fill="#caebf7" d="M 47.039062 65.707031 L 33.554688 65.707031 L 33.554688 64.722656 L 47.039062 64.722656 L 47.039062 65.707031 " fill-opacity="1" fill-rule="nonzero"/><path fill="#caebf7" d="M 47.039062 67.273438 L 33.554688 67.273438 L 33.554688 66.292969 L 47.039062 66.292969 L 47.039062 67.273438 " fill-opacity="1" fill-rule="nonzero"/><path fill="#caebf7" d="M 47.039062 68.839844 L 33.554688 68.839844 L 33.554688 67.855469 L 47.039062 67.855469 L 47.039062 68.839844 " fill-opacity="1" fill-rule="nonzero"/><path fill="#caebf7" d="M 47.039062 70.40625 L 33.554688 70.40625 L 33.554688 69.421875 L 47.039062 69.421875 L 47.039062 70.40625 " fill-opacity="1" fill-rule="nonzero"/><path fill="#caebf7" d="M 47.039062 71.972656 L 33.554688 71.972656 L 33.554688 70.988281 L 47.039062 70.988281 L 47.039062 71.972656 " fill-opacity="1" fill-rule="nonzero"/><path fill="#caebf7" d="M 62.492188 64.25 L 49.007812 64.25 L 49.007812 56.382812 L 62.492188 56.382812 L 62.492188 64.25 " fill-opacity="1" fill-rule="nonzero"/><path fill="#caebf7" d="M 62.492188 65.707031 L 49.007812 65.707031 L 49.007812 64.722656 L 62.492188 64.722656 L 62.492188 65.707031 " fill-opacity="1" fill-rule="nonzero"/><path fill="#caebf7" d="M 62.492188 67.273438 L 49.007812 67.273438 L 49.007812 66.292969 L 62.492188 66.292969 L 62.492188 67.273438 " fill-opacity="1" fill-rule="nonzero"/><path fill="#caebf7" d="M 62.492188 68.839844 L 49.007812 68.839844 L 49.007812 67.855469 L 62.492188 67.855469 L 62.492188 68.839844 " fill-opacity="1" fill-rule="nonzero"/><path fill="#caebf7" d="M 62.492188 70.40625 L 49.007812 70.40625 L 49.007812 69.421875 L 62.492188 69.421875 L 62.492188 70.40625 " fill-opacity="1" fill-rule="nonzero"/><path fill="#caebf7" d="M 62.492188 71.972656 L 49.007812 71.972656 L 49.007812 70.988281 L 62.492188 70.988281 L 62.492188 71.972656 " fill-opacity="1" fill-rule="nonzero"/><path fill="#f68926" d="M 70.636719 21.757812 L 93.675781 21.757812 L 93.675781 7.078125 L 80.890625 7.078125 L 77.851562 5.054688 L 70.636719 5.054688 L 70.636719 21.757812 " fill-opacity="1" fill-rule="nonzero"/><path fill="#ffffff" d="M 92.15625 20.871094 L 71.773438 20.871094 L 71.773438 8.09375 L 92.15625 8.09375 L 92.15625 20.871094 " fill-opacity="1" fill-rule="nonzero"/><path fill="#fbc073" d="M 93.675781 27.828125 L 70.636719 27.828125 L 70.636719 13.152344 L 83.421875 13.152344 L 86.460938 11.128906 L 93.675781 11.128906 L 93.675781 27.828125 " fill-opacity="1" fill-rule="nonzero"/><path fill="#e6a056" d="M 70.636719 26.691406 L 70.636719 27.828125 L 93.675781 27.828125 L 93.675781 26.691406 L 70.636719 26.691406 " fill-opacity="1" fill-rule="nonzero"/><path fill="#283a7a" d="M 93.527344 34.097656 C 93.527344 34.097656 94.84375 32.757812 95.839844 34.746094 C 96.832031 36.730469 97.226562 45.328125 100.113281 45.488281 C 100.113281 45.488281 94.820312 45.929688 94.980469 40.9375 C 94.980469 40.9375 95.417969 34.304688 93.675781 34.585938 L 93.527344 34.097656 " fill-opacity="1" fill-rule="nonzero"/><path fill="#283875" d="M 76.785156 45.777344 L 75.722656 36.359375 C 75.722656 36.359375 75.746094 36.210938 75.496094 36.414062 L 76.292969 45.804688 L 76.785156 45.777344 " fill-opacity="1" fill-rule="nonzero"/><path fill="#f79375" d="M 77.324219 47.042969 C 77.324219 47.042969 77.121094 46.707031 77.117188 46.304688 C 77.117188 45.902344 77.246094 45.222656 77.246094 45.222656 C 77.246094 45.222656 77.191406 44.722656 76.984375 44.679688 C 76.78125 44.640625 76.433594 44.613281 76.433594 44.613281 C 76.433594 44.613281 76.425781 44.417969 76.3125 44.355469 C 76.195312 44.285156 75.828125 44.15625 75.828125 44.15625 C 75.828125 44.15625 75.628906 44.214844 75.460938 44.597656 C 75.460938 44.597656 75.027344 45.570312 75 45.796875 C 74.972656 46.019531 75.539062 46.636719 75.714844 46.765625 C 75.714844 46.765625 75.933594 46.84375 76.007812 46.960938 C 76.078125 47.074219 76.691406 47.910156 76.691406 47.910156 C 76.691406 47.910156 80.429688 54.449219 81.15625 55.039062 C 81.882812 55.625 81.816406 52.238281 81.816406 52.238281 L 77.324219 47.042969 " fill-opacity="1" fill-rule="nonzero"/><path fill="#283a7a" d="M 83.003906 55.390625 C 84.15625 53.46875 86.234375 51.570312 87.054688 49.1875 C 88.113281 46.125 87.765625 42.761719 87.765625 42.761719 C 87.765625 42.761719 85.410156 43.371094 84.882812 43.683594 C 84.882812 43.683594 84.265625 43.773438 84.148438 46.359375 C 84.148438 46.359375 82.070312 52.898438 81.953125 52.726562 C 81.953125 52.726562 80.742188 56.691406 83.003906 55.390625 " fill-opacity="1" fill-rule="nonzero"/><path fill="#283a7a" d="M 80.753906 54.785156 C 80.753906 54.785156 79.320312 53.164062 78.589844 51.085938 C 78.589844 51.085938 78.890625 49.9375 79.710938 49.804688 C 79.710938 49.804688 80.035156 50.332031 81.746094 51.746094 C 85 54.242188 82.675781 57.125 80.753906 54.785156 " fill-opacity="1" fill-rule="nonzero"/><path fill="#282b4c" d="M 82.46875 95.605469 C 82.46875 95.605469 82.332031 95.464844 82.410156 95.328125 C 82.488281 95.195312 83.617188 94.214844 83.617188 94.214844 L 85.949219 93.074219 C 85.949219 93.074219 86.40625 93.296875 85.71875 95.699219 L 85.582031 95.695312 L 85.53125 94.582031 C 85.53125 94.582031 84.773438 95.9375 82.46875 95.605469 " fill-opacity="1" fill-rule="nonzero"/><path fill="#f89b87" d="M 85.78125 75.320312 C 85.78125 75.320312 85.09375 87.820312 85.117188 92.960938 C 85.117188 92.960938 85.1875 94.542969 85.988281 93.203125 C 85.988281 93.203125 86.304688 92 86.601562 90.339844 C 87.46875 85.433594 89.449219 78.464844 88.421875 75.882812 L 85.78125 75.320312 " fill-opacity="1" fill-rule="nonzero"/><path fill="#f89b87" d="M 85.117188 92.75 C 85.117188 92.75 83.617188 94.214844 83.351562 94.507812 C 83.1875 94.695312 85.003906 94.695312 85.988281 93.203125 C 85.988281 93.203125 85.632812 92.0625 85.117188 92.75 " fill-opacity="1" fill-rule="nonzero"/><path fill="#282b4c" d="M 86.4375 60.472656 C 86.4375 60.472656 85.117188 74.300781 84.773438 92.433594 C 84.773438 92.433594 85.699219 93.058594 86.632812 92.433594 C 86.632812 92.433594 90.171875 78.324219 91.363281 67.410156 C 91.363281 67.410156 92.902344 62.550781 92.648438 60.714844 C 92.394531 58.878906 86.4375 60.472656 86.4375 60.472656 " fill-opacity="1" fill-rule="nonzero"/><path fill="#282b4c" d="M 99.882812 95.605469 C 99.882812 95.605469 100.019531 95.464844 99.941406 95.328125 C 99.863281 95.195312 98.734375 94.214844 98.734375 94.214844 L 96.402344 93.074219 C 96.402344 93.074219 95.945312 93.296875 96.628906 95.699219 L 96.769531 95.695312 L 96.816406 94.582031 C 96.816406 94.582031 97.578125 95.9375 99.882812 95.605469 " fill-opacity="1" fill-rule="nonzero"/><path fill="#f89b87" d="M 96.570312 75.320312 C 96.570312 75.320312 97.257812 87.820312 97.230469 92.960938 C 97.230469 92.960938 97.160156 94.542969 96.359375 93.203125 C 96.359375 93.203125 96.042969 92 95.75 90.339844 C 94.878906 85.433594 92.902344 78.464844 93.925781 75.882812 L 96.570312 75.320312 " fill-opacity="1" fill-rule="nonzero"/><path fill="#f89b87" d="M 97.230469 92.75 C 97.230469 92.75 98.734375 94.214844 98.996094 94.507812 C 99.164062 94.695312 97.347656 94.695312 96.359375 93.203125 C 96.359375 93.203125 96.71875 92.0625 97.230469 92.75 " fill-opacity="1" fill-rule="nonzero"/><path fill="#282b4c" d="M 95.695312 60.300781 C 95.695312 60.300781 97.230469 74.300781 97.574219 92.433594 C 97.574219 92.433594 96.648438 93.058594 95.71875 92.433594 C 95.71875 92.433594 92.140625 77.980469 90.949219 67.066406 C 90.949219 67.066406 89.449219 62.550781 89.703125 60.714844 C 89.953125 58.878906 95.695312 60.300781 95.695312 60.300781 " fill-opacity="1" fill-rule="nonzero"/><path fill="#e4846c" d="M 87.886719 43.023438 C 88.519531 42.777344 89.097656 42.511719 89.109375 42.34375 C 89.109375 42.34375 89.730469 40.683594 89.609375 39.140625 C 89.582031 38.753906 91.910156 37.207031 91.910156 37.207031 C 91.910156 37.207031 91.914062 41.09375 92.492188 42.441406 C 92.492188 42.441406 93.175781 42.667969 94.214844 43.039062 L 94.148438 46.664062 L 87.820312 46.546875 L 87.886719 43.023438 " fill-opacity="1" fill-rule="nonzero"/><path fill="#d26758" d="M 91.910156 37.234375 L 91.910156 37.363281 L 91.914062 37.417969 L 91.914062 37.5 C 91.914062 37.546875 91.914062 37.597656 91.917969 37.65625 L 91.917969 37.675781 C 91.917969 37.703125 91.917969 37.734375 91.917969 37.765625 C 91.917969 37.796875 91.921875 37.828125 91.921875 37.859375 L 91.921875 37.882812 C 91.921875 37.949219 91.925781 38.019531 91.925781 38.09375 L 91.929688 38.121094 C 91.929688 38.160156 91.929688 38.195312 91.933594 38.234375 C 91.933594 38.273438 91.933594 38.316406 91.9375 38.355469 L 91.9375 38.382812 C 91.9375 38.425781 91.941406 38.464844 91.941406 38.507812 L 91.941406 38.511719 C 91.945312 38.550781 91.945312 38.59375 91.949219 38.636719 L 91.949219 38.667969 C 91.953125 38.753906 91.957031 38.84375 91.964844 38.9375 L 91.964844 38.96875 C 91.96875 39.058594 91.976562 39.152344 91.980469 39.25 L 91.984375 39.28125 C 91.984375 39.328125 91.988281 39.378906 91.992188 39.425781 L 91.992188 39.429688 C 91.996094 39.476562 92 39.523438 92.003906 39.570312 L 92.003906 39.605469 C 92.011719 39.703125 92.019531 39.800781 92.027344 39.898438 L 92.03125 39.9375 C 92.035156 39.984375 92.039062 40.035156 92.046875 40.082031 C 92.050781 40.132812 92.054688 40.179688 92.058594 40.230469 L 92.0625 40.265625 C 92.066406 40.316406 92.070312 40.363281 92.078125 40.414062 C 92.082031 40.460938 92.089844 40.511719 92.09375 40.558594 L 92.097656 40.59375 C 92.101562 40.640625 92.109375 40.691406 92.113281 40.738281 C 92.121094 40.789062 92.125 40.832031 92.132812 40.878906 L 92.140625 40.914062 C 92.144531 40.960938 92.152344 41.007812 92.160156 41.054688 C 91.277344 41.976562 90.199219 42.675781 89.109375 42.339844 C 89.148438 42.238281 89.726562 40.636719 89.609375 39.140625 C 89.582031 38.753906 91.910156 37.207031 91.910156 37.207031 L 91.910156 37.234375 " fill-opacity="1" fill-rule="nonzero"/><path fill="#283a7a" d="M 86.238281 60.574219 C 86.238281 60.574219 86.09375 61.21875 86.46875 61.324219 C 92.703125 63.03125 95.984375 61.164062 95.984375 61.164062 C 96.03125 60.871094 94.957031 55.402344 94.957031 55.402344 C 94.898438 53.289062 94.757812 52.605469 95.625 49.992188 C 96.210938 48.230469 97.574219 44.515625 97.574219 44.515625 C 97.714844 42.859375 92.492188 42.441406 92.492188 42.441406 C 90.929688 44.976562 90.542969 45.214844 90.542969 45.214844 C 89.074219 43.410156 89.054688 42.4375 89.054688 42.4375 C 88.296875 42.363281 85.054688 43.542969 84.773438 43.828125 C 84.140625 44.46875 85.316406 48.679688 86.171875 50.636719 C 86.171875 50.636719 86.671875 52.234375 86.71875 54.914062 C 86.746094 56.378906 86.238281 60.574219 86.238281 60.574219 " fill-opacity="1" fill-rule="nonzero"/><path fill="#f89b87" d="M 96.722656 53.992188 L 97.40625 58.152344 C 97.40625 58.152344 98.304688 58.308594 99.136719 57.671875 L 98.839844 54.339844 L 96.722656 53.992188 " fill-opacity="1" fill-rule="nonzero"/><path fill="#f89b87" d="M 98.351562 65.929688 C 98.085938 63.828125 97.144531 56.210938 97.144531 56.210938 C 97.144531 56.210938 97.578125 54.222656 98.785156 55.421875 C 99.472656 56.105469 99.058594 65.820312 99.058594 65.820312 C 99.058594 65.820312 99.015625 67.015625 98.96875 67.613281 C 98.96875 67.613281 98.839844 67.933594 98.765625 67.996094 C 98.695312 68.0625 97.605469 68.726562 97.605469 68.726562 C 97.605469 68.726562 97.402344 68.5625 98.269531 67.714844 L 98.25 66.769531 C 98.25 66.769531 97.980469 67.515625 97.671875 67.480469 C 97.671875 67.480469 97.886719 66.597656 98.027344 66.339844 C 98.097656 66.21875 98.351562 65.929688 98.351562 65.929688 " fill-opacity="1" fill-rule="nonzero"/><path fill="#283a7a" d="M 96.921875 55.601562 C 95.414062 49.871094 95.28125 49.164062 95.28125 49.164062 C 96.015625 47.082031 97.539062 44.214844 97.539062 44.214844 L 98.984375 55.378906 C 98.984375 55.378906 97.941406 56.050781 96.921875 55.601562 " fill-opacity="1" fill-rule="nonzero"/><path fill="#f79375" d="M 92.363281 39.050781 C 92.363281 39.050781 94.40625 36.421875 93.390625 34.324219 C 92.769531 33.046875 91.726562 32.660156 90.804688 32.597656 C 89.808594 32.558594 89.222656 32.644531 88.4375 33.238281 C 88.4375 33.238281 87.132812 34.039062 87.269531 36.167969 C 87.269531 36.167969 87.503906 36.582031 86.757812 37.636719 C 86.757812 37.636719 86.484375 37.953125 86.632812 38.101562 C 86.753906 38.222656 87.074219 38.519531 87.074219 38.519531 C 87.074219 38.519531 87.34375 39.851562 87.410156 40.367188 C 87.410156 40.367188 87.472656 40.753906 87.910156 40.78125 C 88.191406 40.800781 88.183594 40.804688 88.984375 40.703125 C 88.984375 40.703125 90.496094 40.492188 90.726562 40.292969 C 90.726562 40.292969 91.367188 40.203125 91.660156 38.65625 C 91.660156 38.65625 91.957031 38.910156 92.308594 38.171875 C 92.308594 38.171875 92.378906 38.933594 92.363281 39.050781 " fill-opacity="1" fill-rule="nonzero"/><path fill="#283a7a" d="M 92.046875 40.082031 C 92.046875 40.082031 91.835938 38.628906 92.046875 37.933594 C 92.046875 37.933594 92.085938 37.207031 91.554688 37.035156 C 91.554688 37.035156 90.796875 36.59375 90.429688 35.417969 C 90.121094 34.441406 89.941406 34.5625 89.664062 34.605469 C 89.386719 34.652344 87.742188 35.132812 87.363281 34.9375 C 86.984375 34.746094 86.660156 31.347656 92.324219 32.828125 C 92.324219 32.828125 93.78125 33.105469 93.972656 35.183594 C 94.082031 36.332031 93.773438 37.925781 92.046875 40.082031 " fill-opacity="1" fill-rule="nonzero"/><path fill="#f89b87" d="M 109.851562 44.195312 C 109.851562 44.195312 109.328125 43.257812 109.136719 43.054688 C 108.933594 42.84375 108.65625 42.753906 108.261719 42.777344 C 108.261719 42.777344 107.90625 42.777344 107.652344 42.835938 C 107.398438 42.894531 106.484375 42.929688 106.484375 42.929688 C 106.484375 42.929688 105.875 41.976562 105.621094 42.035156 C 105.621094 42.035156 105.566406 42.089844 105.566406 42.207031 C 105.5625 42.324219 106.1875 43.546875 106.324219 43.675781 C 106.457031 43.800781 106.855469 43.804688 107.058594 43.796875 C 107.414062 43.78125 108.511719 43.789062 108.511719 43.789062 L 109 44.800781 L 109.851562 44.195312 " fill-opacity="1" fill-rule="nonzero"/><path fill="#f89b87" d="M 102.75 43.21875 C 102.75 43.21875 102.226562 42.28125 102.035156 42.078125 C 101.832031 41.867188 101.554688 41.777344 101.160156 41.796875 C 101.160156 41.796875 100.804688 41.800781 100.550781 41.859375 C 100.296875 41.917969 99.378906 41.949219 99.378906 41.949219 C 99.378906 41.949219 98.773438 41 98.519531 41.058594 C 98.519531 41.058594 98.464844 41.113281 98.460938 41.226562 C 98.460938 41.34375 99.085938 42.570312 99.21875 42.695312 C 99.355469 42.824219 99.75 42.828125 99.957031 42.820312 C 100.3125 42.804688 101.40625 42.808594 101.40625 42.808594 L 101.898438 43.820312 L 102.75 43.21875 " fill-opacity="1" fill-rule="nonzero"/><path fill="#b6d1ef" d="M 112.171875 46.863281 C 112.171875 46.863281 113.425781 43.398438 111.71875 42.941406 L 106.945312 47.398438 L 102.703125 42.839844 C 102.703125 42.839844 101.929688 42.679688 101.328125 43.417969 C 101.328125 43.417969 104.472656 49.144531 106.007812 50.171875 C 106.613281 50.578125 107.617188 50.21875 108.023438 49.992188 C 108.425781 49.765625 111.5 48.441406 112.171875 46.863281 " fill-opacity="1" fill-rule="nonzero"/><path fill="#ffffff" d="M 118.035156 86.601562 C 118.035156 86.601562 118.644531 87.273438 118.332031 88.285156 C 117.789062 90.039062 118.046875 90.335938 118.125 90.464844 C 118.207031 90.589844 119.898438 89.15625 120.558594 88.175781 C 121.144531 87.3125 120.773438 87.121094 120.488281 86.84375 C 120.207031 86.5625 119.503906 85.738281 119.371094 85.46875 L 118.035156 86.601562 " fill-opacity="1" fill-rule="nonzero"/><path fill="#171b31" d="M 118.125 89.035156 C 118.125 89.035156 117.316406 91.382812 117.570312 92.121094 C 117.570312 92.121094 117.8125 92.703125 118.585938 92.300781 C 119.742188 91.695312 120.777344 90.242188 121.011719 89.566406 C 121.011719 89.566406 121.199219 89.238281 121.300781 89.144531 C 121.402344 89.054688 121.941406 88.527344 121.894531 88.289062 C 121.894531 88.289062 121.222656 87.214844 120.488281 86.84375 C 120.488281 86.84375 120.148438 87.757812 119.394531 88.238281 C 119.394531 88.238281 119.511719 87.792969 119.292969 87.824219 L 118.382812 88.085938 C 118.382812 88.085938 117.980469 88.011719 118.125 89.035156 " fill-opacity="1" fill-rule="nonzero"/><path fill="#ffffff" d="M 113.566406 90.273438 C 113.566406 90.273438 113.71875 91.167969 112.910156 91.851562 C 111.515625 93.042969 111.570312 93.429688 111.570312 93.582031 C 111.570312 93.730469 113.765625 93.425781 114.851562 92.957031 C 115.808594 92.539062 115.597656 92.179688 115.507812 91.792969 C 115.417969 91.40625 115.269531 90.332031 115.296875 90.035156 L 113.566406 90.273438 " fill-opacity="1" fill-rule="nonzero"/><path fill="#171b31" d="M 111.125 58.730469 L 110.707031 71.074219 C 110.707031 71.074219 117.207031 86.457031 117.566406 87.46875 C 117.566406 87.46875 119.59375 87.351562 120.308594 84.90625 L 116.613281 69.582031 L 117.921875 59.386719 L 111.125 58.730469 " fill-opacity="1" fill-rule="nonzero"/><path fill="#282b4c" d="M 119.84375 57.964844 C 119.84375 57.964844 120.308594 61.421875 119.574219 63.949219 C 119.054688 65.730469 117.984375 71.957031 117.984375 71.957031 C 117.984375 71.957031 117.730469 73.964844 117.730469 75.1875 C 117.730469 76.410156 116.074219 90.460938 116.074219 90.460938 C 116.074219 90.460938 114.585938 91.144531 112.898438 90.460938 C 112.898438 90.460938 111.902344 73.503906 111.902344 72.070312 C 111.902344 70.011719 113.953125 57.3125 113.953125 57.3125 L 119.84375 57.964844 " fill-opacity="1" fill-rule="nonzero"/><path fill="#f68778" d="M 113.152344 45.28125 L 121.257812 43.761719 C 121.175781 43.371094 121.054688 43.078125 120.902344 42.925781 C 120.316406 42.339844 117.351562 41.96875 117.351562 41.96875 C 116.578125 40.4375 116.828125 37.226562 116.828125 37.226562 C 116.828125 37.226562 114.007812 38.472656 113.988281 38.824219 C 113.902344 40.242188 113.875 41.648438 113.648438 42.128906 C 113.605469 42.21875 113.410156 42.332031 113.152344 42.441406 L 113.152344 45.28125 " fill-opacity="1" fill-rule="nonzero"/><path fill="#f5746b" d="M 116.84375 39.777344 C 116.824219 39.527344 116.808594 39.28125 116.800781 39.042969 C 116.734375 39.078125 116.65625 39.121094 116.65625 39.109375 C 116.652344 39.074219 116.652344 39.035156 116.652344 39 L 116.648438 38.957031 C 116.648438 38.917969 116.644531 38.878906 116.644531 38.839844 L 116.644531 38.8125 C 116.640625 38.773438 116.640625 38.730469 116.640625 38.691406 L 116.640625 38.6875 L 116.421875 38.6875 L 113.980469 39.816406 C 113.960938 40.164062 113.917969 40.5 113.871094 40.816406 C 113.835938 41.296875 113.785156 41.703125 113.707031 41.96875 C 115.878906 41.800781 116.65625 40.617188 116.84375 39.777344 " fill-opacity="1" fill-rule="nonzero"/><path fill="#cbdaf2" d="M 112.589844 42.554688 L 113.503906 42.25 C 113.855469 42.765625 114.160156 43.261719 114.402344 43.296875 C 114.667969 43.332031 117.351562 41.96875 117.351562 41.96875 C 117.351562 41.96875 121.417969 42.597656 121.347656 43.28125 L 121.070312 46.058594 L 119.867188 58.144531 C 114.808594 60.171875 111.125 58.730469 111.125 58.730469 C 111.125 58.730469 110.351562 46.65625 110.707031 44.625 C 110.972656 43.082031 111.863281 42.832031 112.589844 42.554688 " fill-opacity="1" fill-rule="nonzero"/><path fill="#0e111d" d="M 113.851562 44.773438 L 114.429688 44.457031 C 114.429688 44.457031 115.035156 48.335938 113.5 53.234375 C 113.050781 54.675781 112.695312 55.5625 112.695312 55.5625 C 112.695312 55.5625 111.828125 54.71875 112.058594 52.734375 C 112.289062 50.75 113.757812 47.492188 113.851562 44.773438 " fill-opacity="1" fill-rule="nonzero"/><path fill="#0e111d" d="M 113.636719 43.601562 C 113.636719 43.601562 113.671875 44.5625 113.835938 44.800781 C 113.835938 44.800781 114.328125 44.917969 114.507812 44.875 L 115.558594 43.53125 L 114.734375 43.230469 L 114.402344 43.296875 L 113.636719 43.601562 " fill-opacity="1" fill-rule="nonzero"/><path fill="#ffffff" d="M 114.402344 43.296875 L 112.765625 44.3125 L 113.058594 42.398438 L 113.648438 42.128906 L 114.402344 43.296875 " fill-opacity="1" fill-rule="nonzero"/><path fill="#ffffff" d="M 114.65625 43.230469 L 117.277344 44.351562 L 117.351562 41.96875 C 117.351562 41.96875 116.136719 42.570312 114.65625 43.230469 " fill-opacity="1" fill-rule="nonzero"/><path fill="#f89b87" d="M 112.4375 35.3125 C 112.4375 35.3125 112.023438 36.976562 112.058594 38.550781 C 112.101562 40.3125 112.804688 40.949219 113.410156 41.140625 C 113.410156 41.140625 113.554688 41.253906 114.128906 41.242188 C 114.839844 41.226562 116.230469 40.367188 116.765625 39.054688 C 116.765625 39.054688 117.132812 39.21875 117.4375 38.613281 C 117.738281 38.003906 117.691406 37.011719 116.9375 37.511719 C 116.9375 37.511719 117.546875 34.78125 116.339844 34.4375 C 115.128906 34.089844 112.828125 33.335938 112.4375 35.3125 " fill-opacity="1" fill-rule="nonzero"/><path fill="#283a7a" d="M 116.765625 39.054688 C 116.765625 39.054688 117.023438 39.246094 117.4375 38.53125 C 117.730469 38.027344 117.613281 37.019531 117 37.542969 C 116.933594 37.617188 116.855469 37.683594 116.792969 37.714844 C 116.644531 37.777344 116.234375 36.851562 116.472656 36.277344 C 116.472656 36.277344 116.660156 35.574219 116.53125 35.117188 C 116.53125 35.117188 114.59375 35.484375 114.058594 35.335938 C 114.058594 35.335938 113.328125 35.261719 112.816406 34.808594 C 112.816406 34.808594 112.484375 35.269531 112.324219 35.773438 C 112.324219 35.773438 111.773438 34.097656 112.804688 33.082031 C 113.699219 32.203125 114.5625 32.394531 114.585938 32.410156 C 114.613281 32.425781 115.289062 32.480469 116.054688 32.617188 C 117.347656 32.839844 117.441406 32.980469 118.007812 33.769531 C 119.511719 35.859375 118.1875 37.984375 117.386719 39.160156 C 116.929688 39.832031 116.980469 40.378906 116.910156 40.355469 L 116.765625 39.054688 " fill-opacity="1" fill-rule="nonzero"/><path fill="#283a7a" d="M 112.253906 34.203125 C 112.253906 34.203125 111.890625 36.316406 112.121094 36.960938 C 112.121094 36.960938 112.25 35.957031 112.496094 35.371094 L 112.253906 34.203125 " fill-opacity="1" fill-rule="nonzero"/><path fill="#e7f0fa" d="M 121.117188 46.835938 C 121.117188 46.835938 122.699219 43.558594 120.703125 42.761719 L 114.160156 48.402344 L 109.914062 43.84375 C 109.914062 43.84375 108.84375 43.988281 108.441406 44.535156 C 108.441406 44.535156 111.683594 50.148438 113.21875 51.175781 C 113.824219 51.582031 114.695312 51.144531 115.101562 50.917969 C 115.503906 50.691406 120.445312 48.417969 121.117188 46.835938 " fill-opacity="1" fill-rule="nonzero"/><path fill="#171b31" d="M 112.332031 92.378906 C 112.332031 92.378906 110.390625 93.925781 110.210938 94.683594 C 110.210938 94.683594 110.101562 95.300781 110.972656 95.378906 C 112.269531 95.488281 113.925781 94.820312 114.484375 94.371094 C 114.484375 94.371094 114.820312 94.191406 114.953125 94.167969 C 115.089844 94.148438 115.828125 93.992188 115.917969 93.765625 C 115.917969 93.765625 115.925781 92.5 115.507812 91.792969 C 115.507812 91.792969 114.730469 92.382812 113.835938 92.382812 C 113.835938 92.382812 114.171875 92.066406 113.96875 91.976562 L 113.0625 91.710938 C 113.0625 91.710938 112.761719 91.433594 112.332031 92.378906 " fill-opacity="1" fill-rule="nonzero"/><path fill="#283a7a" d="M 116.894531 37.414062 C 116.894531 37.414062 116.453125 38.628906 116.410156 39.15625 C 116.355469 39.78125 116.121094 40.625 115.941406 40.824219 C 115.941406 40.824219 114.992188 41.785156 112.957031 41.242188 C 112.957031 41.242188 111.796875 40.339844 111.988281 39.046875 L 112.058594 38.242188 C 112.058594 38.242188 112.105469 38.316406 112.253906 38.566406 C 112.417969 38.855469 112.636719 38.464844 112.90625 38.398438 C 113.175781 38.332031 114.46875 38.375 114.78125 38.578125 C 115.097656 38.777344 115.253906 39.003906 115.253906 39.003906 C 115.253906 39.003906 116.296875 38.191406 116.460938 37.144531 L 116.894531 37.414062 " fill-opacity="1" fill-rule="nonzero"/></svg>