<svg xmlns="http://www.w3.org/2000/svg" xmlns:xlink="http://www.w3.org/1999/xlink" width="191" zoomAndPan="magnify" viewBox="0 0 143.25 112.499997" height="150" preserveAspectRatio="xMidYMid meet" version="1.0"><defs><clipPath id="637db7fedc"><path d="M 12 3 L 130 3 L 130 111.957031 L 12 111.957031 Z M 12 3 " clip-rule="nonzero"/></clipPath><clipPath id="5a14947645"><path d="M 19 0.0429688 L 56 0.0429688 L 56 37 L 19 37 Z M 19 0.0429688 " clip-rule="nonzero"/></clipPath></defs><g clip-path="url(#637db7fedc)"><path fill="#d6e9aa" d="M 38.550781 111.980469 C 36.398438 111.980469 34.242188 111.933594 32.097656 111.851562 C 28.089844 111.695312 23.921875 111.359375 20.132812 109.945312 C 17.453125 108.945312 14.363281 107.539062 12.917969 104.894531 C 11.347656 102.019531 12.050781 98.992188 13.421875 96.183594 C 15.203125 92.550781 17.832031 89.347656 20.71875 86.535156 C 22.984375 84.324219 25.429688 81.84375 28.265625 80.375 C 30.703125 79.113281 33.25 78.074219 35.714844 76.871094 C 37.617188 75.941406 40.617188 74.828125 41.847656 72.972656 C 41.972656 72.78125 42.0625 72.679688 42.101562 72.503906 L 42.109375 72.464844 C 42.011719 72.441406 41.890625 72.4375 41.773438 72.4375 C 41.59375 72.4375 41.414062 72.453125 41.328125 72.457031 C 40.191406 72.511719 39.089844 72.777344 37.988281 73.039062 C 36.082031 73.496094 34.035156 73.613281 32.085938 73.808594 C 30.53125 73.964844 28.976562 74.078125 27.417969 74.078125 C 26.824219 74.078125 26.226562 74.0625 25.632812 74.023438 C 23.777344 73.910156 21.464844 73.722656 19.929688 72.535156 C 17.046875 70.3125 18.144531 66.914062 20.003906 64.367188 C 22.644531 60.746094 26.121094 57.765625 29.605469 54.984375 C 32.824219 52.414062 36.148438 49.980469 39.554688 47.667969 C 44.5 44.308594 49.945312 41.660156 54.777344 38.121094 C 55.597656 37.519531 57.136719 36.558594 57.453125 35.511719 C 57.476562 35.4375 57.496094 35.390625 57.503906 35.347656 C 57.421875 35.296875 57.335938 35.246094 57.246094 35.207031 C 56.414062 34.835938 55.242188 34.738281 54.070312 34.738281 C 53.214844 34.738281 52.359375 34.792969 51.632812 34.832031 C 43.195312 35.289062 35 37.910156 26.554688 38.101562 C 26.316406 38.105469 26.066406 38.109375 25.808594 38.109375 C 22.136719 38.109375 16.492188 37.453125 17.503906 32.546875 C 18.011719 30.085938 19.960938 28.046875 21.8125 26.476562 C 24.082031 24.546875 26.566406 22.890625 29.125 21.378906 C 35.667969 17.519531 42.519531 14.171875 49.570312 11.339844 C 53.496094 9.761719 57.515625 8.457031 61.398438 6.777344 C 64.421875 5.472656 71.40625 4.308594 72.59375 4.308594 C 72.6875 4.308594 72.746094 4.316406 72.761719 4.332031 C 73.273438 4.257812 73.789062 4.195312 74.304688 4.140625 C 77.996094 3.757812 81.707031 3.753906 85.414062 3.6875 C 86.015625 3.675781 86.664062 3.65625 87.324219 3.65625 C 89.492188 3.65625 91.84375 3.855469 93.484375 5.140625 C 95.644531 6.839844 94.769531 10.203125 93.792969 12.292969 C 92.585938 14.867188 90.796875 17.273438 88.800781 19.296875 C 87.867188 20.242188 86.714844 20.957031 85.816406 21.941406 C 84.703125 23.160156 85.5 23.453125 86.792969 23.453125 C 86.847656 23.453125 86.902344 23.453125 86.960938 23.449219 C 90.523438 23.386719 94.121094 22.496094 97.667969 22.152344 C 100.878906 21.839844 104.214844 21.5 107.503906 21.5 C 108.695312 21.5 109.882812 21.546875 111.054688 21.652344 C 113.382812 21.863281 116.089844 22.386719 117.449219 24.515625 C 118.851562 26.710938 118.304688 29.570312 117.460938 31.867188 C 116.007812 35.824219 113.789062 39.414062 111.15625 42.6875 C 108.761719 45.660156 106.070312 48.722656 102.863281 50.84375 C 102.054688 51.375 96.058594 54.714844 97.535156 56.160156 C 98.15625 56.769531 99.191406 56.839844 100.097656 56.839844 C 100.335938 56.839844 100.5625 56.835938 100.773438 56.832031 C 102.566406 56.820312 104.359375 56.792969 106.148438 56.660156 C 109.589844 56.402344 113.097656 55.90625 116.574219 55.90625 C 117.777344 55.90625 118.976562 55.964844 120.167969 56.113281 C 122.894531 56.457031 125.757812 57.351562 127.429688 59.679688 C 131.355469 65.167969 127.210938 72.785156 123.378906 77.023438 C 120.90625 79.757812 118.082031 82.121094 115.214844 84.429688 C 112.132812 86.910156 108.984375 89.265625 105.613281 91.339844 C 98.382812 95.785156 90.621094 99.292969 82.71875 102.355469 C 74.746094 105.449219 66.546875 108.664062 58.132812 110.292969 C 51.699219 111.539062 45.117188 111.980469 38.550781 111.980469 " fill-opacity="1" fill-rule="nonzero"/></g><path fill="#ffffff" d="M 115.226562 100.273438 C 115.226562 100.273438 115.925781 101.050781 115.566406 102.214844 C 114.941406 104.238281 115.234375 104.582031 115.328125 104.726562 C 115.421875 104.871094 117.371094 103.222656 118.136719 102.089844 C 118.808594 101.09375 118.382812 100.875 118.054688 100.550781 C 117.726562 100.230469 116.917969 99.277344 116.761719 98.96875 L 115.226562 100.273438 " fill-opacity="1" fill-rule="nonzero"/><path fill="#171b31" d="M 115.328125 103.082031 C 115.328125 103.082031 114.394531 105.789062 114.691406 106.640625 C 114.691406 106.640625 114.964844 107.308594 115.859375 106.84375 C 117.191406 106.148438 118.386719 104.476562 118.65625 103.695312 C 118.65625 103.695312 118.871094 103.3125 118.988281 103.207031 C 119.105469 103.101562 119.726562 102.492188 119.675781 102.222656 C 119.675781 102.222656 118.898438 100.984375 118.054688 100.550781 C 118.054688 100.550781 117.664062 101.605469 116.792969 102.160156 C 116.792969 102.160156 116.925781 101.644531 116.671875 101.683594 L 115.625 101.984375 C 115.625 101.984375 115.160156 101.898438 115.328125 103.082031 " fill-opacity="1" fill-rule="nonzero"/><path fill="#ffffff" d="M 110.070312 104.507812 C 110.070312 104.507812 110.242188 105.539062 109.3125 106.328125 C 107.703125 107.699219 107.765625 108.152344 107.765625 108.324219 C 107.765625 108.492188 110.300781 108.144531 111.550781 107.601562 C 112.652344 107.121094 112.410156 106.707031 112.308594 106.257812 C 112.203125 105.8125 112.03125 104.574219 112.066406 104.230469 L 110.070312 104.507812 " fill-opacity="1" fill-rule="nonzero"/><path fill="#171b31" d="M 107.644531 68.136719 L 106.769531 82.371094 C 106.769531 82.371094 114.269531 100.105469 114.679688 101.277344 C 114.679688 101.277344 117.023438 101.136719 117.847656 98.320312 L 113.582031 80.648438 L 115.09375 68.894531 L 107.644531 68.136719 " fill-opacity="1" fill-rule="nonzero"/><path fill="#282b4c" d="M 116.785156 67.375 C 116.785156 67.375 117.449219 72.066406 116.996094 74.15625 C 116.546875 76.242188 115.164062 83.386719 115.164062 83.386719 C 115.164062 83.386719 114.871094 85.703125 114.871094 87.113281 C 114.871094 88.523438 112.964844 104.722656 112.964844 104.722656 C 112.964844 104.722656 111.242188 105.511719 109.296875 104.722656 C 109.296875 104.722656 108.148438 85.175781 108.148438 83.515625 C 108.148438 81.148438 110.515625 66.503906 110.515625 66.503906 L 116.785156 67.375 " fill-opacity="1" fill-rule="nonzero"/><path fill="#f89b87" d="M 92.238281 47.308594 C 92.238281 47.308594 89.539062 45.359375 88.804688 45.269531 C 88.804688 45.269531 88.597656 45.28125 88.804688 45.617188 C 89.011719 45.953125 90.238281 46.972656 90.316406 47.203125 C 90.316406 47.203125 90.378906 47.527344 90.339844 47.566406 C 90.339844 47.566406 89.441406 47.429688 89.128906 47.488281 C 88.921875 47.527344 89.078125 47.757812 89.21875 47.847656 C 89.359375 47.9375 90.03125 48.082031 90.417969 48.285156 C 90.804688 48.492188 91.492188 48.789062 91.695312 48.789062 C 91.902344 48.789062 92.238281 47.308594 92.238281 47.308594 " fill-opacity="1" fill-rule="nonzero"/><path fill="#ffffff" d="M 93.332031 47.683594 L 92.179688 47.101562 C 92.179688 47.101562 91.523438 48 91.523438 48.9375 L 92.488281 49.574219 L 93.332031 47.683594 " fill-opacity="1" fill-rule="nonzero"/><path fill="#283875" d="M 107.867188 49.15625 C 107.867188 49.15625 106.25 49.402344 105.390625 49.574219 C 104.53125 49.746094 99.9375 50.574219 99.9375 50.574219 L 93.105469 47.4375 C 93.105469 47.4375 92.417969 48.066406 92.007812 49.574219 C 92.007812 49.574219 97.707031 53.101562 98.25 53.414062 C 99.386719 54.0625 100.121094 54.441406 101.296875 54.449219 C 103.359375 54.460938 106.5625 54.472656 106.5625 54.472656 L 107.867188 49.15625 " fill-opacity="1" fill-rule="nonzero"/><path fill="#f68778" d="M 106.769531 52.957031 C 106.839844 52.316406 106.929688 50.046875 107.042969 49.886719 C 107.042969 49.886719 109.3125 49.265625 109.480469 48.90625 C 109.738281 48.351562 110.101562 46.800781 110.199219 45.167969 C 110.222656 44.761719 112.921875 43.046875 112.921875 43.046875 C 112.921875 43.046875 112.859375 46.953125 113.75 48.71875 C 113.75 48.71875 116.761719 49.160156 117.4375 49.835938 C 117.613281 50.011719 117.753906 50.351562 117.847656 50.796875 L 106.769531 52.957031 " fill-opacity="1" fill-rule="nonzero"/><path fill="#f5746b" d="M 109.617188 48.546875 C 111.234375 49.164062 113.113281 46.996094 112.957031 45.613281 C 112.957031 45.574219 112.953125 45.535156 112.953125 45.5 L 112.949219 45.425781 C 112.945312 45.382812 112.945312 45.339844 112.941406 45.300781 L 112.941406 45.246094 C 112.9375 45.203125 112.9375 45.15625 112.9375 45.113281 L 112.933594 45.082031 C 112.933594 45.035156 112.929688 44.988281 112.929688 44.941406 L 112.929688 44.933594 L 112.675781 44.933594 L 110.070312 46.214844 C 110.003906 47.121094 109.773438 47.871094 109.617188 48.546875 " fill-opacity="1" fill-rule="nonzero"/><path fill="#282b4c" d="M 105.480469 67.8125 C 105.480469 67.8125 109.648438 68.144531 117.222656 67.375 " fill-opacity="1" fill-rule="nonzero"/><path fill="#cbdaf2" d="M 113.828125 48.722656 C 113.828125 48.722656 110.65625 50.292969 110.347656 50.25 C 110.070312 50.210938 109.503906 49.667969 109.097656 49.074219 L 108.257812 49.394531 L 106.257812 68.449219 C 106.257812 68.449219 110.082031 71.132812 116.203125 68.550781 L 113.828125 48.722656 " fill-opacity="1" fill-rule="nonzero"/><path fill="#0e111d" d="M 109.996094 52.328125 L 110.871094 52.308594 C 110.871094 52.308594 111.800781 56.261719 110.65625 62.070312 C 110.320312 63.777344 110.023438 64.839844 110.023438 64.839844 C 110.023438 64.839844 108.921875 63.976562 108.9375 61.675781 C 108.953125 59.371094 110.230469 55.457031 109.996094 52.328125 " fill-opacity="1" fill-rule="nonzero"/><path fill="#0e111d" d="M 109.640625 50.773438 C 109.640625 50.773438 109.851562 52.136719 110.039062 52.410156 C 110.039062 52.410156 110.609375 52.546875 110.8125 52.496094 L 111.386719 50.773438 L 110.347656 50.25 L 110.125 50.175781 L 109.640625 50.773438 " fill-opacity="1" fill-rule="nonzero"/><path fill="#ffffff" d="M 110.347656 50.25 L 108.683594 51.765625 L 108.683594 49.398438 L 109.480469 48.90625 L 110.347656 50.25 " fill-opacity="1" fill-rule="nonzero"/><path fill="#ffffff" d="M 110.347656 50.25 L 113.171875 52.308594 L 113.582031 48.84375 C 113.582031 48.84375 112.113281 49.664062 110.347656 50.25 " fill-opacity="1" fill-rule="nonzero"/><path fill="#283875" d="M 113.617188 48.648438 C 113.683594 48.535156 113.839844 48.507812 113.839844 48.507812 C 114.492188 48.535156 115.839844 49.117188 117.847656 49.789062 C 117.847656 49.789062 118.625 49.730469 118.585938 53.390625 C 118.546875 57.167969 119.15625 63.964844 118.636719 70.820312 C 118.636719 70.820312 116.949219 73.035156 113.542969 73.035156 C 113.542969 73.035156 112.378906 55.191406 113.617188 48.648438 " fill-opacity="1" fill-rule="nonzero"/><path fill="#e10e7b" d="M 113.945312 65.871094 L 108.316406 65.539062 L 108.316406 57.589844 L 113.945312 58.003906 L 113.945312 65.871094 " fill-opacity="1" fill-rule="nonzero"/><path fill="#283875" d="M 109.480469 48.90625 L 107.378906 49.230469 C 105.941406 48.90625 105.203125 68.496094 105.203125 68.496094 C 105.601562 69.671875 106.507812 70.976562 107.996094 71.132812 C 107.996094 71.132812 107.074219 56.929688 109.480469 48.90625 " fill-opacity="1" fill-rule="nonzero"/><path fill="#f89b87" d="M 108.078125 41.046875 C 108.078125 41.046875 107.601562 42.964844 107.648438 44.78125 C 107.695312 46.808594 108.503906 47.546875 109.203125 47.769531 C 109.203125 47.769531 109.371094 47.898438 110.035156 47.882812 C 110.851562 47.863281 112.460938 46.875 113.074219 45.359375 C 113.074219 45.359375 113.496094 45.550781 113.847656 44.851562 C 114.199219 44.148438 114.140625 43.003906 113.273438 43.582031 C 113.273438 43.582031 113.976562 40.433594 112.582031 40.035156 C 111.1875 39.636719 108.53125 38.765625 108.078125 41.046875 " fill-opacity="1" fill-rule="nonzero"/><path fill="#283a7a" d="M 114.636719 39.535156 C 115.996094 42.179688 114.363281 44.1875 113.46875 45.558594 C 113.089844 46.136719 113.246094 46.796875 113.167969 46.773438 C 113 46.203125 112.910156 46.089844 112.957031 45.613281 C 112.953125 45.5 113.0625 45.394531 113.074219 45.359375 C 113.074219 45.359375 113.375 45.582031 113.851562 44.757812 C 114.1875 44.175781 114.054688 43.015625 113.347656 43.621094 C 113.269531 43.703125 113.179688 43.78125 113.109375 43.8125 C 112.933594 43.886719 112.460938 42.820312 112.734375 42.160156 C 112.734375 42.160156 112.957031 41.347656 112.804688 40.816406 C 112.804688 40.816406 111.152344 41.425781 109.789062 41.28125 C 109.789062 41.28125 108.910156 41.1875 108.492188 40.609375 C 108.492188 40.609375 108.140625 41 107.949219 41.578125 C 107.949219 41.578125 106.730469 39.554688 107.867188 38.335938 C 108.804688 37.332031 109.96875 37.636719 110 37.652344 C 110.027344 37.671875 110.695312 37.726562 111.695312 37.886719 C 113.191406 38.125 113.984375 38.261719 114.636719 39.535156 " fill-opacity="1" fill-rule="nonzero"/><path fill="#283a7a" d="M 107.675781 40.128906 C 107.675781 40.128906 107.453125 42.207031 107.71875 42.945312 C 107.71875 42.945312 107.863281 41.789062 108.148438 41.113281 L 107.675781 40.128906 " fill-opacity="1" fill-rule="nonzero"/><path fill="#f89b87" d="M 111.894531 63.683594 C 111.894531 63.683594 110.261719 64.191406 109.8125 64.1875 C 109.363281 64.1875 108.242188 63.382812 108.183594 63.195312 C 108.121094 63.007812 107.871094 62.476562 108.074219 62.238281 C 108.28125 62 108.339844 62.1875 108.511719 62.324219 C 108.683594 62.460938 109.867188 62.460938 109.867188 62.460938 C 109.867188 62.460938 109.160156 62.078125 109.242188 61.929688 C 109.324219 61.785156 110.125 62.003906 110.304688 62.042969 C 110.484375 62.082031 111.679688 62.402344 111.84375 62.5 L 111.894531 63.683594 " fill-opacity="1" fill-rule="nonzero"/><path fill="#ffffff" d="M 112.683594 62.054688 L 111.652344 62.378906 C 111.652344 62.378906 111.308594 63.304688 111.535156 63.90625 L 112.769531 63.808594 L 112.683594 62.054688 " fill-opacity="1" fill-rule="nonzero"/><path fill="#283875" d="M 117.976562 49.84375 C 117.976562 49.84375 116.472656 51.742188 116.675781 54.421875 L 119.050781 59.476562 L 112.394531 61.957031 C 112.394531 61.957031 112 63.335938 112.394531 64.011719 C 112.394531 64.011719 120.804688 62.929688 122.097656 61.746094 C 122.714844 61.175781 122.75 60.171875 122.699219 59.640625 C 122.648438 59.113281 120.703125 49.949219 117.976562 49.84375 " fill-opacity="1" fill-rule="nonzero"/><path fill="#ffffff" d="M 113.109375 61.746094 L 118.652344 59.679688 L 118.617188 59.582031 L 113.074219 61.648438 " fill-opacity="1" fill-rule="nonzero"/><path fill="#ffffff" d="M 118.605469 62.898438 L 113.15625 63.855469 L 113.171875 63.957031 L 118.621094 63 " fill-opacity="1" fill-rule="nonzero"/><path fill="#171b31" d="M 108.648438 106.933594 C 108.648438 106.933594 106.40625 108.71875 106.199219 109.59375 C 106.199219 109.59375 106.074219 110.308594 107.078125 110.394531 C 108.574219 110.523438 110.484375 109.75 111.128906 109.234375 C 111.128906 109.234375 111.515625 109.027344 111.671875 109 C 111.824219 108.976562 112.675781 108.796875 112.78125 108.539062 C 112.78125 108.539062 112.789062 107.078125 112.308594 106.257812 C 112.308594 106.257812 111.414062 106.9375 110.378906 106.9375 C 110.378906 106.9375 110.765625 106.578125 110.535156 106.472656 L 109.488281 106.164062 C 109.488281 106.164062 109.140625 105.847656 108.648438 106.933594 " fill-opacity="1" fill-rule="nonzero"/><path fill="#283a7a" d="M 42.75 43.6875 C 42.75 43.6875 42.023438 47.972656 43.285156 49.851562 C 44.6875 51.941406 44.335938 53.480469 42.359375 54.183594 C 40.382812 54.886719 39.125 50.292969 39.125 50.292969 L 42.75 43.6875 " fill-opacity="1" fill-rule="nonzero"/><path fill="#f89b87" d="M 28.914062 46.652344 L 25.886719 42.988281 C 25.886719 42.988281 24.933594 43.480469 24.488281 44.574219 L 26.65625 47.515625 L 28.914062 46.652344 " fill-opacity="1" fill-rule="nonzero"/><path fill="#282b4c" d="M 47.9375 110.839844 C 47.9375 110.839844 48.089844 110.679688 48.003906 110.527344 C 47.914062 110.375 46.644531 109.269531 46.644531 109.269531 L 44.011719 107.984375 C 44.011719 107.984375 43.496094 108.234375 44.273438 110.945312 L 44.425781 110.941406 L 44.480469 109.683594 C 44.480469 109.683594 45.339844 111.210938 47.9375 110.839844 " fill-opacity="1" fill-rule="nonzero"/><path fill="#f89b87" d="M 44.203125 87.976562 C 44.203125 87.976562 44.980469 102.0625 44.949219 107.855469 C 44.949219 107.855469 44.871094 109.640625 43.96875 108.132812 C 43.96875 108.132812 43.609375 106.773438 43.277344 104.902344 C 42.296875 99.371094 40.066406 91.519531 41.226562 88.613281 L 44.203125 87.976562 " fill-opacity="1" fill-rule="nonzero"/><path fill="#f89b87" d="M 44.949219 107.621094 C 44.949219 107.621094 46.644531 109.269531 46.941406 109.601562 C 47.128906 109.8125 45.078125 109.8125 43.96875 108.132812 C 43.96875 108.132812 44.371094 106.84375 44.949219 107.621094 " fill-opacity="1" fill-rule="nonzero"/><path fill="#282b4c" d="M 42.925781 70.347656 C 42.925781 70.347656 44.949219 86.824219 45.339844 107.265625 C 45.339844 107.265625 44.292969 107.964844 43.242188 107.265625 C 43.242188 107.265625 39.25 91.359375 37.90625 79.0625 C 37.90625 79.0625 36.175781 73.582031 36.460938 71.515625 C 36.746094 69.445312 42.925781 70.347656 42.925781 70.347656 " fill-opacity="1" fill-rule="nonzero"/><path fill="#282b4c" d="M 28.304688 110.839844 C 28.304688 110.839844 28.152344 110.679688 28.238281 110.527344 C 28.328125 110.375 29.597656 109.269531 29.597656 109.269531 L 32.230469 107.984375 C 32.230469 107.984375 32.746094 108.234375 31.972656 110.945312 L 31.816406 110.941406 L 31.761719 109.683594 C 31.761719 109.683594 30.902344 111.210938 28.304688 110.839844 " fill-opacity="1" fill-rule="nonzero"/><path fill="#f89b87" d="M 32.039062 87.976562 C 32.039062 87.976562 31.265625 102.0625 31.292969 107.855469 C 31.292969 107.855469 31.371094 109.640625 32.273438 108.132812 C 32.273438 108.132812 32.632812 106.773438 32.964844 104.902344 C 33.945312 99.371094 36.175781 91.519531 35.019531 88.613281 L 32.039062 87.976562 " fill-opacity="1" fill-rule="nonzero"/><path fill="#f89b87" d="M 31.292969 107.621094 C 31.292969 107.621094 29.597656 109.269531 29.300781 109.601562 C 29.113281 109.8125 31.164062 109.8125 32.273438 108.132812 C 32.273438 108.132812 31.871094 106.84375 31.292969 107.621094 " fill-opacity="1" fill-rule="nonzero"/><path fill="#282b4c" d="M 33.316406 70.347656 C 33.316406 70.347656 31.292969 86.824219 30.90625 107.265625 C 30.90625 107.265625 31.949219 107.964844 33 107.265625 C 33 107.265625 37.03125 90.972656 38.378906 78.671875 C 38.378906 78.671875 40.066406 73.582031 39.78125 71.515625 C 39.496094 69.445312 33.316406 70.347656 33.316406 70.347656 " fill-opacity="1" fill-rule="nonzero"/><path fill="#e4846c" d="M 41.828125 51.574219 C 41.113281 51.300781 40.46875 51 40.453125 50.808594 C 40.453125 50.808594 40.160156 48.320312 39.984375 46.878906 C 39.933594 46.445312 37.292969 45.019531 37.292969 45.019531 C 37.292969 45.019531 37.285156 49.402344 36.636719 50.917969 C 36.636719 50.917969 35.863281 51.175781 34.691406 51.589844 L 34.769531 55.679688 L 41.902344 55.546875 L 41.828125 51.574219 " fill-opacity="1" fill-rule="nonzero"/><path fill="#d26758" d="M 37.28125 45.730469 C 37.265625 46.25 37.238281 47 37.179688 47.785156 C 37.78125 48.957031 39.359375 51.71875 40.488281 50.886719 L 40.453125 50.808594 C 40.453125 50.808594 40.253906 49.132812 40.085938 47.734375 L 37.496094 45.652344 L 37.28125 45.730469 " fill-opacity="1" fill-rule="nonzero"/><path fill="#91dbe3" d="M 43.683594 72.316406 C 43.683594 72.316406 43.847656 73.042969 43.421875 73.15625 C 36.394531 75.082031 32.511719 72.890625 32.511719 72.890625 C 32.460938 72.554688 33.734375 65.183594 33.734375 65.183594 C 33.914062 63.765625 34.542969 62.394531 33.105469 59.433594 C 32.191406 57.550781 31.585938 53.902344 31.585938 53.902344 C 31.429688 52.035156 36.636719 50.917969 36.636719 50.917969 C 38.398438 53.777344 39.742188 53.90625 39.742188 53.90625 C 41.113281 51.5625 40.511719 50.914062 40.511719 50.914062 C 41.363281 50.832031 42.648438 50.3125 42.960938 50.628906 C 43.679688 51.351562 44.851562 56.597656 44.851562 56.597656 C 44.851562 56.597656 45.195312 57.972656 44.179688 61.027344 C 44.179688 61.027344 43.644531 62.273438 43.316406 65.292969 C 43.132812 66.929688 43.683594 72.316406 43.683594 72.316406 " fill-opacity="1" fill-rule="nonzero"/><path fill="#f89b87" d="M 41.320312 49.558594 C 41.320312 49.558594 41.105469 49.734375 40.601562 49.675781 C 40.175781 49.628906 37.863281 48.527344 37.230469 46.894531 C 37.230469 46.894531 36.613281 47.078125 36.25 46.320312 C 35.890625 45.5625 36.097656 44.417969 37.015625 45.050781 C 37.015625 45.050781 36.363281 41.605469 37.863281 41.203125 C 39.367188 40.804688 42.222656 39.921875 42.664062 42.375 C 42.664062 42.375 42.988281 44.578125 42.796875 46.492188 C 42.796875 46.492188 42.566406 48.21875 41.320312 49.558594 " fill-opacity="1" fill-rule="nonzero"/><path fill="#283a7a" d="M 42.691406 42.589844 C 42.804688 42.027344 42.613281 41.101562 42.054688 40.488281 C 40.898438 39.222656 37.152344 38.105469 35.464844 41.074219 C 34.234375 43.238281 35.378906 46.410156 36.355469 47.175781 C 37.03125 47.703125 36.75 48.210938 36.753906 48.640625 C 36.753906 48.917969 36.984375 48.90625 37.070312 48.878906 C 37.128906 48.375 37.316406 47.515625 37.277344 47 C 37.261719 46.964844 37.246094 46.929688 37.230469 46.894531 C 37.230469 46.894531 36.613281 47.078125 36.25 46.320312 C 35.894531 45.574219 36.089844 44.453125 36.976562 45.027344 C 37.058594 45.117188 37.148438 45.203125 37.226562 45.238281 C 37.410156 45.324219 39.925781 43.703125 41.320312 41.179688 C 41.320312 41.179688 42.144531 41.558594 42.691406 42.589844 " fill-opacity="1" fill-rule="nonzero"/><path fill="#91dbe3" d="M 27.808594 45.199219 C 34.554688 51.726562 36.109375 53.4375 36.109375 53.4375 C 33.75 54.644531 32.351562 57.332031 32.351562 57.332031 L 25.925781 46.585938 C 25.925781 46.585938 26.554688 45.339844 27.808594 45.199219 " fill-opacity="1" fill-rule="nonzero"/><path fill="#f89b87" d="M 47.773438 43.632812 C 47.773438 43.632812 53.6875 34.78125 54.210938 34.003906 C 54.210938 34.003906 54.671875 34.082031 54.738281 34.535156 C 54.738281 34.535156 50.203125 44.875 49.03125 45.257812 C 47.207031 45.855469 47.773438 43.632812 47.773438 43.632812 " fill-opacity="1" fill-rule="nonzero"/><path fill="#f89b87" d="M 45.40625 46.835938 L 48.203125 42.988281 C 48.203125 42.988281 49.183594 43.421875 49.699219 44.480469 L 47.71875 47.554688 L 45.40625 46.835938 " fill-opacity="1" fill-rule="nonzero"/><path fill="#91dbe3" d="M 40.628906 51.175781 L 46.847656 44.734375 C 46.847656 44.734375 47.84375 44.660156 48.617188 46.316406 L 44.269531 56.320312 L 40.628906 51.175781 " fill-opacity="1" fill-rule="nonzero"/><path fill="#f89b87" d="M 26.355469 43.605469 C 26.355469 43.605469 21.113281 36.726562 19.660156 34.828125 C 19.476562 33.863281 18.691406 33.886719 18.691406 33.886719 C 18.101562 32.261719 16.632812 31.921875 16.597656 32.328125 C 16.558594 32.730469 17.679688 34.917969 18.070312 35.117188 C 18.460938 35.3125 19.035156 35.335938 19.035156 35.335938 C 19.988281 37.167969 24.148438 45.03125 25.203125 45.304688 C 27.058594 45.789062 26.355469 43.605469 26.355469 43.605469 " fill-opacity="1" fill-rule="nonzero"/><path fill="#f89b87" d="M 54.652344 34.667969 C 54.652344 34.667969 55.222656 34.625 55.605469 34.414062 C 55.988281 34.199219 57.027344 31.972656 56.976562 31.570312 C 56.921875 31.167969 55.46875 31.5625 54.941406 33.207031 C 54.941406 33.207031 54.15625 33.214844 54.007812 34.183594 L 54.652344 34.667969 " fill-opacity="1" fill-rule="nonzero"/><path fill="#283a7a" d="M 37.289062 45.234375 C 37.289062 45.234375 36.714844 45.8125 36.90625 46.898438 C 37.09375 47.980469 38.304688 50.058594 37.691406 50.828125 C 37.078125 51.59375 36.324219 51.777344 36.101562 52.980469 C 35.875 54.183594 33.957031 55.0625 33.328125 53.46875 C 32.699219 51.875 31.992188 50.5 33.25 49.332031 C 34.507812 48.164062 35.195312 45.984375 34.957031 43.832031 L 37.289062 45.234375 " fill-opacity="1" fill-rule="nonzero"/><path fill="#ef2a81" d="M 77.878906 110.40625 C 77.878906 110.40625 77.703125 110.289062 77.753906 110.121094 C 77.808594 109.957031 78.796875 108.644531 78.796875 108.644531 L 81.054688 106.878906 C 81.054688 106.878906 81.597656 107.011719 81.410156 109.761719 L 81.261719 109.789062 L 80.953125 108.597656 C 80.953125 108.597656 80.441406 110.234375 77.878906 110.40625 " fill-opacity="1" fill-rule="nonzero"/><path fill="#f89b87" d="M 76.785156 87.777344 C 76.785156 87.777344 78.921875 101.410156 80.128906 106.945312 C 80.128906 106.945312 80.570312 108.636719 81.125 107.007812 C 81.125 107.007812 81.191406 105.636719 81.125 103.78125 C 80.9375 98.289062 81.464844 90.324219 79.765625 87.777344 L 76.785156 87.777344 " fill-opacity="1" fill-rule="nonzero"/><path fill="#f89b87" d="M 80.082031 106.722656 C 80.082031 106.722656 78.796875 108.644531 78.582031 109.019531 C 78.445312 109.261719 80.40625 108.84375 81.125 107.007812 C 81.125 107.007812 80.476562 105.859375 80.082031 106.722656 " fill-opacity="1" fill-rule="nonzero"/><path fill="#ef2a81" d="M 104.964844 80.863281 C 104.964844 80.863281 104.9375 81.078125 104.765625 81.105469 C 104.597656 81.132812 102.972656 80.859375 102.972656 80.859375 L 100.367188 79.664062 C 100.367188 79.664062 100.238281 79.121094 102.769531 78.027344 L 102.863281 78.148438 L 101.945312 78.964844 C 101.945312 78.964844 103.636719 78.671875 104.964844 80.863281 " fill-opacity="1" fill-rule="nonzero"/><path fill="#f89b87" d="M 89.050781 85.789062 C 90.664062 83.277344 92.722656 83.910156 97.519531 81.222656 C 99.140625 80.3125 100.453125 79.539062 100.453125 79.539062 C 102.152344 79.289062 100.851562 80.453125 100.851562 80.453125 C 96.484375 84.066406 88.730469 89.894531 88.730469 89.894531 C 88.730469 89.894531 87.472656 90.738281 86.890625 90.585938 C 86.308594 90.4375 83.570312 85.117188 83.570312 85.117188 L 88.671875 84.910156 L 89.050781 85.789062 " fill-opacity="1" fill-rule="nonzero"/><path fill="#f89b87" d="M 100.671875 80.597656 C 100.671875 80.597656 102.972656 80.859375 103.40625 80.875 C 103.683594 80.886719 102.414062 79.339844 100.453125 79.539062 C 100.453125 79.539062 99.726562 80.644531 100.671875 80.597656 " fill-opacity="1" fill-rule="nonzero"/><path fill="#ef2a81" d="M 85.984375 71.664062 C 85.984375 71.664062 88.992188 77.660156 89.96875 83.804688 C 89.96875 83.804688 90.042969 85.226562 88.617188 85.527344 C 87.191406 85.828125 83.710938 87.101562 82.113281 88.75 C 80.515625 90.398438 78.457031 91.449219 76.785156 90.847656 C 76.785156 90.847656 75.304688 78.03125 76.785156 71.664062 L 85.984375 71.664062 " fill-opacity="1" fill-rule="nonzero"/><path fill="#283a7a" d="M 76.640625 42.003906 C 76.640625 42.003906 76.300781 46.164062 75.675781 47.046875 C 74.699219 48.425781 73.546875 50.085938 74.171875 51.199219 C 74.796875 52.3125 77.445312 52.324219 79.578125 51.558594 C 79.578125 51.558594 78.542969 42.476562 76.640625 42.003906 " fill-opacity="1" fill-rule="nonzero"/><path fill="#f89b87" d="M 89.066406 61.917969 C 89.066406 61.917969 90.964844 65.558594 91.335938 65.667969 C 93.289062 66.226562 92.3125 63.34375 92.3125 63.34375 L 89.855469 57.421875 L 89.066406 61.917969 " fill-opacity="1" fill-rule="nonzero"/><path fill="#e4846c" d="M 77.636719 51.640625 C 78.332031 51.355469 78.960938 51.050781 78.96875 50.863281 C 78.96875 50.863281 79.210938 48.425781 79.351562 47.011719 C 79.394531 46.585938 81.953125 45.144531 81.953125 45.144531 C 81.953125 45.144531 82.039062 49.429688 82.703125 50.902344 C 82.703125 50.902344 83.460938 51.140625 84.613281 51.523438 L 84.613281 55.523438 L 77.636719 55.523438 L 77.636719 51.640625 " fill-opacity="1" fill-rule="nonzero"/><path fill="#d26758" d="M 81.976562 45.839844 C 82 46.347656 82.039062 47.078125 82.113281 47.84375 C 81.542969 49.003906 80.050781 51.730469 78.933594 50.941406 L 78.96875 50.863281 C 78.96875 50.863281 79.132812 49.21875 79.269531 47.847656 L 81.765625 45.769531 L 81.976562 45.839844 " fill-opacity="1" fill-rule="nonzero"/><path fill="#cbdaf2" d="M 76.082031 71.867188 C 76.082031 71.867188 75.921875 72.578125 76.335938 72.691406 C 83.210938 74.574219 87.007812 72.429688 87.007812 72.429688 C 87.058594 72.101562 85.222656 65.738281 85.222656 65.738281 C 85.371094 63.980469 85.363281 61.757812 86.71875 58.832031 C 87.578125 56.972656 87.695312 53.726562 87.695312 53.726562 C 87.816406 51.898438 82.703125 50.902344 82.703125 50.902344 C 81.03125 53.730469 79.71875 53.878906 79.71875 53.878906 C 78.335938 51.613281 78.914062 50.96875 78.914062 50.96875 C 78.078125 50.902344 77.367188 50.765625 77.0625 51.082031 C 76.375 51.804688 74.496094 57.027344 74.496094 57.027344 C 74.496094 57.027344 73.292969 59.21875 75.511719 60.925781 C 75.511719 60.925781 75.761719 62.832031 76.441406 65 C 76.925781 66.539062 76.082031 71.867188 76.082031 71.867188 " fill-opacity="1" fill-rule="nonzero"/><path fill="#f89b87" d="M 78.09375 49.65625 C 78.09375 49.65625 78.3125 49.824219 78.804688 49.757812 C 79.21875 49.703125 81.460938 48.585938 82.046875 46.976562 C 82.046875 46.976562 82.65625 47.144531 82.996094 46.398438 C 83.335938 45.652344 83.113281 44.53125 82.222656 45.171875 C 82.222656 45.171875 82.800781 41.789062 81.324219 41.421875 C 79.847656 41.0625 77.035156 40.25 76.652344 42.65625 C 76.652344 42.65625 76.375 44.816406 76.597656 46.683594 C 76.597656 46.683594 76.855469 48.371094 78.09375 49.65625 " fill-opacity="1" fill-rule="nonzero"/><path fill="#283a7a" d="M 76.625 42.867188 C 76.507812 42.320312 76.679688 41.410156 77.210938 40.800781 C 78.320312 39.542969 81.964844 38.378906 83.667969 41.253906 C 84.910156 43.347656 83.851562 46.46875 82.90625 47.234375 C 82.257812 47.761719 82.539062 48.253906 82.546875 48.675781 C 82.550781 48.949219 82.324219 48.9375 82.242188 48.914062 C 82.171875 48.425781 81.972656 47.585938 82.003906 47.082031 C 82.019531 47.046875 82.03125 47.011719 82.046875 46.976562 C 82.046875 46.976562 82.65625 47.144531 82.996094 46.398438 C 83.328125 45.664062 83.117188 44.566406 82.265625 45.144531 C 82.183594 45.234375 82.09375 45.320312 82.023438 45.355469 C 81.839844 45.445312 79.355469 43.90625 77.945312 41.464844 C 77.945312 41.464844 77.144531 41.847656 76.625 42.867188 " fill-opacity="1" fill-rule="nonzero"/><path fill="#cbdaf2" d="M 89.960938 63.980469 L 89.976562 63.941406 L 86.40625 59.105469 C 86.40625 59.105469 85.152344 54.359375 86.984375 52.527344 C 86.984375 52.527344 88.277344 52.886719 92.554688 63.34375 L 89.960938 63.980469 " fill-opacity="1" fill-rule="nonzero"/><path fill="#f89b87" d="M 90.933594 65.058594 C 90.933594 65.058594 92.007812 58.234375 93.097656 53.550781 L 93.921875 53.402344 C 93.921875 53.402344 93.507812 63.296875 93.023438 65.058594 C 92.628906 66.476562 91.058594 66.453125 90.933594 65.058594 " fill-opacity="1" fill-rule="nonzero"/><path fill="#f89b87" d="M 93.214844 53.765625 C 93.214844 53.765625 92.742188 53.316406 92.839844 52.527344 C 92.929688 51.742188 93.136719 49.496094 93.476562 49.515625 C 93.8125 49.53125 94.1875 50.226562 94.261719 52.195312 C 94.261719 52.195312 94.433594 54.066406 93.214844 53.765625 " fill-opacity="1" fill-rule="nonzero"/><path fill="#f89b87" d="M 68.699219 49.394531 C 68.699219 49.394531 62.011719 41.410156 61.421875 40.710938 C 61.421875 40.710938 60.980469 40.832031 60.964844 41.28125 C 60.964844 41.28125 65.539062 50.699219 67.382812 51.039062 C 69.230469 51.378906 68.699219 49.394531 68.699219 49.394531 " fill-opacity="1" fill-rule="nonzero"/><path fill="#f89b87" d="M 71.957031 50.316406 L 68.347656 49.238281 C 68.347656 49.238281 66.996094 49.847656 67.214844 50.980469 L 70.566406 52.230469 L 71.957031 50.316406 " fill-opacity="1" fill-rule="nonzero"/><path fill="#cbdaf2" d="M 78.246094 50.929688 L 69.597656 49.515625 C 69.597656 49.515625 68.773438 50.035156 69.140625 51.789062 L 75.675781 55.285156 L 78.246094 50.929688 " fill-opacity="1" fill-rule="nonzero"/><path fill="#283a7a" d="M 81.125 44.566406 C 81.125 44.566406 80.011719 53.304688 84.613281 51.410156 L 86.367188 52.132812 C 86.367188 52.132812 85.84375 51.035156 84.792969 50.144531 C 83.742188 49.25 83.5625 46.480469 84.140625 44.566406 L 81.125 44.566406 " fill-opacity="1" fill-rule="nonzero"/><path fill="#f89b87" d="M 61.660156 40.996094 C 61.660156 40.996094 61.082031 40.136719 60.691406 39.96875 C 60.296875 39.796875 57.847656 39.6875 57.566406 39.96875 C 57.285156 40.246094 58.15625 41.203125 60.15625 41.203125 C 60.15625 41.203125 60.550781 41.847656 61.195312 41.75 L 61.660156 40.996094 " fill-opacity="1" fill-rule="nonzero"/><g clip-path="url(#5a14947645)"><path fill="#283a7a" d="M 42.957031 18.148438 C 42.957031 21.332031 40.367188 23.921875 37.179688 23.921875 C 33.996094 23.921875 31.402344 21.332031 31.402344 18.148438 C 31.402344 14.964844 33.996094 12.378906 37.179688 12.378906 C 40.367188 12.378906 42.957031 14.964844 42.957031 18.148438 Z M 55.289062 21.945312 L 55.289062 14.351562 L 49.675781 14.351562 C 49.425781 13.535156 49.097656 12.75 48.699219 12.011719 L 52.671875 8.039062 L 47.300781 2.671875 L 43.324219 6.640625 C 42.582031 6.246094 41.796875 5.917969 40.980469 5.667969 L 40.980469 0.0585938 L 33.382812 0.0585938 L 33.382812 5.667969 C 32.5625 5.917969 31.777344 6.246094 31.035156 6.640625 L 27.0625 2.671875 L 21.6875 8.039062 L 25.660156 12.011719 C 25.265625 12.75 24.9375 13.535156 24.6875 14.351562 L 19.070312 14.351562 L 19.070312 21.945312 L 24.6875 21.945312 C 24.9375 22.761719 25.265625 23.546875 25.660156 24.289062 L 21.6875 28.257812 L 27.0625 33.625 L 31.035156 29.65625 C 31.777344 30.054688 32.5625 30.382812 33.382812 30.632812 L 33.382812 36.242188 L 40.980469 36.242188 L 40.980469 30.632812 C 41.796875 30.382812 42.582031 30.054688 43.324219 29.65625 L 47.300781 33.625 L 52.671875 28.257812 L 48.699219 24.289062 C 49.097656 23.546875 49.425781 22.761719 49.675781 21.945312 L 55.289062 21.945312 " fill-opacity="1" fill-rule="nonzero"/></g></svg>