<svg xmlns="http://www.w3.org/2000/svg" xmlns:xlink="http://www.w3.org/1999/xlink" width="191" zoomAndPan="magnify" viewBox="0 0 143.25 112.499997" height="150" preserveAspectRatio="xMidYMid meet" version="1.0"><defs><clipPath id="2a4db181db"><path d="M 12 0.0429688 L 130.859375 0.0429688 L 130.859375 108 L 12 108 Z M 12 0.0429688 " clip-rule="nonzero"/></clipPath><clipPath id="1ffb72ba1e"><path d="M 119 103 L 125 103 L 125 111.957031 L 119 111.957031 Z M 119 103 " clip-rule="nonzero"/></clipPath><clipPath id="896f47e0f4"><path d="M 103 103 L 109 103 L 109 111.957031 L 103 111.957031 Z M 103 103 " clip-rule="nonzero"/></clipPath><clipPath id="450a7d456e"><path d="M 69 107 L 76 107 L 76 111.957031 L 69 111.957031 Z M 69 107 " clip-rule="nonzero"/></clipPath><clipPath id="85a91d72a5"><path d="M 22 106 L 27 106 L 27 111.957031 L 22 111.957031 Z M 22 106 " clip-rule="nonzero"/></clipPath><clipPath id="0ef6c94589"><path d="M 45 108 L 51 108 L 51 111.957031 L 45 111.957031 Z M 45 108 " clip-rule="nonzero"/></clipPath></defs><g clip-path="url(#2a4db181db)"><path fill="#f3dbb7" d="M 39.375 107.0625 C 35.796875 107.0625 32.226562 106.757812 28.734375 105.96875 C 22.265625 104.5 14.800781 101.058594 13.054688 94 C 11.492188 87.683594 14.019531 81.027344 17.195312 75.625 C 20.5625 69.898438 24.867188 65.226562 29.90625 60.96875 C 32.582031 58.707031 35.46875 56.253906 37.09375 53.082031 C 38.605469 50.128906 38.539062 46.929688 37.457031 43.839844 C 36.699219 41.671875 35.59375 39.714844 34.441406 37.738281 C 33.527344 36.164062 32.519531 34.457031 32.1875 32.640625 C 31.433594 28.558594 33.230469 24.78125 35.699219 21.621094 C 40.746094 15.160156 48.238281 11.136719 55.386719 7.4375 C 61.917969 4.058594 69.238281 0.679688 76.734375 0.355469 C 77.578125 0.125 78.46875 0.03125 79.371094 0.03125 C 80.238281 0.03125 81.117188 0.117188 81.964844 0.246094 C 84.480469 0.625 87 1.234375 89.386719 2.117188 C 95.578125 4.402344 102.5 8.203125 105.746094 14.242188 C 107.308594 17.140625 108.019531 20.585938 107.054688 23.808594 C 105.960938 27.457031 103.410156 30.007812 101.125 32.925781 C 99.542969 34.953125 97.234375 38.433594 99.878906 40.523438 C 101.972656 42.179688 104.875 42.625 107.332031 43.472656 C 111.425781 44.878906 115.558594 46.308594 119.550781 47.984375 C 122.921875 49.398438 126.796875 51.191406 128.960938 54.285156 C 130.859375 56.996094 130.828125 60.359375 129.699219 63.382812 C 128.234375 67.320312 126.027344 70.9375 123.425781 74.222656 C 117.972656 81.117188 110.917969 86.601562 103.621094 91.417969 C 99.914062 93.867188 96.167969 96.121094 92.042969 97.800781 C 87.816406 99.519531 83.417969 100.78125 78.960938 101.742188 C 70.558594 103.546875 61.960938 104.757812 53.449219 105.910156 C 48.828125 106.535156 44.089844 107.0625 39.375 107.0625 " fill-opacity="1" fill-rule="nonzero"/></g><path fill="#a9c5ea" d="M 107.324219 41.144531 C 107.324219 41.144531 105.730469 41.902344 105.371094 42.425781 C 105.015625 42.945312 103.179688 48.75 102.261719 51.398438 C 101.34375 54.046875 105.242188 51.753906 105.242188 51.753906 L 106.992188 48.371094 L 107.324219 41.144531 " fill-opacity="1" fill-rule="nonzero"/><path fill="#282b4c" d="M 107.167969 58.851562 L 105.417969 106.351562 C 105.417969 106.351562 106.292969 107.5 108.84375 106.144531 L 115.398438 57.9375 L 107.167969 58.851562 " fill-opacity="1" fill-rule="nonzero"/><path fill="#282b4c" d="M 119.507812 60.230469 L 122.765625 106.089844 C 122.765625 106.089844 121.207031 107.144531 119.007812 106.527344 L 110.632812 59.222656 L 119.507812 60.230469 " fill-opacity="1" fill-rule="nonzero"/><path fill="#f68778" d="M 109.296875 44.1875 L 120.417969 43.667969 C 120.324219 43.121094 120.167969 42.703125 119.960938 42.480469 C 119.167969 41.632812 115.3125 39.742188 115.3125 39.742188 C 114.300781 37.5625 114.792969 33.082031 114.792969 33.082031 C 114.792969 33.082031 110.796875 34.699219 110.753906 35.195312 C 110.570312 37.171875 110.46875 39.136719 110.132812 39.800781 C 110.070312 39.925781 109.789062 40.070312 109.421875 40.214844 L 109.296875 44.1875 " fill-opacity="1" fill-rule="nonzero"/><path fill="#f5746b" d="M 114.703125 36.652344 C 114.683594 36.300781 114.675781 35.957031 114.671875 35.625 C 114.578125 35.671875 114.917969 35 114.648438 35.039062 L 114.527344 34.6875 L 114.085938 34.851562 L 110.699219 36.582031 C 110.65625 37.066406 110.582031 37.53125 110.5 37.972656 C 110.425781 38.644531 110.339844 39.210938 110.222656 39.574219 L 110.222656 39.578125 C 113.261719 39.441406 114.398438 37.816406 114.703125 36.652344 " fill-opacity="1" fill-rule="nonzero"/><path fill="#cbdaf2" d="M 107.558594 41.023438 L 109.921875 39.964844 C 110.394531 40.699219 110.792969 41.40625 111.132812 41.464844 C 111.503906 41.53125 115.3125 39.742188 115.3125 39.742188 C 115.3125 39.742188 120.449219 40.820312 121.148438 41.167969 L 121.148438 45.769531 L 119.6875 62.796875 C 110.882812 64.503906 107 62.417969 107 62.417969 C 107 62.417969 105.996094 46.175781 106.542969 43.34375 C 106.800781 42.011719 106.832031 41.304688 107.558594 41.023438 " fill-opacity="1" fill-rule="nonzero"/><path fill="#f89b87" d="M 106.992188 59.558594 C 106.992188 59.558594 107.863281 59.636719 108.660156 59.558594 C 109.457031 59.480469 110.882812 59.355469 110.804688 59.058594 L 110.132812 58.890625 L 106.582031 58.890625 L 106.992188 59.558594 " fill-opacity="1" fill-rule="nonzero"/><path fill="#a9c5ea" d="M 106.957031 57.9375 C 105.71875 57.5625 102.9375 56.222656 101.1875 56.382812 C 101.1875 56.382812 99.21875 59.222656 100.949219 60.054688 C 101.816406 60.46875 106.039062 60.113281 107.167969 59.890625 L 106.957031 57.9375 " fill-opacity="1" fill-rule="nonzero"/><path fill="#0e111d" d="M 110.621094 43.972656 L 111.683594 43.984375 C 111.683594 43.984375 112.65625 48.816406 111.039062 55.824219 C 110.566406 57.878906 110.167969 59.15625 110.167969 59.15625 C 110.167969 59.15625 108.863281 58.070312 108.976562 55.277344 C 109.085938 52.480469 110.78125 47.777344 110.621094 43.972656 " fill-opacity="1" fill-rule="nonzero"/><path fill="#0e111d" d="M 110.046875 41.855469 C 110.046875 41.855469 110.453125 43.734375 110.671875 44.074219 C 110.671875 44.074219 111.355469 44.265625 111.605469 44.210938 L 112.738281 41.851562 L 111.597656 41.390625 L 111.132812 41.464844 L 110.046875 41.855469 " fill-opacity="1" fill-rule="nonzero"/><path fill="#ffffff" d="M 111.132812 41.464844 L 108.796875 42.8125 L 109.292969 40.148438 L 110.132812 39.800781 L 111.132812 41.464844 " fill-opacity="1" fill-rule="nonzero"/><path fill="#ffffff" d="M 111.488281 41.386719 L 115.097656 43.074219 L 115.3125 39.742188 C 115.3125 39.742188 113.585938 40.527344 111.488281 41.386719 " fill-opacity="1" fill-rule="nonzero"/><path fill="#f89b87" d="M 107.203125 32.371094 C 107.203125 32.371094 107.441406 34.644531 108.207031 36.601562 C 109.0625 38.792969 110.230469 39.277344 111.078125 39.242188 C 111.078125 39.242188 111.308594 39.316406 112.027344 39.035156 C 112.90625 38.695312 114.257812 36.980469 114.332031 35.089844 C 114.332031 35.089844 114.863281 35.128906 114.96875 34.230469 C 115.074219 33.328125 114.558594 32.105469 113.84375 33.078125 C 113.84375 33.078125 113.367188 29.371094 111.695312 29.488281 C 110.019531 29.605469 106.792969 29.707031 107.203125 32.371094 " fill-opacity="1" fill-rule="nonzero"/><path fill="#283a7a" d="M 114.585938 34.992188 C 114.585938 34.992188 114.824219 34.976562 114.933594 34.128906 C 115.035156 33.355469 114.46875 32.152344 113.9375 33.085938 C 113.886719 33.210938 113.824219 33.332031 113.757812 33.394531 C 113.597656 33.546875 112.660156 32.566406 112.699219 31.738281 C 112.699219 31.738281 112.617188 30.769531 112.246094 30.253906 C 112.246094 30.253906 109.984375 31.597656 109.246094 31.65625 C 109.246094 31.65625 108.296875 31.894531 107.453125 31.5625 C 107.453125 31.5625 107.25 32.292969 107.269531 33 C 107.269531 33 105.820312 31.144531 106.652344 29.402344 C 107.371094 27.890625 108.535156 27.738281 108.578125 27.746094 C 108.617188 27.753906 109.484375 27.511719 110.507812 27.332031 C 112.234375 27.027344 112.414062 27.160156 113.480469 27.886719 C 116.316406 29.828125 115.625 33.101562 115.15625 34.9375 C 114.890625 35.992188 114.910156 36.085938 114.804688 36.714844 L 114.585938 34.992188 " fill-opacity="1" fill-rule="nonzero"/><path fill="#283a7a" d="M 106.46875 31.054688 C 106.46875 31.054688 106.980469 33.878906 107.558594 34.578125 C 107.558594 34.578125 107.261719 33.261719 107.304688 32.410156 L 106.46875 31.054688 " fill-opacity="1" fill-rule="nonzero"/><g clip-path="url(#1ffb72ba1e)"><path fill="#282b4c" d="M 119.175781 103.273438 C 119.175781 103.273438 119.914062 106.21875 119.664062 107.40625 C 119.410156 108.597656 119.632812 110.066406 119.632812 110.066406 L 120.820312 110.222656 C 120.820312 110.222656 121.214844 110.53125 121.632812 111.03125 C 121.753906 111.175781 122.609375 111.882812 124.476562 111.695312 C 125.316406 111.609375 124.699219 110.316406 124.339844 109.785156 C 123.976562 109.253906 122.507812 107.71875 122.351562 106.90625 C 122.195312 106.089844 122.035156 103.492188 122.035156 103.492188 L 119.175781 103.273438 " fill-opacity="1" fill-rule="nonzero"/></g><g clip-path="url(#896f47e0f4)"><path fill="#282b4c" d="M 108.84375 103.273438 C 108.84375 103.273438 108.105469 106.21875 108.355469 107.40625 C 108.605469 108.597656 108.386719 110.066406 108.386719 110.066406 L 107.199219 110.222656 C 107.199219 110.222656 106.804688 110.53125 106.386719 111.03125 C 106.265625 111.175781 105.410156 111.882812 103.542969 111.695312 C 102.703125 111.609375 103.320312 110.316406 103.679688 109.785156 C 104.042969 109.253906 105.511719 107.71875 105.667969 106.90625 C 105.824219 106.089844 105.980469 103.492188 105.980469 103.492188 L 108.84375 103.273438 " fill-opacity="1" fill-rule="nonzero"/></g><path fill="#e4effa" d="M 120.277344 40.902344 C 120.277344 40.902344 122.476562 40.988281 123.292969 42.464844 C 124.167969 44.046875 127.523438 57.847656 127.085938 59.222656 C 126.648438 60.601562 120.289062 60.121094 114.414062 58.828125 C 114.414062 58.828125 112.789062 58.054688 113.761719 55.550781 L 114.070312 55.53125 L 122.167969 54.988281 C 122.167969 54.988281 119.355469 47.347656 118.855469 46.347656 C 118.355469 45.347656 119.507812 41.15625 120.277344 40.902344 " fill-opacity="1" fill-rule="nonzero"/><path fill="#84a3d9" d="M 115.078125 58.132812 C 115.003906 58.546875 114.808594 58.8125 114.460938 58.699219 C 114.039062 58.5625 113.8125 58.238281 113.703125 57.855469 C 113.539062 57.289062 113.628906 56.578125 113.71875 56.121094 C 113.777344 55.835938 113.835938 55.644531 113.835938 55.644531 C 114.234375 55.453125 114.566406 55.742188 114.789062 56.210938 C 115.058594 56.769531 115.175781 57.582031 115.078125 58.132812 " fill-opacity="1" fill-rule="nonzero"/><path fill="#f89b87" d="M 115.078125 58.132812 L 113.703125 57.855469 C 113.289062 58.09375 112.757812 57.726562 112.757812 58.101562 C 112.757812 58.480469 112.382812 58.628906 112.382812 58.628906 L 109.835938 58.628906 C 109.835938 58.628906 109.113281 57.960938 109.050781 57.867188 C 108.988281 57.773438 108.941406 57.554688 108.96875 57.257812 C 108.996094 56.960938 109.285156 56.773438 109.285156 56.773438 L 108.183594 57.152344 C 108.125 57.195312 106.992188 58.726562 106.992188 58.726562 L 106.675781 58.726562 C 106.628906 58.359375 107.550781 56.898438 107.550781 56.898438 C 107.550781 56.898438 110.035156 55.503906 110.566406 55.316406 C 111.097656 55.128906 111.925781 55.625 112.554688 55.863281 C 112.875 55.988281 113.316406 56.070312 113.71875 56.121094 C 114.289062 56.195312 114.789062 56.210938 114.789062 56.210938 C 115.058594 56.769531 115.175781 57.582031 115.078125 58.132812 " fill-opacity="1" fill-rule="nonzero"/><path fill="#5b94d5" d="M 115.707031 58.890625 C 115.707031 59.074219 115.558594 59.222656 115.375 59.222656 L 100.992188 59.222656 C 100.804688 59.222656 100.65625 59.074219 100.65625 58.890625 C 100.65625 58.707031 100.804688 58.558594 100.992188 58.558594 L 115.375 58.558594 C 115.558594 58.558594 115.707031 58.707031 115.707031 58.890625 " fill-opacity="1" fill-rule="nonzero"/><path fill="#76a8de" d="M 113.332031 58.890625 C 113.332031 58.707031 113.179688 58.558594 112.996094 58.558594 L 100.992188 58.558594 C 100.804688 58.558594 100.65625 58.707031 100.65625 58.890625 C 100.65625 59.074219 100.804688 59.222656 100.992188 59.222656 L 112.996094 59.222656 C 113.179688 59.222656 113.332031 59.074219 113.332031 58.890625 " fill-opacity="1" fill-rule="nonzero"/><path fill="#5b94d5" d="M 113.058594 58.441406 L 100.785156 58.441406 L 98.253906 49.46875 L 110.53125 49.46875 L 113.058594 58.441406 " fill-opacity="1" fill-rule="nonzero"/><path fill="#76a8de" d="M 112.488281 58.441406 L 100.785156 58.441406 L 98.253906 49.46875 L 109.960938 49.46875 L 112.488281 58.441406 " fill-opacity="1" fill-rule="nonzero"/><path fill="#5b94d5" d="M 111.671875 58.472656 C 111.671875 58.558594 111.601562 58.628906 111.515625 58.628906 L 109.621094 58.628906 C 109.535156 58.628906 109.464844 58.558594 109.464844 58.472656 C 109.464844 58.386719 109.535156 58.316406 109.621094 58.316406 L 111.515625 58.316406 C 111.601562 58.316406 111.671875 58.386719 111.671875 58.472656 " fill-opacity="1" fill-rule="nonzero"/><path fill="#5b94d5" d="M 104.847656 58.472656 C 104.847656 58.558594 104.777344 58.628906 104.691406 58.628906 L 102.792969 58.628906 C 102.707031 58.628906 102.636719 58.558594 102.636719 58.472656 C 102.636719 58.386719 102.707031 58.316406 102.792969 58.316406 L 104.691406 58.316406 C 104.777344 58.316406 104.847656 58.386719 104.847656 58.472656 " fill-opacity="1" fill-rule="nonzero"/><path fill="#ffffff" d="M 62.800781 99.378906 C 62.800781 99.378906 62.0625 100.136719 62.371094 101.335938 C 62.914062 103.410156 62.601562 103.75 62.5 103.890625 C 62.398438 104.035156 60.5 102.273438 59.777344 101.09375 C 59.140625 100.054688 59.582031 99.851562 59.925781 99.539062 C 60.273438 99.226562 61.132812 98.296875 61.304688 97.992188 L 62.800781 99.378906 " fill-opacity="1" fill-rule="nonzero"/><path fill="#171b31" d="M 62.574219 102.226562 C 62.574219 102.226562 63.554688 104.785156 63.21875 105.632812 C 63.21875 105.632812 62.910156 106.296875 62.027344 105.789062 C 60.710938 105.027344 59.574219 103.273438 59.335938 102.46875 C 59.335938 102.46875 59.136719 102.074219 59.023438 101.964844 C 58.90625 101.851562 58.304688 101.207031 58.371094 100.933594 C 58.371094 100.933594 59.050781 99.9375 59.925781 99.539062 C 59.925781 99.539062 60.277344 100.625 61.132812 101.222656 C 61.132812 101.222656 61.019531 100.699219 61.273438 100.746094 L 62.324219 101.097656 C 62.324219 101.097656 62.792969 101.035156 62.574219 102.226562 " fill-opacity="1" fill-rule="nonzero"/><path fill="#ef2a81" d="M 66.300781 31.949219 C 66.300781 31.949219 64.59375 32.925781 64.867188 35.828125 C 65.140625 38.734375 64.023438 40.382812 63.242188 40.652344 C 62.460938 40.925781 59.414062 41.367188 60.230469 43.929688 C 60.765625 45.609375 61.078125 47.3125 60.105469 47.722656 C 59.132812 48.136719 55.765625 51.242188 57.644531 54.121094 C 59.523438 57.003906 68.386719 57.707031 70.535156 55.199219 C 72.6875 52.6875 66.300781 31.949219 66.300781 31.949219 " fill-opacity="1" fill-rule="nonzero"/><path fill="#ffffff" d="M 72.019531 106.015625 C 72.019531 106.015625 71.84375 107.0625 72.785156 107.863281 C 74.417969 109.253906 74.351562 109.710938 74.351562 109.886719 C 74.351562 110.0625 71.785156 109.707031 70.519531 109.152344 C 69.40625 108.667969 69.648438 108.246094 69.753906 107.792969 C 69.859375 107.339844 70.03125 106.082031 69.996094 105.734375 L 72.019531 106.015625 " fill-opacity="1" fill-rule="nonzero"/><path fill="#171b31" d="M 73.949219 64.894531 L 74.921875 80.851562 C 74.921875 80.851562 63.578125 99.035156 62.894531 100.257812 C 62.894531 100.257812 61.414062 100.234375 60.828125 98.199219 L 67.992188 78.753906 L 66.261719 64.496094 L 73.949219 64.894531 " fill-opacity="1" fill-rule="nonzero"/><path fill="#282b4c" d="M 63.792969 63.621094 C 63.792969 63.621094 62.347656 66.21875 64.144531 71.414062 C 64.929688 73.695312 67.851562 82.484375 67.851562 82.484375 C 67.851562 82.484375 68.183594 85.101562 68.183594 86.695312 C 68.183594 88.289062 69.316406 106.160156 69.316406 106.160156 C 69.316406 106.160156 70.628906 106.84375 72.824219 105.953125 C 72.824219 105.953125 74.117188 83.863281 74.117188 81.992188 C 74.117188 79.3125 71.449219 62.769531 71.449219 62.769531 L 63.792969 63.621094 " fill-opacity="1" fill-rule="nonzero"/><g clip-path="url(#450a7d456e)"><path fill="#171b31" d="M 73.460938 108.476562 C 73.460938 108.476562 75.730469 110.011719 75.9375 110.902344 C 75.9375 110.902344 76.066406 111.625 75.050781 111.710938 C 73.535156 111.84375 71.601562 111.058594 70.949219 110.535156 C 70.949219 110.535156 70.554688 110.324219 70.398438 110.300781 C 70.242188 110.273438 69.378906 110.089844 69.273438 109.828125 C 69.273438 109.828125 69.265625 108.621094 69.753906 107.792969 C 69.753906 107.792969 70.660156 108.484375 71.703125 108.484375 C 71.703125 108.484375 71.3125 108.117188 71.546875 108.011719 L 72.609375 107.699219 C 72.609375 107.699219 72.960938 107.375 73.460938 108.476562 " fill-opacity="1" fill-rule="nonzero"/></g><path fill="#f89b87" d="M 62.347656 55.265625 C 62.347656 55.265625 61.660156 59.65625 60.90625 60.320312 C 59.070312 61.933594 59.445312 57.511719 59.445312 57.511719 L 60.429688 50.597656 L 62.347656 55.265625 " fill-opacity="1" fill-rule="nonzero"/><path fill="#e4846c" d="M 72.953125 43.429688 C 72.1875 43.117188 71.496094 42.777344 71.484375 42.574219 C 71.484375 42.574219 71.21875 39.875 71.0625 38.3125 C 71.015625 37.84375 68.195312 36.25 68.195312 36.25 C 68.195312 36.25 68.097656 40.984375 67.367188 42.613281 C 67.367188 42.613281 66.527344 42.878906 65.257812 43.300781 L 65.257812 47.722656 L 72.953125 47.722656 L 72.953125 43.429688 " fill-opacity="1" fill-rule="nonzero"/><path fill="#d26758" d="M 68.167969 37.019531 C 68.140625 37.582031 68.097656 38.390625 68.015625 39.234375 C 68.644531 40.515625 70.289062 43.53125 71.523438 42.660156 C 71.5 42.628906 71.484375 42.601562 71.484375 42.574219 C 71.484375 42.574219 71.304688 40.753906 71.15625 39.242188 L 68.402344 36.941406 L 68.167969 37.019531 " fill-opacity="1" fill-rule="nonzero"/><path fill="#cbdaf2" d="M 74.230469 63.984375 C 74.230469 63.984375 74.40625 64.769531 73.949219 64.894531 C 66.367188 66.976562 63.324219 64.101562 63.324219 64.101562 C 63.269531 63.742188 64.585938 59.015625 64.585938 59.015625 C 64.425781 57.070312 64.429688 54.613281 62.9375 51.378906 C 61.988281 49.328125 61.859375 45.738281 61.859375 45.738281 C 61.726562 43.71875 67.367188 42.613281 67.367188 42.613281 C 69.207031 45.738281 70.65625 45.90625 70.65625 45.90625 C 72.179688 43.402344 71.546875 42.6875 71.546875 42.6875 C 72.46875 42.613281 73.25 42.464844 73.585938 42.816406 C 74.34375 43.613281 76.414062 49.386719 76.414062 49.386719 C 76.414062 49.386719 77.742188 51.808594 75.296875 53.695312 C 75.296875 53.695312 75.019531 55.800781 74.269531 58.195312 C 73.738281 59.898438 74.230469 63.984375 74.230469 63.984375 " fill-opacity="1" fill-rule="nonzero"/><path fill="#ffffff" d="M 74.195312 59.746094 L 66.878906 60.996094 L 66.878906 51.847656 L 74.195312 50.597656 L 74.195312 59.746094 " fill-opacity="1" fill-rule="nonzero"/><path fill="#ef2a81" d="M 67.4375 61.917969 L 75.128906 60.917969 L 75.128906 51.847656 L 67.4375 52.945312 L 67.4375 61.917969 " fill-opacity="1" fill-rule="nonzero"/><path fill="#f89b87" d="M 72.445312 41.238281 C 72.445312 41.238281 72.210938 41.425781 71.667969 41.351562 C 71.210938 41.289062 68.738281 40.054688 68.089844 38.277344 C 68.089844 38.277344 67.417969 38.460938 67.046875 37.636719 C 66.667969 36.808594 66.914062 35.574219 67.894531 36.28125 C 67.894531 36.28125 67.257812 32.539062 68.886719 32.136719 C 70.515625 31.738281 73.613281 30.839844 74.039062 33.5 C 74.039062 33.5 74.34375 35.886719 74.101562 37.953125 C 74.101562 37.953125 73.816406 39.816406 72.445312 41.238281 " fill-opacity="1" fill-rule="nonzero"/><path fill="#ef2a81" d="M 74.066406 33.734375 C 74.199219 33.128906 74.011719 32.121094 73.421875 31.449219 C 72.203125 30.058594 68.179688 28.773438 66.300781 31.949219 C 64.929688 34.265625 66.101562 37.71875 67.140625 38.5625 C 67.855469 39.144531 67.546875 39.6875 67.539062 40.152344 C 67.535156 40.457031 67.78125 40.445312 67.875 40.417969 C 67.949219 39.878906 68.171875 38.949219 68.136719 38.390625 C 68.121094 38.355469 68.105469 38.316406 68.089844 38.277344 C 68.089844 38.277344 67.417969 38.460938 67.046875 37.636719 C 66.675781 36.824219 66.910156 35.613281 67.851562 36.25 C 67.9375 36.351562 68.035156 36.445312 68.117188 36.484375 C 68.316406 36.582031 71.058594 34.882812 72.617188 32.179688 C 72.617188 32.179688 73.496094 32.609375 74.066406 33.734375 " fill-opacity="1" fill-rule="nonzero"/><path fill="#cbdaf2" d="M 62.070312 57.679688 L 62.042969 57.644531 L 64.484375 51.46875 C 64.484375 51.46875 64.832031 46.097656 62.359375 44.660156 C 62.359375 44.660156 60.726562 45.351562 59.125 57.734375 L 62.070312 57.679688 " fill-opacity="1" fill-rule="nonzero"/><path fill="#f89b87" d="M 79.125 46.390625 L 82.984375 47.933594 C 82.984375 47.933594 83.730469 49.390625 82.761719 50.222656 L 79.011719 49 L 79.125 46.390625 " fill-opacity="1" fill-rule="nonzero"/><path fill="#cbdaf2" d="M 73.277344 42.59375 L 81.714844 47.3125 C 81.714844 47.3125 82.066406 48.332031 80.546875 49.59375 L 72.503906 48.128906 L 73.277344 42.59375 " fill-opacity="1" fill-rule="nonzero"/><path fill="#f89b87" d="M 96.230469 39.875 C 95.996094 39.503906 93.339844 39.019531 92.875 39.105469 C 92.40625 39.1875 91.574219 39.972656 91.574219 39.972656 L 91.578125 39.988281 C 89.78125 41.5 82.25 48.214844 82.25 48.214844 C 82.25 48.214844 81.191406 50.222656 83.257812 50.308594 C 85.054688 50.386719 90.53125 42.871094 91.925781 40.914062 C 92.582031 41.140625 93.144531 40.566406 93.144531 40.566406 C 95.289062 41.0625 96.464844 40.246094 96.230469 39.875 " fill-opacity="1" fill-rule="nonzero"/><path fill="#f89b87" d="M 75.402344 57.152344 C 75.167969 56.882812 75.101562 57.09375 74.90625 57.25 C 74.710938 57.40625 73.359375 57.40625 73.359375 57.40625 C 73.359375 57.40625 74.167969 56.96875 74.074219 56.800781 C 73.980469 56.636719 73.066406 56.886719 72.863281 56.933594 C 72.664062 56.972656 71.332031 57.332031 71.117188 57.445312 C 69.8125 57.546875 62.480469 58.132812 60.730469 58.710938 C 59.191406 59.222656 59.308594 60.953125 60.847656 61.015625 C 60.847656 61.015625 66.097656 59.8125 71.199219 58.351562 C 71.199219 58.351562 72.789062 59.085938 73.300781 59.082031 C 73.8125 59.078125 75.210938 58.457031 75.28125 58.246094 C 75.347656 58.03125 75.636719 57.421875 75.402344 57.152344 " fill-opacity="1" fill-rule="nonzero"/><path fill="#f89b87" d="M 50.691406 45.191406 C 50.691406 45.191406 50.734375 38.753906 51.304688 38.625 C 51.304688 38.625 51.507812 38.550781 51.488281 39.066406 C 51.472656 39.582031 51.484375 41.257812 51.558594 41.441406 C 51.558594 41.441406 51.847656 41.40625 52.125 41.3125 C 52.402344 41.222656 52.75 41.257812 52.898438 41.460938 C 53.042969 41.664062 53.558594 42.472656 53.558594 42.472656 C 53.558594 42.472656 53.59375 42.566406 53.558594 42.710938 C 53.523438 42.859375 53.082031 43.386719 53.082031 43.386719 C 53.082031 43.386719 52.851562 43.78125 52.5625 43.890625 C 52.273438 44 52.015625 44.441406 52.015625 44.957031 L 50.691406 45.191406 " fill-opacity="1" fill-rule="nonzero"/><g clip-path="url(#85a91d72a5)"><path fill="#283a7a" d="M 26.191406 111.726562 C 26.191406 111.726562 26.429688 111.640625 26.414062 111.441406 C 26.402344 111.242188 25.664062 109.480469 25.664062 109.480469 L 23.632812 106.851562 C 23.632812 106.851562 22.984375 106.851562 22.414062 109.996094 L 22.574219 110.070312 L 23.257812 108.820312 C 23.257812 108.820312 23.367188 110.804688 26.191406 111.726562 " fill-opacity="1" fill-rule="nonzero"/></g><path fill="#f89b87" d="M 30.5 85.726562 C 27.867188 88.113281 26.203125 97.222656 24.429688 103.347656 C 23.832031 105.417969 23.515625 106.980469 23.515625 106.980469 C 23.675781 108.96875 24.648438 107.191406 24.648438 107.191406 C 27.582031 101.308594 33.84375 86.574219 33.84375 86.574219 C 33.84375 86.574219 34.492188 85.535156 34.695312 83.386719 C 34.859375 81.613281 30.851562 78.367188 30.851562 78.367188 L 30.5 85.726562 " fill-opacity="1" fill-rule="nonzero"/><path fill="#f89b87" d="M 24.765625 106.953125 C 24.765625 106.953125 25.664062 109.480469 25.796875 109.964844 C 25.886719 110.277344 23.804688 109.25 23.515625 106.980469 C 23.515625 106.980469 24.566406 105.871094 24.765625 106.953125 " fill-opacity="1" fill-rule="nonzero"/><g clip-path="url(#0ef6c94589)"><path fill="#283a7a" d="M 50.296875 111.332031 C 50.296875 111.332031 50.460938 111.140625 50.347656 110.972656 C 50.238281 110.804688 48.71875 109.652344 48.71875 109.652344 L 45.648438 108.394531 C 45.648438 108.394531 45.085938 108.71875 46.164062 111.726562 L 46.339844 111.710938 L 46.304688 110.285156 C 46.304688 110.285156 47.390625 111.949219 50.296875 111.332031 " fill-opacity="1" fill-rule="nonzero"/></g><path fill="#f89b87" d="M 44.355469 85.71875 C 44.355469 85.71875 46.292969 101.613281 46.695312 108.179688 C 46.695312 108.179688 46.742188 110.203125 45.609375 108.566406 C 45.609375 108.566406 45.101562 107.054688 44.585938 104.957031 C 43.058594 98.769531 39.949219 90.046875 41.035156 86.664062 L 44.355469 85.71875 " fill-opacity="1" fill-rule="nonzero"/><path fill="#f89b87" d="M 46.675781 107.914062 C 46.675781 107.914062 48.71875 109.652344 49.078125 110.003906 C 49.308594 110.230469 46.988281 110.382812 45.609375 108.566406 C 45.609375 108.566406 45.964844 107.074219 46.675781 107.914062 " fill-opacity="1" fill-rule="nonzero"/><path fill="#283a7a" d="M 32.742188 67.558594 C 32.742188 67.558594 26.199219 90.535156 27.886719 90.550781 C 33.382812 90.597656 33.863281 89.808594 38.589844 88.285156 C 41.121094 87.46875 43.277344 90.433594 45.054688 89.394531 C 45.054688 89.394531 45.105469 74.953125 43.394531 67.558594 L 32.742188 67.558594 " fill-opacity="1" fill-rule="nonzero"/><path fill="#0e111d" d="M 43.5625 33.140625 C 43.5625 33.140625 44.25 37.070312 44.703125 38.238281 C 45.679688 40.761719 44.652344 43.714844 43.253906 44.730469 C 42.054688 45.601562 39.503906 45.132812 37.03125 44.242188 C 37.03125 44.242188 41.359375 33.691406 43.5625 33.140625 " fill-opacity="1" fill-rule="nonzero"/><path fill="#f89b87" d="M 48.382812 51.058594 C 48.382812 51.058594 47.105469 52.421875 46.902344 53.960938 C 46.902344 53.960938 50.773438 58.300781 52.292969 58.851562 C 53.808594 59.402344 54.058594 58.027344 53.246094 56.808594 C 52.4375 55.589844 48.382812 51.058594 48.382812 51.058594 " fill-opacity="1" fill-rule="nonzero"/><path fill="#283a7a" d="M 43.183594 44.191406 C 43.183594 44.191406 43.910156 44.308594 44.734375 45.355469 C 45.554688 46.402344 52.425781 56.246094 52.425781 56.246094 C 52.425781 56.246094 52.507812 57.851562 51.109375 58.714844 L 43.753906 51.28125 C 43.753906 51.28125 42.621094 45.5625 43.183594 44.191406 " fill-opacity="1" fill-rule="nonzero"/><path fill="#f89b87" d="M 29.171875 56.25 C 29.171875 56.25 26.976562 60.476562 26.546875 60.601562 C 24.289062 61.253906 25.417969 57.90625 25.417969 57.90625 L 28.261719 51.03125 L 29.171875 56.25 " fill-opacity="1" fill-rule="nonzero"/><path fill="#e4846c" d="M 42.40625 44.320312 C 41.605469 43.996094 40.878906 43.640625 40.867188 43.421875 C 40.867188 43.421875 40.585938 40.589844 40.421875 38.953125 C 40.375 38.457031 37.410156 36.789062 37.410156 36.789062 C 37.410156 36.789062 37.3125 41.757812 36.542969 43.464844 C 36.542969 43.464844 35.664062 43.742188 34.328125 44.1875 L 34.328125 48.832031 L 42.40625 48.832031 L 42.40625 44.320312 " fill-opacity="1" fill-rule="nonzero"/><path fill="#d26758" d="M 37.382812 37.59375 C 37.359375 38.183594 37.3125 39.03125 37.226562 39.917969 C 37.882812 41.265625 39.613281 44.429688 40.90625 43.511719 C 40.882812 43.480469 40.867188 43.449219 40.867188 43.421875 C 40.867188 43.421875 40.679688 41.515625 40.519531 39.925781 L 37.628906 37.507812 L 37.382812 37.59375 " fill-opacity="1" fill-rule="nonzero"/><path fill="#c02e35" d="M 43.324219 66.601562 C 43.324219 66.601562 43.507812 67.425781 43.027344 67.558594 C 35.066406 69.742188 32.300781 66.910156 32.300781 66.910156 C 32.242188 66.53125 33.625 60.683594 33.625 60.683594 C 33.453125 58.644531 33.460938 56.0625 31.894531 52.671875 C 30.898438 50.515625 30.761719 46.746094 30.761719 46.746094 C 30.621094 44.625 36.542969 43.464844 36.542969 43.464844 C 38.164062 46.804688 39.996094 46.925781 39.996094 46.925781 C 42.234375 46.585938 40.933594 43.546875 40.933594 43.546875 C 42.40625 43.8125 43.214844 44.101562 43.5625 44.464844 C 44.359375 45.304688 44.796875 51.03125 44.796875 51.03125 C 44.796875 51.03125 46.105469 51.910156 43.714844 54.371094 C 43.714844 54.371094 43.8125 56.714844 43.027344 59.230469 C 42.472656 61.019531 43.324219 66.601562 43.324219 66.601562 " fill-opacity="1" fill-rule="nonzero"/><path fill="#283a7a" d="M 36.542969 43.464844 C 36.542969 43.464844 30.621094 44.625 30.761719 46.746094 C 30.761719 46.746094 30.898438 50.515625 31.894531 52.671875 C 33.460938 56.0625 33.453125 58.644531 33.625 60.683594 C 33.625 60.683594 31.5 68.070312 31.558594 68.449219 C 31.558594 68.449219 32.148438 69.382812 36.03125 69.410156 C 36.03125 69.410156 39.195312 55.859375 38.503906 48.832031 L 36.542969 43.464844 " fill-opacity="1" fill-rule="nonzero"/><path fill="#283a7a" d="M 40.933594 43.546875 C 42.40625 43.8125 43.214844 44.101562 43.5625 44.464844 C 44.359375 45.304688 46.042969 50.578125 46.042969 50.578125 C 46.042969 50.578125 47.261719 52.640625 44.871094 55.101562 C 44.871094 55.101562 44.578125 57.3125 43.792969 59.824219 C 43.234375 61.613281 44.210938 67.800781 44.210938 67.800781 C 44.210938 67.800781 44.394531 68.625 43.914062 68.753906 C 42.816406 69.054688 41.789062 69.269531 40.828125 69.410156 C 40.828125 69.410156 43.027344 53.257812 42.40625 49.675781 C 41.820312 46.28125 40.933594 43.546875 40.933594 43.546875 " fill-opacity="1" fill-rule="nonzero"/><path fill="#f89b87" d="M 41.878906 42.019531 C 41.878906 42.019531 41.628906 42.21875 41.058594 42.140625 C 40.578125 42.078125 37.984375 40.777344 37.304688 38.914062 C 37.304688 38.914062 36.597656 39.109375 36.207031 38.242188 C 35.8125 37.375 36.070312 36.078125 37.097656 36.816406 C 37.097656 36.816406 36.429688 32.890625 38.140625 32.46875 C 39.847656 32.046875 43.105469 31.105469 43.550781 33.898438 C 43.550781 33.898438 43.871094 36.40625 43.617188 38.574219 C 43.617188 38.574219 43.316406 40.53125 41.878906 42.019531 " fill-opacity="1" fill-rule="nonzero"/><path fill="#0e111d" d="M 43.578125 34.144531 C 43.71875 33.507812 43.519531 32.449219 42.902344 31.746094 C 41.621094 30.285156 37.398438 28.933594 35.425781 32.269531 C 33.984375 34.703125 35.214844 38.324219 36.308594 39.214844 C 37.058594 39.824219 36.734375 40.398438 36.726562 40.882812 C 36.71875 41.199219 36.980469 41.1875 37.078125 41.160156 C 37.15625 40.59375 37.386719 39.617188 37.351562 39.035156 C 37.335938 38.992188 37.320312 38.953125 37.304688 38.914062 C 37.304688 38.914062 36.597656 39.109375 36.207031 38.242188 C 35.816406 37.386719 36.0625 36.117188 37.050781 36.785156 C 37.144531 36.890625 37.246094 36.992188 37.332031 37.03125 C 37.539062 37.132812 40.421875 35.347656 42.054688 32.515625 C 42.054688 32.515625 42.980469 32.960938 43.578125 34.144531 " fill-opacity="1" fill-rule="nonzero"/><path fill="#0e111d" d="M 38.367188 36.117188 C 38.367188 36.117188 39.660156 46.253906 34.328125 44.054688 L 32.300781 44.898438 C 32.300781 44.898438 32.910156 43.621094 34.125 42.585938 C 35.339844 41.550781 35.546875 38.332031 34.878906 36.117188 L 38.367188 36.117188 " fill-opacity="1" fill-rule="nonzero"/><path fill="#f89b87" d="M 25.144531 60.054688 C 25.144531 60.054688 29.3125 66.898438 32.546875 71.445312 L 33.496094 71.242188 C 33.496094 71.242188 28.914062 60.324219 27.609375 58.644531 C 26.566406 57.296875 24.664062 58.507812 25.144531 60.054688 " fill-opacity="1" fill-rule="nonzero"/><path fill="#f89b87" d="M 33.191406 70.523438 C 33.191406 70.523438 34.816406 71.5 34.90625 71.753906 C 34.992188 72.011719 34.800781 72.109375 34.800781 72.109375 C 34.800781 72.109375 34.648438 72.074219 34.476562 72.167969 C 34.476562 72.167969 34.996094 73.179688 34.683594 73.40625 C 34.367188 73.632812 34.304688 73.625 34.140625 73.652344 C 33.980469 73.683594 33.101562 74.011719 32.980469 73.824219 C 32.863281 73.636719 32.0625 72.113281 32.320312 71.128906 L 33.191406 70.523438 " fill-opacity="1" fill-rule="nonzero"/><path fill="#283a7a" d="M 25.132812 57.90625 C 30.085938 45.769531 31.585938 45.355469 31.585938 45.355469 C 33.707031 47.480469 32.257812 52.988281 32.257812 52.988281 L 28.121094 58.597656 L 28.140625 58.644531 L 32.742188 68.84375 C 32.742188 68.84375 32.765625 70 31.078125 70.121094 C 31.078125 70.121094 25.128906 60.648438 24.867188 59.910156 C 24.539062 58.976562 25.132812 57.90625 25.132812 57.90625 " fill-opacity="1" fill-rule="nonzero"/><path fill="#283a7a" d="M 50.617188 44.898438 C 50.617188 44.898438 50.246094 58.097656 51.109375 58.714844 C 51.972656 59.332031 53.992188 59.867188 53.703125 57.3125 C 53.410156 54.761719 52.132812 44.898438 52.132812 44.898438 C 52.132812 44.898438 51.398438 44.753906 50.617188 44.898438 " fill-opacity="1" fill-rule="nonzero"/><path fill="#8fdbef" d="M 116.40625 14.683594 C 116.40625 7.742188 108.277344 2.117188 98.253906 2.117188 C 88.230469 2.117188 80.105469 7.742188 80.105469 14.683594 C 80.105469 21.152344 87.164062 26.476562 96.234375 27.171875 C 97.4375 28.847656 99.59375 30.933594 103.453125 32.742188 C 103.453125 32.742188 102.179688 29.917969 101.359375 27.066406 C 109.90625 26.046875 116.40625 20.890625 116.40625 14.683594 " fill-opacity="1" fill-rule="nonzero"/><path fill="#f36369" d="M 74.851562 17.160156 C 74.851562 12.121094 68.953125 8.039062 61.675781 8.039062 C 54.402344 8.039062 48.503906 12.121094 48.503906 17.160156 C 48.503906 21.855469 53.625 25.722656 60.210938 26.226562 C 61.082031 27.441406 62.648438 28.957031 65.449219 30.269531 C 65.449219 30.269531 64.527344 28.21875 63.933594 26.148438 C 70.132812 25.40625 74.851562 21.667969 74.851562 17.160156 " fill-opacity="1" fill-rule="nonzero"/><path fill="#f79388" d="M 46.902344 12.058594 C 46.902344 6.140625 39.972656 1.339844 31.421875 1.339844 C 22.871094 1.339844 15.9375 6.140625 15.9375 12.058594 C 15.9375 17.578125 21.957031 22.121094 29.699219 22.714844 C 30.722656 24.144531 32.5625 25.921875 35.855469 27.464844 C 35.855469 27.464844 34.769531 25.054688 34.070312 22.621094 C 41.359375 21.753906 46.902344 17.355469 46.902344 12.058594 " fill-opacity="1" fill-rule="nonzero"/><path fill="#ffffff" d="M 94.589844 14.402344 C 94.589844 15.015625 94.09375 15.511719 93.484375 15.511719 C 92.871094 15.511719 92.375 15.015625 92.375 14.402344 C 92.375 13.789062 92.871094 13.292969 93.484375 13.292969 C 94.09375 13.292969 94.589844 13.789062 94.589844 14.402344 " fill-opacity="1" fill-rule="nonzero"/><path fill="#ffffff" d="M 99.363281 14.402344 C 99.363281 15.015625 98.867188 15.511719 98.253906 15.511719 C 97.644531 15.511719 97.148438 15.015625 97.148438 14.402344 C 97.148438 13.789062 97.644531 13.292969 98.253906 13.292969 C 98.867188 13.292969 99.363281 13.789062 99.363281 14.402344 " fill-opacity="1" fill-rule="nonzero"/><path fill="#ffffff" d="M 104.136719 14.402344 C 104.136719 15.015625 103.636719 15.511719 103.027344 15.511719 C 102.414062 15.511719 101.917969 15.015625 101.917969 14.402344 C 101.917969 13.789062 102.414062 13.292969 103.027344 13.292969 C 103.636719 13.292969 104.136719 13.789062 104.136719 14.402344 " fill-opacity="1" fill-rule="nonzero"/><path fill="#ffffff" d="M 63.316406 17.101562 C 63.316406 18.1875 62.433594 19.074219 61.351562 19.074219 C 60.265625 19.074219 59.382812 18.1875 59.382812 17.101562 C 59.382812 16.015625 60.265625 15.132812 61.351562 15.132812 C 62.433594 15.132812 63.316406 16.015625 63.316406 17.101562 Z M 67.519531 18.398438 L 67.519531 15.804688 L 65.605469 15.804688 C 65.519531 15.527344 65.410156 15.261719 65.273438 15.007812 L 66.625 13.652344 L 64.796875 11.820312 L 63.441406 13.175781 C 63.191406 13.039062 62.921875 12.925781 62.644531 12.839844 L 62.644531 10.925781 L 60.054688 10.925781 L 60.054688 12.839844 C 59.777344 12.925781 59.511719 13.039062 59.257812 13.175781 L 57.90625 11.820312 L 56.074219 13.652344 L 57.425781 15.007812 C 57.292969 15.261719 57.179688 15.527344 57.09375 15.804688 L 55.183594 15.804688 L 55.183594 18.398438 L 57.09375 18.398438 C 57.179688 18.679688 57.292969 18.945312 57.425781 19.199219 L 56.074219 20.554688 L 57.90625 22.386719 L 59.257812 21.03125 C 59.511719 21.164062 59.777344 21.277344 60.054688 21.363281 L 60.054688 23.277344 L 62.644531 23.277344 L 62.644531 21.363281 C 62.921875 21.277344 63.191406 21.164062 63.441406 21.03125 L 64.796875 22.386719 L 66.625 20.554688 L 65.273438 19.199219 C 65.410156 18.945312 65.519531 18.679688 65.605469 18.398438 L 67.519531 18.398438 " fill-opacity="1" fill-rule="nonzero"/><path fill="#283a7a" d="M 31.421875 9.027344 C 30.53125 9.027344 29.808594 8.304688 29.808594 7.414062 C 29.808594 6.523438 30.53125 5.800781 31.421875 5.800781 C 32.308594 5.800781 33.03125 6.523438 33.03125 7.414062 C 33.03125 8.304688 32.308594 9.027344 31.421875 9.027344 Z M 31.421875 4.726562 C 28.6875 4.726562 26.476562 6.945312 26.476562 9.679688 C 26.476562 9.867188 26.488281 10.054688 26.507812 10.238281 C 26.9375 14.839844 31.421875 19.15625 31.421875 19.15625 C 31.421875 19.15625 35.90625 14.839844 36.335938 10.238281 C 36.355469 10.054688 36.367188 9.867188 36.367188 9.679688 C 36.367188 6.945312 34.152344 4.726562 31.421875 4.726562 " fill-opacity="1" fill-rule="nonzero"/></svg>