<svg xmlns="http://www.w3.org/2000/svg" xmlns:xlink="http://www.w3.org/1999/xlink" width="624" zoomAndPan="magnify" viewBox="0 0 468 341.249999" height="455" preserveAspectRatio="xMidYMid meet" version="1.0"><defs><filter x="0%" y="0%" width="100%" height="100%" id="02563ed641"><feColorMatrix values="0 0 0 0 1 0 0 0 0 1 0 0 0 0 1 0 0 0 1 0" color-interpolation-filters="sRGB"/></filter><clipPath id="2201f18ef2"><path d="M 306 272 L 410.238281 272 L 410.238281 340.5 L 306 340.5 Z M 306 272 " clip-rule="nonzero"/></clipPath><clipPath id="00fa90b3f4"><path d="M 198 221 L 380 221 L 380 340.5 L 198 340.5 Z M 198 221 " clip-rule="nonzero"/></clipPath><clipPath id="d33bbfcb8f"><path d="M 63 177 L 327 177 L 327 340.5 L 63 340.5 Z M 63 177 " clip-rule="nonzero"/></clipPath><clipPath id="34864d8c93"><path d="M 34.5625 221 L 216 221 L 216 340.5 L 34.5625 340.5 Z M 34.5625 221 " clip-rule="nonzero"/></clipPath><mask id="82d36c2c9d"><g filter="url(#02563ed641)"><rect x="-46.8" width="561.6" fill="#000000" y="-34.125" height="409.499998" fill-opacity="0.2"/></g></mask><clipPath id="229a24cc2b"><rect x="0" width="29" y="0" height="64"/></clipPath><mask id="0b22ca5c13"><g filter="url(#02563ed641)"><rect x="-46.8" width="561.6" fill="#000000" y="-34.125" height="409.499998" fill-opacity="0.2"/></g></mask><clipPath id="1ce87a93a0"><rect x="0" width="9" y="0" height="6"/></clipPath><mask id="b0276c3f30"><g filter="url(#02563ed641)"><rect x="-46.8" width="561.6" fill="#000000" y="-34.125" height="409.499998" fill-opacity="0.2"/></g></mask><clipPath id="4228515ce6"><rect x="0" width="34" y="0" height="11"/></clipPath><mask id="3c9dbe069b"><g filter="url(#02563ed641)"><rect x="-46.8" width="561.6" fill="#000000" y="-34.125" height="409.499998" fill-opacity="0.2"/></g></mask><clipPath id="f74de52509"><rect x="0" width="7" y="0" height="17"/></clipPath><mask id="4d569531b9"><g filter="url(#02563ed641)"><rect x="-46.8" width="561.6" fill="#000000" y="-34.125" height="409.499998" fill-opacity="0.2"/></g></mask><clipPath id="774137711e"><path d="M 2 0.328125 L 3.640625 0.328125 L 3.640625 12 L 2 12 Z M 2 0.328125 " clip-rule="nonzero"/></clipPath><clipPath id="7c1754af5c"><rect x="0" width="4" y="0" height="14"/></clipPath></defs><path fill="#e4e8ff" d="M 86.882812 216.882812 C 87.542969 214.011719 90.113281 211.867188 93.1875 211.867188 C 93.75 211.867188 94.296875 211.941406 94.816406 212.074219 C 96.335938 208.832031 99.625 206.585938 103.441406 206.585938 C 104.429688 206.585938 105.378906 206.734375 106.277344 207.015625 C 108.332031 203.613281 112.0625 201.339844 116.324219 201.339844 C 121.398438 201.339844 125.722656 204.558594 127.359375 209.066406 C 128.519531 208.421875 129.851562 208.050781 131.273438 208.050781 C 135.722656 208.050781 139.324219 211.65625 139.324219 216.105469 C 139.324219 216.367188 139.3125 216.628906 139.289062 216.886719 L 86.882812 216.886719 Z M 86.882812 216.882812 " fill-opacity="1" fill-rule="nonzero"/><path fill="#e4e8ff" d="M 342.066406 168.050781 C 342.65625 165.492188 344.941406 163.585938 347.679688 163.585938 C 348.183594 163.585938 348.667969 163.652344 349.132812 163.769531 C 350.480469 160.882812 353.410156 158.882812 356.808594 158.882812 C 357.6875 158.882812 358.535156 159.015625 359.332031 159.265625 C 361.160156 156.234375 364.484375 154.210938 368.28125 154.210938 C 372.800781 154.210938 376.648438 157.078125 378.105469 161.089844 C 379.136719 160.515625 380.324219 160.1875 381.589844 160.1875 C 385.550781 160.1875 388.757812 163.394531 388.757812 167.355469 C 388.757812 167.589844 388.746094 167.824219 388.726562 168.050781 Z M 342.066406 168.050781 " fill-opacity="1" fill-rule="nonzero"/><path fill="#e4e8ff" d="M 119.117188 152.347656 C 120.125 147.976562 124.035156 144.71875 128.707031 144.71875 C 129.5625 144.71875 130.394531 144.828125 131.191406 145.035156 C 133.5 140.101562 138.503906 136.683594 144.3125 136.683594 C 145.8125 136.683594 147.257812 136.910156 148.621094 137.335938 C 151.746094 132.160156 157.421875 128.699219 163.910156 128.699219 C 171.628906 128.699219 178.203125 133.597656 180.695312 140.457031 C 182.457031 139.472656 184.484375 138.910156 186.648438 138.910156 C 193.414062 138.910156 198.898438 144.394531 198.898438 151.160156 C 198.898438 151.5625 198.878906 151.957031 198.839844 152.347656 Z M 119.117188 152.347656 " fill-opacity="1" fill-rule="nonzero"/><path fill="#e4e8ff" d="M 311.269531 43.886719 C 311.800781 41.574219 313.871094 39.851562 316.34375 39.851562 C 316.800781 39.851562 317.238281 39.90625 317.660156 40.019531 C 318.878906 37.40625 321.53125 35.597656 324.605469 35.597656 C 325.398438 35.597656 326.164062 35.71875 326.882812 35.941406 C 328.539062 33.203125 331.542969 31.371094 334.976562 31.371094 C 339.0625 31.371094 342.542969 33.964844 343.859375 37.59375 C 344.792969 37.074219 345.867188 36.777344 347.011719 36.777344 C 350.59375 36.777344 353.496094 39.679688 353.496094 43.261719 C 353.496094 43.472656 353.484375 43.683594 353.464844 43.890625 L 311.269531 43.890625 Z M 311.269531 43.886719 " fill-opacity="1" fill-rule="nonzero"/><path fill="#193564" d="M 227.917969 93.816406 C 227.957031 94.351562 228.042969 94.789062 228.132812 95.207031 C 227.546875 95.386719 226.980469 96.011719 226.980469 96.65625 L 226.890625 98.179688 L 225.578125 98.179688 L 225.578125 96.65625 C 225.578125 95.300781 226.640625 94.09375 227.917969 93.816406 Z M 227.917969 93.816406 " fill-opacity="1" fill-rule="nonzero"/><path fill="#193564" d="M 237.050781 94.21875 C 237.050781 94.21875 237.140625 94.082031 237.257812 93.867188 C 238.617188 94.074219 239.742188 95.242188 239.742188 96.65625 L 239.742188 98.179688 L 238.347656 98.179688 L 238.339844 96.65625 C 238.339844 95.929688 237.722656 95.335938 237.019531 95.242188 C 237.050781 94.679688 237.050781 94.21875 237.050781 94.21875 Z M 237.050781 94.21875 " fill-opacity="1" fill-rule="nonzero"/><path fill="#f2adab" d="M 281.566406 11.359375 C 280.609375 10.566406 280.5625 7.78125 280.5625 7.78125 L 274.855469 6.703125 L 266.875 11.761719 C 266.875 11.761719 268.855469 15.15625 269.238281 18.027344 C 269.238281 18.027344 268.949219 19.941406 267.785156 21.496094 L 274.0625 27.441406 L 276.824219 25.667969 L 276.960938 21.886719 L 276.835938 21.199219 C 277.898438 21.332031 279.050781 21.316406 279.769531 20.796875 C 281.375 19.644531 282.226562 16.882812 281.613281 14.976562 C 281.613281 14.976562 280.953125 14.101562 282.367188 13.867188 C 283.78125 13.640625 282.523438 12.15625 281.566406 11.359375 Z M 281.566406 11.359375 " fill-opacity="1" fill-rule="nonzero"/><path fill="#f2adab" d="M 233.515625 86.652344 C 233.613281 88.476562 236.71875 90.164062 237.480469 91.402344 C 238.238281 92.640625 237.132812 94.214844 237.132812 94.214844 C 237.132812 94.214844 237.144531 95.820312 236.902344 96.6875 C 236.660156 97.554688 235.699219 97.644531 234.746094 96.832031 C 233.792969 96.019531 233.378906 97.40625 232.144531 97.171875 C 230.910156 96.933594 230.6875 96.265625 229.128906 96.421875 C 226.402344 96.699219 228.707031 86.199219 228.707031 86.199219 Z M 233.515625 86.652344 " fill-opacity="1" fill-rule="nonzero"/><path fill="#f2adab" d="M 300.601562 20.316406 C 300.566406 18.488281 297.523438 16.691406 296.808594 15.425781 C 296.089844 14.164062 297.253906 12.628906 297.253906 12.628906 C 297.253906 12.628906 297.296875 11.023438 297.570312 10.164062 C 297.84375 9.308594 298.808594 9.25 299.730469 10.097656 C 300.652344 10.945312 301.117188 9.574219 302.339844 9.851562 C 303.570312 10.132812 303.765625 10.808594 305.328125 10.707031 C 308.0625 10.527344 305.386719 20.941406 305.386719 20.941406 Z M 300.601562 20.316406 " fill-opacity="1" fill-rule="nonzero"/><path fill="#e4e8ff" d="M 267.785156 21.496094 C 267.785156 21.496094 270.035156 23.507812 273.804688 25.3125 C 273.804688 25.3125 275.929688 23.859375 276.964844 21.886719 L 279.949219 23.402344 C 279.949219 23.402344 282.070312 39.40625 282.046875 49.121094 C 282.023438 58.835938 284.5625 77.867188 290.65625 84.828125 C 290.65625 84.828125 285.515625 95.941406 274.292969 95.941406 C 263.070312 95.941406 253.308594 83.269531 253.308594 83.269531 C 253.308594 83.269531 267.066406 77.621094 268.304688 72.726562 C 269.546875 67.835938 266.1875 55.003906 264.238281 49.96875 C 262.285156 44.9375 262.589844 30.414062 265.070312 24.019531 Z M 267.785156 21.496094 " fill-opacity="1" fill-rule="nonzero"/><path fill="#e4e8ff" d="M 227.796875 85.53125 L 227.804688 87.449219 L 234.691406 87.789062 L 234.769531 85.582031 Z M 227.796875 85.53125 " fill-opacity="1" fill-rule="nonzero"/><path fill="#e4e8ff" d="M 306.273438 21.640625 L 306.335938 19.726562 L 299.464844 19.136719 L 299.308594 21.339844 Z M 306.273438 21.640625 " fill-opacity="1" fill-rule="nonzero"/><path fill="#e4e8ff" d="M 301.320312 157.933594 L 302.03125 164.398438 L 292.347656 165.984375 L 291.574219 157.933594 Z M 301.320312 157.933594 " fill-opacity="1" fill-rule="nonzero"/><path fill="#e4e8ff" d="M 236.015625 151.28125 L 231.460938 154.449219 L 239.539062 161.136719 L 244.179688 156.109375 Z M 236.015625 151.28125 " fill-opacity="1" fill-rule="nonzero"/><g clip-path="url(#2201f18ef2)"><path fill="#e4e8ff" d="M 338.328125 316.628906 L 306.085938 340.53125 L 334.140625 340.53125 L 373.167969 311.460938 L 393.914062 295.882812 L 401.585938 306.089844 L 410.011719 272.625 L 376.445312 272.625 L 383.804688 282.425781 L 338.308594 316.597656 Z M 338.328125 316.628906 " fill-opacity="1" fill-rule="nonzero"/></g><path fill="#007ac7" d="M 267.785156 21.496094 C 267.785156 21.496094 255.40625 24.691406 253.84375 26.074219 C 252.28125 27.460938 237.769531 45.03125 236.125 48.109375 C 234.480469 51.183594 231.820312 55.757812 229.964844 64.511719 C 228.378906 71.996094 226.785156 86.117188 226.785156 86.117188 L 235.53125 86.582031 L 242.460938 58.714844 L 253.664062 47.738281 C 253.664062 47.738281 256.5625 72.691406 252.105469 82.628906 C 252.105469 82.628906 262.179688 88.566406 276.191406 87.90625 C 276.191406 87.90625 274.398438 58.125 270.964844 49.675781 C 267.535156 41.226562 267.289062 31.15625 267.785156 21.496094 Z M 267.785156 21.496094 " fill-opacity="1" fill-rule="nonzero"/><path fill="#007ac7" d="M 276.960938 21.886719 C 276.960938 21.886719 279.890625 40.707031 279.195312 51.066406 C 278.5 61.429688 278.269531 65.03125 279.746094 72.730469 C 281.21875 80.433594 282.324219 87.367188 282.324219 87.367188 C 282.324219 87.367188 288.007812 86.433594 293.042969 83.664062 C 293.042969 83.664062 291.8125 71.867188 288.898438 64.90625 C 284.066406 53.371094 286.394531 42.398438 286.394531 42.398438 C 286.394531 42.398438 294.292969 51.914062 300.207031 50.808594 C 306.933594 49.546875 306.808594 41.148438 307.226562 32.332031 C 307.621094 24.113281 307.328125 20.609375 307.328125 20.609375 L 298.5 20.109375 C 298.5 20.109375 297.496094 30.429688 297.808594 38.265625 L 287.511719 24.402344 C 287.515625 24.402344 284.695312 21.519531 276.960938 21.886719 Z M 276.960938 21.886719 " fill-opacity="1" fill-rule="nonzero"/><path fill="#007ac7" d="M 247.628906 121.492188 L 217.699219 121.492188 C 216.410156 121.492188 215.363281 120.449219 215.363281 119.15625 L 215.363281 101.585938 L 249.964844 101.585938 L 249.964844 119.15625 C 249.964844 120.449219 248.917969 121.492188 247.628906 121.492188 Z M 247.628906 121.492188 " fill-opacity="1" fill-rule="nonzero"/><path fill="#007ac7" d="M 280.433594 11.441406 C 280.410156 12.21875 279.835938 12.832031 279.148438 12.8125 C 278.460938 12.792969 277.921875 12.144531 277.945312 11.367188 C 277.964844 10.589844 278.542969 9.976562 279.230469 9.996094 C 279.917969 10.015625 280.457031 10.664062 280.433594 11.441406 Z M 280.433594 11.441406 " fill-opacity="1" fill-rule="nonzero"/><path fill="#007ac7" d="M 283.488281 9.769531 C 283.464844 10.546875 282.890625 11.164062 282.203125 11.140625 C 281.515625 11.125 280.972656 10.476562 280.996094 9.699219 C 281.019531 8.921875 281.59375 8.308594 282.28125 8.328125 C 282.96875 8.34375 283.507812 8.992188 283.488281 9.769531 Z M 283.488281 9.769531 " fill-opacity="1" fill-rule="nonzero"/><path fill="#007ac7" d="M 313.53125 2.515625 C 313.238281 2.523438 312.960938 2.617188 312.703125 2.785156 L 282.335938 8.828125 C 281.882812 8.90625 281.554688 9.308594 281.5625 9.765625 C 281.574219 10.226562 281.917969 10.613281 282.375 10.671875 L 312.855469 13.226562 C 313.144531 13.414062 313.453125 13.519531 313.773438 13.511719 C 315.3125 13.476562 316.507812 10.988281 316.441406 7.953125 C 316.375 4.914062 315.070312 2.484375 313.53125 2.515625 Z M 313.53125 2.515625 " fill-opacity="1" fill-rule="nonzero"/><path fill="#007ac7" d="M 310.050781 6.4375 C 309.75 6.429688 309.460938 6.511719 309.179688 6.664062 L 279.375 10.40625 C 278.890625 10.464844 278.519531 10.875 278.503906 11.363281 C 278.488281 11.855469 278.835938 12.285156 279.320312 12.371094 L 308.707031 17.78125 C 309.019531 18.019531 309.355469 18.164062 309.714844 18.171875 C 311.363281 18.21875 312.769531 15.628906 312.863281 12.390625 C 312.953125 9.148438 311.695312 6.484375 310.050781 6.4375 Z M 310.050781 6.4375 " fill-opacity="1" fill-rule="nonzero"/><path fill="#007ac7" d="M 314.796875 79.511719 L 327.773438 96.789062 L 247.527344 157.066406 L 247.570312 157.121094 L 130.277344 242.761719 L 181.800781 242.761719 L 309.015625 148.003906 L 345.605469 120.523438 L 359.132812 138.53125 L 373.996094 79.511719 Z M 314.796875 79.511719 " fill-opacity="1" fill-rule="nonzero"/><g clip-path="url(#00fa90b3f4)"><path fill="#007ac7" d="M 262.664062 293.261719 L 198.898438 340.53125 L 244.613281 340.53125 L 319.371094 284.847656 L 353.136719 259.484375 L 365.621094 276.109375 L 379.335938 221.636719 L 324.703125 221.636719 L 336.683594 237.582031 L 262.625 293.210938 Z M 262.664062 293.261719 " fill-opacity="1" fill-rule="nonzero"/></g><path fill="#00e0d8" d="M 273.804688 25.3125 C 273.804688 25.3125 273.011719 26.894531 271.636719 27.707031 C 271.636719 27.707031 273.535156 29.476562 274.328125 29.570312 C 275.117188 29.664062 275.988281 27.707031 275.988281 27.707031 C 275.988281 27.707031 275.589844 26.136719 273.804688 25.3125 Z M 273.804688 25.3125 " fill-opacity="1" fill-rule="nonzero"/><path fill="#00e0d8" d="M 273.6875 27.925781 C 273.6875 27.925781 271.871094 35.546875 265.207031 39.910156 C 258.542969 44.273438 254.796875 47.757812 254.710938 61.183594 C 254.710938 61.183594 255.257812 70.023438 250.007812 74.390625 L 250.328125 84.804688 C 250.328125 84.804688 257.28125 81.855469 259.964844 77.355469 C 262.652344 72.855469 261.960938 61.179688 261.851562 58.683594 C 261.738281 56.191406 261.585938 48.871094 267.332031 43.769531 C 273.078125 38.671875 274.953125 34.078125 275.316406 28.164062 Z M 273.6875 27.925781 " fill-opacity="1" fill-rule="nonzero"/><path fill="#00e0d8" d="M 232.664062 114.8125 C 233.414062 114.8125 234.019531 114.203125 234.019531 113.453125 L 234.019531 112.3125 C 234.019531 111.5625 233.414062 110.957031 232.664062 110.957031 C 231.914062 110.957031 231.304688 111.5625 231.304688 112.3125 L 231.304688 113.453125 C 231.304688 114.203125 231.914062 114.8125 232.664062 114.8125 Z M 232.664062 114.8125 " fill-opacity="1" fill-rule="nonzero"/><path fill="#00e0d8" d="M 306.902344 12.21875 C 306.980469 9.574219 307.933594 7.359375 309.179688 6.664062 L 279.375 10.40625 C 278.890625 10.464844 278.519531 10.875 278.503906 11.363281 C 278.488281 11.855469 278.835938 12.285156 279.320312 12.371094 L 308.707031 17.78125 C 307.589844 16.929688 306.832031 14.753906 306.902344 12.21875 Z M 306.902344 12.21875 " fill-opacity="1" fill-rule="nonzero"/><path fill="#00e0d8" d="M 309.179688 6.664062 C 309.457031 6.511719 309.75 6.425781 310.050781 6.4375 C 310.355469 6.445312 310.648438 6.546875 310.917969 6.71875 C 311.117188 4.863281 311.800781 3.371094 312.703125 2.78125 L 282.335938 8.828125 C 281.882812 8.90625 281.554688 9.308594 281.5625 9.765625 C 281.566406 9.890625 281.597656 10.011719 281.644531 10.121094 Z M 309.179688 6.664062 " fill-opacity="1" fill-rule="nonzero"/><g clip-path="url(#d33bbfcb8f)"><path fill="#00e0d8" d="M 78.972656 340.53125 L 162.359375 340.53125 L 269.542969 260.023438 L 296.597656 296.042969 L 326.320312 177.996094 L 207.925781 177.996094 L 233.882812 212.554688 L 63.503906 340.53125 Z M 78.972656 340.53125 " fill-opacity="1" fill-rule="nonzero"/></g><path fill="#193564" d="M 276.960938 21.886719 C 276.960938 21.886719 278.707031 33.101562 279.183594 42.984375 C 280.878906 36.589844 283.507812 30.625 283.507812 30.625 C 282.578125 29.363281 280.023438 27.957031 280.023438 27.957031 L 282.246094 26.175781 C 281.46875 24.625 280.507812 23.070312 279.730469 21.894531 C 278.886719 21.847656 277.964844 21.839844 276.960938 21.886719 Z M 276.960938 21.886719 " fill-opacity="1" fill-rule="nonzero"/><path fill="#193564" d="M 301.871094 116.703125 C 299.648438 109.742188 291.304688 86.621094 290.65625 84.832031 C 289.988281 85.121094 289.328125 85.382812 288.6875 85.617188 C 285.652344 86.730469 283.070312 87.230469 282.460938 87.339844 C 282.460938 87.339844 282.457031 87.339844 282.453125 87.34375 C 282.410156 87.351562 282.382812 87.355469 282.363281 87.359375 C 282.359375 87.359375 282.355469 87.359375 282.355469 87.359375 C 282.339844 87.363281 282.328125 87.367188 282.328125 87.367188 L 281.785156 84.082031 C 281.417969 81.921875 280.894531 78.878906 280.273438 75.523438 C 278.601562 75.65625 276.742188 75.578125 275.210938 75.453125 C 275.757812 81.3125 276.078125 86.148438 276.167969 87.523438 C 276.167969 87.527344 276.191406 87.914062 276.191406 87.914062 C 275.488281 87.949219 274.804688 87.949219 274.125 87.949219 C 273.015625 87.953125 271.925781 87.929688 270.875 87.855469 C 270.863281 87.855469 270.855469 87.855469 270.847656 87.855469 C 262.640625 87.300781 256.367188 84.742188 253.628906 83.425781 L 253.3125 83.269531 C 253.3125 83.269531 248.75 92.851562 254.152344 108.1875 C 259.550781 123.523438 256.964844 124.113281 256.964844 124.113281 L 233.148438 151.542969 L 244.519531 159.65625 C 244.519531 159.65625 270.515625 133.230469 272.402344 126.578125 C 274.433594 119.4375 274.875 108.648438 274.828125 99.824219 C 279.828125 112.035156 286.808594 123.789062 286.808594 123.789062 C 287.121094 136.472656 289.835938 161.988281 289.835938 161.988281 L 302.707031 160.992188 C 301.023438 152.980469 304.179688 123.941406 301.871094 116.703125 Z M 301.871094 116.703125 " fill-opacity="1" fill-rule="nonzero"/><path fill="#193564" d="M 269.238281 18.027344 C 269.238281 18.027344 268.957031 16.835938 267.050781 15.261719 C 265.140625 13.691406 262.800781 9.726562 264.09375 6.625 C 264.09375 6.625 265.164062 4.164062 267.878906 3.613281 C 267.878906 3.613281 269.070312 -0.0117188 272.164062 0 C 275.257812 0.0117188 277.183594 1.507812 278.546875 1.644531 C 279.910156 1.78125 283.378906 2.355469 283.148438 5.054688 C 282.917969 7.753906 279.425781 10.476562 276.390625 8.378906 C 276.390625 8.378906 275.019531 7.535156 275.195312 9.816406 C 275.375 12.09375 275.035156 12.636719 275.035156 12.636719 C 275.035156 12.636719 274.132812 10.441406 272.769531 10.300781 C 271.40625 10.164062 270.667969 11.050781 270.726562 12.117188 C 270.800781 13.453125 270.078125 16.882812 269.238281 18.027344 Z M 269.238281 18.027344 " fill-opacity="1" fill-rule="nonzero"/><path fill="#193564" d="M 240.894531 178.242188 L 223.402344 163.207031 C 222.507812 162.679688 223.484375 160.320312 224.1875 159.738281 L 230.941406 153.734375 C 233.5625 153.183594 233.476562 157.175781 236.296875 157.40625 C 239.535156 158.414062 240.285156 159.3125 240.886719 160.179688 C 241.960938 161.683594 240.160156 162.203125 239.023438 163.101562 C 236.898438 164.332031 237.605469 165.285156 238.996094 166.296875 C 245.222656 170.816406 247.8125 177.707031 240.894531 178.242188 Z M 240.894531 178.242188 " fill-opacity="1" fill-rule="nonzero"/><path fill="#193564" d="M 317.710938 178.085938 L 293.289062 178.085938 C 291.160156 178.097656 289.824219 175.855469 290.007812 174.9375 L 290.59375 166.410156 C 291.089844 164.535156 294.863281 166.152344 297.425781 164.421875 C 300.890625 163.003906 301.101562 162.617188 302.226562 162.875 C 304.203125 163.296875 304.167969 164.535156 303.839844 165.992188 C 302.902344 168.363281 305.960938 170.394531 307.871094 170.402344 C 315.667969 170.445312 322.597656 175.941406 317.710938 178.085938 Z M 317.710938 178.085938 " fill-opacity="1" fill-rule="nonzero"/><path fill="#193564" d="M 268.339844 42.835938 C 268.667969 43.363281 268.980469 43.886719 269.269531 44.410156 C 269.101562 43.738281 268.953125 43.058594 268.8125 42.371094 C 268.660156 42.523438 268.503906 42.679688 268.339844 42.835938 Z M 268.339844 42.835938 " fill-opacity="1" fill-rule="nonzero"/><path fill="#193564" d="M 260.867188 33.011719 C 260.867188 33.011719 263.421875 35.839844 265.988281 39.363281 C 266.75 38.804688 267.4375 38.207031 268.066406 37.585938 C 267.46875 32.328125 267.515625 26.851562 267.789062 21.496094 C 267.789062 21.496094 265.714844 22.03125 263.160156 22.757812 C 262.480469 24.066406 261.613281 25.75 260.9375 27.046875 L 264.441406 28.925781 C 264.4375 28.925781 262.402344 30.398438 260.867188 33.011719 Z M 260.867188 33.011719 " fill-opacity="1" fill-rule="nonzero"/><path fill="#193564" d="M 247.628906 97.632812 L 217.699219 97.632812 C 216.410156 97.632812 215.363281 98.679688 215.363281 99.96875 L 215.363281 101.960938 C 215.363281 103.25 216.070312 104.433594 217.207031 105.046875 L 231.003906 112.464844 C 231.101562 112.519531 231.203125 112.5625 231.304688 112.601562 L 231.304688 112.3125 C 231.304688 111.5625 231.910156 110.957031 232.660156 110.957031 C 233.410156 110.957031 234.019531 111.5625 234.019531 112.3125 L 234.019531 112.601562 C 234.121094 112.5625 234.222656 112.519531 234.320312 112.464844 L 248.117188 105.046875 C 249.25 104.433594 249.960938 103.25 249.960938 101.960938 L 249.960938 99.96875 C 249.964844 98.679688 248.917969 97.632812 247.628906 97.632812 Z M 247.628906 97.632812 " fill-opacity="1" fill-rule="nonzero"/><path fill="#193564" d="M 309.925781 17.496094 C 308.925781 17.46875 307.878906 15.304688 307.96875 12.25 C 308.054688 9.195312 309.222656 7.097656 310.222656 7.125 C 311.21875 7.152344 312.265625 9.316406 312.179688 12.371094 C 312.09375 15.425781 310.921875 17.523438 309.925781 17.496094 Z M 309.925781 17.496094 " fill-opacity="1" fill-rule="nonzero"/><path fill="#193564" d="M 313.722656 3.152344 C 312.820312 3.171875 311.867188 5.050781 311.855469 7.753906 C 312.480469 8.78125 312.863281 10.328125 312.863281 12.070312 C 313.199219 12.585938 313.578125 12.878906 313.9375 12.871094 C 314.871094 12.851562 315.871094 10.828125 315.804688 7.96875 C 315.738281 5.101562 314.65625 3.132812 313.722656 3.152344 Z M 313.722656 3.152344 " fill-opacity="1" fill-rule="nonzero"/><g clip-path="url(#34864d8c93)"><path fill="#193564" d="M 98.6875 293.261719 L 34.921875 340.53125 L 80.636719 340.53125 L 155.394531 284.847656 L 189.160156 259.484375 L 201.644531 276.109375 L 215.363281 221.636719 L 160.730469 221.636719 L 172.707031 237.582031 L 98.652344 293.210938 Z M 98.6875 293.261719 " fill-opacity="1" fill-rule="nonzero"/></g><g mask="url(#82d36c2c9d)"><g transform="matrix(1, 0, 0, 1, 249, 24)"><g clip-path="url(#229a24cc2b)"><path fill="#193564" d="M 26.457031 2.664062 C 26.867188 3.234375 26.984375 3.707031 26.984375 3.707031 C 26.984375 3.707031 26.671875 4.410156 26.25 4.953125 C 25.769531 10.488281 23.808594 14.898438 18.328125 19.769531 C 12.582031 24.871094 12.734375 32.191406 12.847656 34.683594 C 12.960938 37.179688 13.648438 48.855469 10.960938 53.359375 C 9.4375 55.914062 6.535156 57.96875 4.308594 59.269531 C 3.902344 60.058594 3.410156 61.976562 3.410156 61.976562 C 3.410156 61.976562 10.277344 58.832031 12.835938 54.257812 C 15.390625 49.683594 14.375 38.03125 14.1875 35.546875 C 14.007812 33.058594 13.652344 25.742188 19.246094 20.480469 C 24.589844 15.457031 26.425781 10.996094 26.75 5.445312 C 27.15625 4.894531 27.453125 4.183594 27.453125 4.183594 C 27.453125 4.183594 27.230469 3.394531 26.457031 2.664062 Z M 26.457031 2.664062 " fill-opacity="1" fill-rule="nonzero"/></g></g></g><g mask="url(#0b22ca5c13)"><g transform="matrix(1, 0, 0, 1, 269, 17)"><g clip-path="url(#1ce87a93a0)"><path fill="#193564" d="M 7.839844 4.210938 L 7.707031 4.191406 C 7.707031 4.191406 5.105469 3.648438 3.019531 2.144531 C 3.019531 2.144531 4.585938 3.851562 7.964844 4.886719 Z M 7.839844 4.210938 " fill-opacity="1" fill-rule="nonzero"/></g></g></g><g mask="url(#b0276c3f30)"><g transform="matrix(1, 0, 0, 1, 279, 2)"><g clip-path="url(#4228515ce6)"><path fill="#193564" d="M 31.40625 4.496094 C 31.46875 4.511719 31.53125 4.53125 31.589844 4.554688 C 31.621094 4.566406 31.648438 4.578125 31.679688 4.589844 C 31.757812 4.628906 31.839844 4.671875 31.917969 4.71875 C 31.996094 3.976562 32.152344 3.296875 32.371094 2.703125 C 26.089844 3.878906 7.84375 7.304688 3.773438 7.523438 C 3.523438 7.59375 3.273438 7.648438 3.023438 7.71875 C 2.863281 7.765625 2.710938 7.78125 2.566406 7.785156 C 2.570312 7.90625 2.597656 8.015625 2.644531 8.121094 L 30.179688 4.667969 C 30.457031 4.511719 30.75 4.429688 31.050781 4.441406 C 31.144531 4.441406 31.234375 4.453125 31.320312 4.476562 C 31.351562 4.476562 31.378906 4.488281 31.40625 4.496094 Z M 31.40625 4.496094 " fill-opacity="1" fill-rule="nonzero"/></g></g></g><g mask="url(#3c9dbe069b)"><g transform="matrix(1, 0, 0, 1, 249, 34)"><g clip-path="url(#f74de52509)"><path fill="#193564" d="M 3.414062 14.964844 L 4.660156 13.742188 C 4.660156 13.742188 4.589844 7.03125 5.132812 1.734375 C 5.132812 1.734375 3.652344 9.480469 3.414062 14.964844 Z M 3.414062 14.964844 " fill-opacity="1" fill-rule="nonzero"/></g></g></g><g mask="url(#4d569531b9)"><g transform="matrix(1, 0, 0, 1, 284, 32)"><g clip-path="url(#7c1754af5c)"><g clip-path="url(#774137711e)"><path fill="#193564" d="M 2.394531 10.398438 C 2.394531 10.398438 2.601562 10.644531 2.941406 11.023438 C 3.433594 5.378906 3.058594 0.886719 3.058594 0.886719 C 2.859375 5.863281 2.394531 10.398438 2.394531 10.398438 Z M 2.394531 10.398438 " fill-opacity="1" fill-rule="nonzero"/></g></g></g></g></svg>