<svg xmlns="http://www.w3.org/2000/svg" xmlns:xlink="http://www.w3.org/1999/xlink" width="200" zoomAndPan="magnify" viewBox="0 0 150 74.999997" height="100" preserveAspectRatio="xMidYMid meet" version="1.0"><defs><g/></defs><g fill="#00e0d8" fill-opacity="1"><g transform="translate(0.19106, 52.60477)"><g><path d="M 30.703125 -22.0625 C 29.753906 -24.675781 28.128906 -26.789062 25.828125 -28.40625 C 23.523438 -30.03125 20.796875 -30.84375 17.640625 -30.84375 C 15.023438 -30.84375 12.648438 -30.222656 10.515625 -28.984375 C 8.378906 -27.753906 6.691406 -25.988281 5.453125 -23.6875 C 4.222656 -21.382812 3.609375 -18.703125 3.609375 -15.640625 C 3.609375 -12.578125 4.222656 -9.894531 5.453125 -7.59375 C 6.691406 -5.289062 8.378906 -3.523438 10.515625 -2.296875 C 12.648438 -1.066406 15.023438 -0.453125 17.640625 -0.453125 C 20.203125 -0.453125 22.546875 -1.046875 24.671875 -2.234375 C 26.796875 -3.421875 28.492188 -5.132812 29.765625 -7.375 C 31.046875 -9.613281 31.710938 -12.222656 31.765625 -15.203125 L 16.984375 -15.203125 L 16.984375 -16 L 32.625 -16 L 32.625 -15.640625 C 32.625 -12.546875 31.984375 -9.78125 30.703125 -7.34375 C 29.421875 -4.914062 27.644531 -3.023438 25.375 -1.671875 C 23.101562 -0.316406 20.523438 0.359375 17.640625 0.359375 C 14.765625 0.359375 12.1875 -0.316406 9.90625 -1.671875 C 7.632812 -3.023438 5.859375 -4.914062 4.578125 -7.34375 C 3.304688 -9.78125 2.671875 -12.546875 2.671875 -15.640625 C 2.671875 -18.734375 3.304688 -21.492188 4.578125 -23.921875 C 5.859375 -26.359375 7.632812 -28.253906 9.90625 -29.609375 C 12.1875 -30.960938 14.765625 -31.640625 17.640625 -31.640625 C 21.035156 -31.640625 23.9375 -30.773438 26.34375 -29.046875 C 28.75 -27.328125 30.5 -25 31.59375 -22.0625 Z M 30.703125 -22.0625 "/></g></g></g><g fill="#00e0d8" fill-opacity="1"><g transform="translate(35.474767, 52.60477)"><g><path d="M 14.265625 -0.484375 C 16.960938 -0.484375 19.234375 -1.164062 21.078125 -2.53125 C 22.921875 -3.90625 24.035156 -5.78125 24.421875 -8.15625 L 25.3125 -8.15625 C 24.894531 -5.625 23.710938 -3.578125 21.765625 -2.015625 C 19.816406 -0.460938 17.316406 0.3125 14.265625 0.3125 C 12.035156 0.3125 10.039062 -0.175781 8.28125 -1.15625 C 6.53125 -2.132812 5.15625 -3.5625 4.15625 -5.4375 C 3.164062 -7.3125 2.671875 -9.507812 2.671875 -12.03125 C 2.671875 -14.550781 3.164062 -16.75 4.15625 -18.625 C 5.15625 -20.5 6.53125 -21.925781 8.28125 -22.90625 C 10.039062 -23.882812 12.035156 -24.375 14.265625 -24.375 C 16.609375 -24.375 18.609375 -23.875 20.265625 -22.875 C 21.929688 -21.882812 23.1875 -20.601562 24.03125 -19.03125 C 24.882812 -17.457031 25.3125 -15.789062 25.3125 -14.03125 C 25.3125 -12.96875 25.296875 -12.164062 25.265625 -11.625 L 3.5625 -11.625 C 3.59375 -9.164062 4.101562 -7.101562 5.09375 -5.4375 C 6.09375 -3.769531 7.394531 -2.523438 9 -1.703125 C 10.601562 -0.890625 12.359375 -0.484375 14.265625 -0.484375 Z M 14.265625 -23.578125 C 12.359375 -23.578125 10.601562 -23.164062 9 -22.34375 C 7.394531 -21.53125 6.09375 -20.289062 5.09375 -18.625 C 4.101562 -16.957031 3.59375 -14.894531 3.5625 -12.4375 L 24.515625 -12.4375 C 24.660156 -14.894531 24.265625 -16.957031 23.328125 -18.625 C 22.390625 -20.289062 21.109375 -21.53125 19.484375 -22.34375 C 17.867188 -23.164062 16.128906 -23.578125 14.265625 -23.578125 Z M 14.265625 -23.578125 "/></g></g></g><g fill="#00e0d8" fill-opacity="1"><g transform="translate(63.452252, 52.60477)"><g><path d="M 14.125 -24.59375 C 16.945312 -24.59375 19.265625 -23.71875 21.078125 -21.96875 C 22.890625 -20.21875 23.796875 -17.570312 23.796875 -14.03125 L 23.796875 0 L 22.953125 0 L 22.953125 -14.125 C 22.953125 -17.269531 22.160156 -19.664062 20.578125 -21.3125 C 19.003906 -22.96875 16.851562 -23.796875 14.125 -23.796875 C 11.269531 -23.796875 8.976562 -22.863281 7.25 -21 C 5.53125 -19.144531 4.671875 -16.410156 4.671875 -12.796875 L 4.671875 0 L 3.78125 0 L 3.78125 -24.0625 L 4.671875 -24.0625 L 4.671875 -17.734375 C 5.242188 -19.960938 6.375 -21.660156 8.0625 -22.828125 C 9.757812 -24.003906 11.78125 -24.59375 14.125 -24.59375 Z M 14.125 -24.59375 "/></g></g></g><g fill="#00e0d8" fill-opacity="1"><g transform="translate(90.806034, 52.60477)"><g><path d="M 21.53125 -24.0625 L 7.796875 11.3125 L 6.859375 11.3125 L 11.234375 0.140625 L 0.890625 -24.0625 L 1.78125 -24.0625 L 11.671875 -0.9375 L 20.625 -24.0625 Z M 21.53125 -24.0625 "/></g></g></g><g fill="#00e0d8" fill-opacity="1"><g transform="translate(113.214757, 52.60477)"><g><path d="M 11.546875 0.3125 C 8.898438 0.3125 6.765625 -0.21875 5.140625 -1.28125 C 3.523438 -2.351562 2.582031 -3.976562 2.3125 -6.15625 L 3.203125 -6.15625 C 3.378906 -4.363281 4.171875 -2.96875 5.578125 -1.96875 C 6.992188 -0.976562 9 -0.484375 11.59375 -0.484375 C 12.894531 -0.484375 14.039062 -0.734375 15.03125 -1.234375 C 16.03125 -1.742188 16.796875 -2.421875 17.328125 -3.265625 C 17.867188 -4.117188 18.140625 -5.035156 18.140625 -6.015625 C 18.140625 -7.085938 17.832031 -7.957031 17.21875 -8.625 C 16.613281 -9.289062 15.859375 -9.800781 14.953125 -10.15625 C 14.046875 -10.507812 12.804688 -10.894531 11.234375 -11.3125 C 9.472656 -11.757812 8.050781 -12.207031 6.96875 -12.65625 C 5.882812 -13.101562 4.960938 -13.785156 4.203125 -14.703125 C 3.453125 -15.628906 3.078125 -16.847656 3.078125 -18.359375 C 3.078125 -19.429688 3.398438 -20.425781 4.046875 -21.34375 C 4.703125 -22.269531 5.601562 -23.003906 6.75 -23.546875 C 7.894531 -24.097656 9.179688 -24.375 10.609375 -24.375 C 13.046875 -24.375 15.003906 -23.765625 16.484375 -22.546875 C 17.972656 -21.328125 18.773438 -19.632812 18.890625 -17.46875 L 18 -17.46875 C 17.914062 -19.25 17.238281 -20.710938 15.96875 -21.859375 C 14.707031 -23.003906 12.921875 -23.578125 10.609375 -23.578125 C 9.359375 -23.578125 8.226562 -23.335938 7.21875 -22.859375 C 6.207031 -22.378906 5.410156 -21.738281 4.828125 -20.9375 C 4.253906 -20.132812 3.96875 -19.273438 3.96875 -18.359375 C 3.96875 -17.054688 4.304688 -16.003906 4.984375 -15.203125 C 5.671875 -14.398438 6.507812 -13.800781 7.5 -13.40625 C 8.5 -13.019531 9.832031 -12.609375 11.5 -12.171875 C 13.1875 -11.691406 14.515625 -11.257812 15.484375 -10.875 C 16.453125 -10.488281 17.273438 -9.898438 17.953125 -9.109375 C 18.640625 -8.328125 18.984375 -7.296875 18.984375 -6.015625 C 18.984375 -4.828125 18.65625 -3.75 18 -2.78125 C 17.34375 -1.820312 16.453125 -1.066406 15.328125 -0.515625 C 14.203125 0.0351562 12.941406 0.3125 11.546875 0.3125 Z M 11.546875 0.3125 "/></g></g></g><g fill="#00e0d8" fill-opacity="1"><g transform="translate(134.732476, 52.60477)"><g><path d="M 5.703125 -23.171875 L 5.703125 -6.328125 C 5.703125 -4.867188 5.863281 -3.753906 6.1875 -2.984375 C 6.519531 -2.210938 7.039062 -1.671875 7.75 -1.359375 C 8.46875 -1.046875 9.460938 -0.890625 10.734375 -0.890625 L 13.28125 -0.890625 L 13.28125 0 L 10.65625 0 C 8.570312 0 7.078125 -0.472656 6.171875 -1.421875 C 5.265625 -2.378906 4.8125 -4.015625 4.8125 -6.328125 L 4.8125 -23.171875 L 0.890625 -23.171875 L 0.890625 -24.0625 L 4.8125 -24.0625 L 4.8125 -30.21875 L 5.703125 -30.21875 L 5.703125 -24.0625 L 13.28125 -24.0625 L 13.28125 -23.171875 Z M 5.703125 -23.171875 "/></g></g></g></svg>