<svg xmlns="http://www.w3.org/2000/svg" xmlns:xlink="http://www.w3.org/1999/xlink" width="1000" zoomAndPan="magnify" viewBox="0 0 750 675.000002" height="900" preserveAspectRatio="xMidYMid meet" version="1.0"><defs><g/><clipPath id="2546f89601"><path d="M 22.734375 102.203125 L 492.328125 102.203125 L 492.328125 571.796875 L 22.734375 571.796875 Z M 22.734375 102.203125 " clip-rule="nonzero"/></clipPath><clipPath id="a8635ea514"><path d="M 257.53125 102.203125 C 127.855469 102.203125 22.734375 207.328125 22.734375 337 C 22.734375 466.675781 127.855469 571.796875 257.53125 571.796875 C 387.207031 571.796875 492.328125 466.675781 492.328125 337 C 492.328125 207.328125 387.207031 102.203125 257.53125 102.203125 Z M 257.53125 102.203125 " clip-rule="nonzero"/></clipPath><radialGradient gradientTransform="matrix(1, 0, 0, 1, 22.734891, 102.204386)" gradientUnits="userSpaceOnUse" r="332.052184" cx="234.796359" id="c329c27d31" cy="234.796359" fx="234.796359" fy="234.796359"><stop stop-opacity="1" stop-color="rgb(0%, 47.955322%, 78.025818%)" offset="0"/><stop stop-opacity="1" stop-color="rgb(0%, 48.190308%, 78.063965%)" offset="0.0078125"/><stop stop-opacity="1" stop-color="rgb(0%, 48.345947%, 78.089905%)" offset="0.0117188"/><stop stop-opacity="1" stop-color="rgb(0%, 48.501587%, 78.115845%)" offset="0.015625"/><stop stop-opacity="1" stop-color="rgb(0%, 48.658752%, 78.141785%)" offset="0.0195312"/><stop stop-opacity="1" stop-color="rgb(0%, 48.814392%, 78.16925%)" offset="0.0234375"/><stop stop-opacity="1" stop-color="rgb(0%, 48.971558%, 78.19519%)" offset="0.0273438"/><stop stop-opacity="1" stop-color="rgb(0%, 49.127197%, 78.22113%)" offset="0.03125"/><stop stop-opacity="1" stop-color="rgb(0%, 49.282837%, 78.24707%)" offset="0.0351562"/><stop stop-opacity="1" stop-color="rgb(0%, 49.440002%, 78.27301%)" offset="0.0390625"/><stop stop-opacity="1" stop-color="rgb(0%, 49.595642%, 78.29895%)" offset="0.0429688"/><stop stop-opacity="1" stop-color="rgb(0%, 49.752808%, 78.326416%)" offset="0.046875"/><stop stop-opacity="1" stop-color="rgb(0%, 49.908447%, 78.352356%)" offset="0.0507812"/><stop stop-opacity="1" stop-color="rgb(0%, 50.064087%, 78.378296%)" offset="0.0546875"/><stop stop-opacity="1" stop-color="rgb(0%, 50.221252%, 78.404236%)" offset="0.0585938"/><stop stop-opacity="1" stop-color="rgb(0%, 50.376892%, 78.430176%)" offset="0.0625"/><stop stop-opacity="1" stop-color="rgb(0%, 50.534058%, 78.456116%)" offset="0.0664062"/><stop stop-opacity="1" stop-color="rgb(0%, 50.689697%, 78.482056%)" offset="0.0703125"/><stop stop-opacity="1" stop-color="rgb(0%, 50.845337%, 78.509521%)" offset="0.0742188"/><stop stop-opacity="1" stop-color="rgb(0%, 51.002502%, 78.535461%)" offset="0.078125"/><stop stop-opacity="1" stop-color="rgb(0%, 51.158142%, 78.561401%)" offset="0.0820312"/><stop stop-opacity="1" stop-color="rgb(0%, 51.315308%, 78.587341%)" offset="0.0859375"/><stop stop-opacity="1" stop-color="rgb(0%, 51.470947%, 78.613281%)" offset="0.0898438"/><stop stop-opacity="1" stop-color="rgb(0%, 51.626587%, 78.639221%)" offset="0.09375"/><stop stop-opacity="1" stop-color="rgb(0%, 51.783752%, 78.666687%)" offset="0.0976562"/><stop stop-opacity="1" stop-color="rgb(0%, 51.939392%, 78.692627%)" offset="0.101562"/><stop stop-opacity="1" stop-color="rgb(0%, 52.096558%, 78.718567%)" offset="0.105469"/><stop stop-opacity="1" stop-color="rgb(0%, 52.252197%, 78.744507%)" offset="0.109375"/><stop stop-opacity="1" stop-color="rgb(0%, 52.407837%, 78.770447%)" offset="0.113281"/><stop stop-opacity="1" stop-color="rgb(0%, 52.565002%, 78.796387%)" offset="0.117188"/><stop stop-opacity="1" stop-color="rgb(0%, 52.720642%, 78.822327%)" offset="0.121094"/><stop stop-opacity="1" stop-color="rgb(0%, 52.877808%, 78.849792%)" offset="0.125"/><stop stop-opacity="1" stop-color="rgb(0%, 53.033447%, 78.875732%)" offset="0.128906"/><stop stop-opacity="1" stop-color="rgb(0%, 53.189087%, 78.901672%)" offset="0.132812"/><stop stop-opacity="1" stop-color="rgb(0%, 53.346252%, 78.927612%)" offset="0.136719"/><stop stop-opacity="1" stop-color="rgb(0%, 53.501892%, 78.953552%)" offset="0.140625"/><stop stop-opacity="1" stop-color="rgb(0%, 53.659058%, 78.979492%)" offset="0.144531"/><stop stop-opacity="1" stop-color="rgb(0%, 53.814697%, 79.006958%)" offset="0.148438"/><stop stop-opacity="1" stop-color="rgb(0%, 53.970337%, 79.032898%)" offset="0.152344"/><stop stop-opacity="1" stop-color="rgb(0%, 54.127502%, 79.058838%)" offset="0.15625"/><stop stop-opacity="1" stop-color="rgb(0%, 54.283142%, 79.084778%)" offset="0.160156"/><stop stop-opacity="1" stop-color="rgb(0%, 54.440308%, 79.110718%)" offset="0.164062"/><stop stop-opacity="1" stop-color="rgb(0%, 54.595947%, 79.136658%)" offset="0.167969"/><stop stop-opacity="1" stop-color="rgb(0%, 54.751587%, 79.162598%)" offset="0.171875"/><stop stop-opacity="1" stop-color="rgb(0%, 54.908752%, 79.190063%)" offset="0.175781"/><stop stop-opacity="1" stop-color="rgb(0%, 55.064392%, 79.216003%)" offset="0.179688"/><stop stop-opacity="1" stop-color="rgb(0%, 55.221558%, 79.241943%)" offset="0.183594"/><stop stop-opacity="1" stop-color="rgb(0%, 55.377197%, 79.267883%)" offset="0.1875"/><stop stop-opacity="1" stop-color="rgb(0%, 55.532837%, 79.293823%)" offset="0.191406"/><stop stop-opacity="1" stop-color="rgb(0%, 55.690002%, 79.319763%)" offset="0.195312"/><stop stop-opacity="1" stop-color="rgb(0%, 55.845642%, 79.345703%)" offset="0.199219"/><stop stop-opacity="1" stop-color="rgb(0%, 56.002808%, 79.373169%)" offset="0.203125"/><stop stop-opacity="1" stop-color="rgb(0%, 56.158447%, 79.399109%)" offset="0.207031"/><stop stop-opacity="1" stop-color="rgb(0%, 56.314087%, 79.425049%)" offset="0.210938"/><stop stop-opacity="1" stop-color="rgb(0%, 56.471252%, 79.450989%)" offset="0.214844"/><stop stop-opacity="1" stop-color="rgb(0%, 56.626892%, 79.476929%)" offset="0.21875"/><stop stop-opacity="1" stop-color="rgb(0%, 56.784058%, 79.502869%)" offset="0.222656"/><stop stop-opacity="1" stop-color="rgb(0%, 56.939697%, 79.530334%)" offset="0.226562"/><stop stop-opacity="1" stop-color="rgb(0%, 57.095337%, 79.556274%)" offset="0.230469"/><stop stop-opacity="1" stop-color="rgb(0%, 57.252502%, 79.582214%)" offset="0.234375"/><stop stop-opacity="1" stop-color="rgb(0%, 57.408142%, 79.608154%)" offset="0.238281"/><stop stop-opacity="1" stop-color="rgb(0%, 57.565308%, 79.634094%)" offset="0.242188"/><stop stop-opacity="1" stop-color="rgb(0%, 57.720947%, 79.660034%)" offset="0.246094"/><stop stop-opacity="1" stop-color="rgb(0%, 57.876587%, 79.685974%)" offset="0.25"/><stop stop-opacity="1" stop-color="rgb(0%, 58.111572%, 79.725647%)" offset="0.253906"/><stop stop-opacity="1" stop-color="rgb(0%, 58.424377%, 79.779053%)" offset="0.261719"/><stop stop-opacity="1" stop-color="rgb(0%, 58.735657%, 79.830933%)" offset="0.269531"/><stop stop-opacity="1" stop-color="rgb(0%, 59.048462%, 79.882812%)" offset="0.277344"/><stop stop-opacity="1" stop-color="rgb(0%, 59.361267%, 79.936218%)" offset="0.285156"/><stop stop-opacity="1" stop-color="rgb(0%, 59.674072%, 79.988098%)" offset="0.292969"/><stop stop-opacity="1" stop-color="rgb(0%, 59.986877%, 80.039978%)" offset="0.300781"/><stop stop-opacity="1" stop-color="rgb(0%, 60.298157%, 80.093384%)" offset="0.308594"/><stop stop-opacity="1" stop-color="rgb(0%, 60.610962%, 80.145264%)" offset="0.316406"/><stop stop-opacity="1" stop-color="rgb(0%, 60.923767%, 80.197144%)" offset="0.324219"/><stop stop-opacity="1" stop-color="rgb(0%, 61.236572%, 80.250549%)" offset="0.332031"/><stop stop-opacity="1" stop-color="rgb(0%, 61.549377%, 80.302429%)" offset="0.339844"/><stop stop-opacity="1" stop-color="rgb(0%, 61.860657%, 80.354309%)" offset="0.347656"/><stop stop-opacity="1" stop-color="rgb(0%, 62.173462%, 80.406189%)" offset="0.355469"/><stop stop-opacity="1" stop-color="rgb(0%, 62.486267%, 80.459595%)" offset="0.363281"/><stop stop-opacity="1" stop-color="rgb(0%, 62.799072%, 80.511475%)" offset="0.371094"/><stop stop-opacity="1" stop-color="rgb(0%, 63.111877%, 80.563354%)" offset="0.378906"/><stop stop-opacity="1" stop-color="rgb(0%, 63.423157%, 80.61676%)" offset="0.386719"/><stop stop-opacity="1" stop-color="rgb(0%, 63.735962%, 80.66864%)" offset="0.394531"/><stop stop-opacity="1" stop-color="rgb(0%, 64.048767%, 80.72052%)" offset="0.402344"/><stop stop-opacity="1" stop-color="rgb(0%, 64.361572%, 80.773926%)" offset="0.410156"/><stop stop-opacity="1" stop-color="rgb(0%, 64.674377%, 80.825806%)" offset="0.417969"/><stop stop-opacity="1" stop-color="rgb(0%, 64.985657%, 80.877686%)" offset="0.425781"/><stop stop-opacity="1" stop-color="rgb(0%, 65.298462%, 80.929565%)" offset="0.433594"/><stop stop-opacity="1" stop-color="rgb(0%, 65.611267%, 80.982971%)" offset="0.441406"/><stop stop-opacity="1" stop-color="rgb(0%, 65.924072%, 81.034851%)" offset="0.449219"/><stop stop-opacity="1" stop-color="rgb(0%, 66.236877%, 81.086731%)" offset="0.457031"/><stop stop-opacity="1" stop-color="rgb(0%, 66.548157%, 81.140137%)" offset="0.464844"/><stop stop-opacity="1" stop-color="rgb(0%, 66.860962%, 81.192017%)" offset="0.472656"/><stop stop-opacity="1" stop-color="rgb(0%, 67.173767%, 81.243896%)" offset="0.480469"/><stop stop-opacity="1" stop-color="rgb(0%, 67.486572%, 81.297302%)" offset="0.488281"/><stop stop-opacity="1" stop-color="rgb(0%, 67.799377%, 81.349182%)" offset="0.496094"/><stop stop-opacity="1" stop-color="rgb(0%, 68.032837%, 81.387329%)" offset="0.503906"/><stop stop-opacity="1" stop-color="rgb(0%, 68.190002%, 81.413269%)" offset="0.507812"/><stop stop-opacity="1" stop-color="rgb(0%, 68.345642%, 81.440735%)" offset="0.511719"/><stop stop-opacity="1" stop-color="rgb(0%, 68.502808%, 81.466675%)" offset="0.515625"/><stop stop-opacity="1" stop-color="rgb(0%, 68.658447%, 81.492615%)" offset="0.519531"/><stop stop-opacity="1" stop-color="rgb(0%, 68.814087%, 81.518555%)" offset="0.523438"/><stop stop-opacity="1" stop-color="rgb(0%, 68.971252%, 81.544495%)" offset="0.527344"/><stop stop-opacity="1" stop-color="rgb(0%, 69.126892%, 81.570435%)" offset="0.53125"/><stop stop-opacity="1" stop-color="rgb(0%, 69.284058%, 81.5979%)" offset="0.535156"/><stop stop-opacity="1" stop-color="rgb(0%, 69.439697%, 81.62384%)" offset="0.539062"/><stop stop-opacity="1" stop-color="rgb(0%, 69.595337%, 81.64978%)" offset="0.542969"/><stop stop-opacity="1" stop-color="rgb(0%, 69.752502%, 81.67572%)" offset="0.546875"/><stop stop-opacity="1" stop-color="rgb(0%, 69.908142%, 81.70166%)" offset="0.550781"/><stop stop-opacity="1" stop-color="rgb(0%, 70.065308%, 81.7276%)" offset="0.554688"/><stop stop-opacity="1" stop-color="rgb(0%, 70.220947%, 81.75354%)" offset="0.558594"/><stop stop-opacity="1" stop-color="rgb(0%, 70.376587%, 81.781006%)" offset="0.5625"/><stop stop-opacity="1" stop-color="rgb(0%, 70.533752%, 81.806946%)" offset="0.566406"/><stop stop-opacity="1" stop-color="rgb(0%, 70.689392%, 81.832886%)" offset="0.570312"/><stop stop-opacity="1" stop-color="rgb(0%, 70.846558%, 81.858826%)" offset="0.574219"/><stop stop-opacity="1" stop-color="rgb(0%, 71.002197%, 81.884766%)" offset="0.578125"/><stop stop-opacity="1" stop-color="rgb(0%, 71.157837%, 81.910706%)" offset="0.582031"/><stop stop-opacity="1" stop-color="rgb(0%, 71.315002%, 81.938171%)" offset="0.585938"/><stop stop-opacity="1" stop-color="rgb(0%, 71.470642%, 81.964111%)" offset="0.589844"/><stop stop-opacity="1" stop-color="rgb(0%, 71.627808%, 81.990051%)" offset="0.59375"/><stop stop-opacity="1" stop-color="rgb(0%, 71.783447%, 82.015991%)" offset="0.597656"/><stop stop-opacity="1" stop-color="rgb(0%, 71.939087%, 82.041931%)" offset="0.601562"/><stop stop-opacity="1" stop-color="rgb(0%, 72.096252%, 82.067871%)" offset="0.605469"/><stop stop-opacity="1" stop-color="rgb(0%, 72.251892%, 82.093811%)" offset="0.609375"/><stop stop-opacity="1" stop-color="rgb(0%, 72.409058%, 82.121277%)" offset="0.613281"/><stop stop-opacity="1" stop-color="rgb(0%, 72.564697%, 82.147217%)" offset="0.617188"/><stop stop-opacity="1" stop-color="rgb(0%, 72.720337%, 82.173157%)" offset="0.621094"/><stop stop-opacity="1" stop-color="rgb(0%, 72.877502%, 82.199097%)" offset="0.625"/><stop stop-opacity="1" stop-color="rgb(0%, 73.110962%, 82.23877%)" offset="0.628906"/><stop stop-opacity="1" stop-color="rgb(0%, 73.423767%, 82.290649%)" offset="0.636719"/><stop stop-opacity="1" stop-color="rgb(0%, 73.736572%, 82.344055%)" offset="0.644531"/><stop stop-opacity="1" stop-color="rgb(0%, 74.049377%, 82.395935%)" offset="0.652344"/><stop stop-opacity="1" stop-color="rgb(0%, 74.360657%, 82.447815%)" offset="0.660156"/><stop stop-opacity="1" stop-color="rgb(0%, 74.673462%, 82.501221%)" offset="0.667969"/><stop stop-opacity="1" stop-color="rgb(0%, 74.986267%, 82.553101%)" offset="0.675781"/><stop stop-opacity="1" stop-color="rgb(0%, 75.299072%, 82.60498%)" offset="0.683594"/><stop stop-opacity="1" stop-color="rgb(0%, 75.611877%, 82.65686%)" offset="0.691406"/><stop stop-opacity="1" stop-color="rgb(0%, 75.923157%, 82.710266%)" offset="0.699219"/><stop stop-opacity="1" stop-color="rgb(0%, 76.235962%, 82.762146%)" offset="0.707031"/><stop stop-opacity="1" stop-color="rgb(0%, 76.548767%, 82.814026%)" offset="0.714844"/><stop stop-opacity="1" stop-color="rgb(0%, 76.861572%, 82.867432%)" offset="0.722656"/><stop stop-opacity="1" stop-color="rgb(0%, 77.174377%, 82.919312%)" offset="0.730469"/><stop stop-opacity="1" stop-color="rgb(0%, 77.485657%, 82.971191%)" offset="0.738281"/><stop stop-opacity="1" stop-color="rgb(0%, 77.798462%, 83.024597%)" offset="0.746094"/><stop stop-opacity="1" stop-color="rgb(0%, 78.033447%, 83.062744%)" offset="0.753906"/><stop stop-opacity="1" stop-color="rgb(0%, 78.189087%, 83.088684%)" offset="0.757812"/><stop stop-opacity="1" stop-color="rgb(0%, 78.346252%, 83.114624%)" offset="0.761719"/><stop stop-opacity="1" stop-color="rgb(0%, 78.501892%, 83.14209%)" offset="0.765625"/><stop stop-opacity="1" stop-color="rgb(0%, 78.659058%, 83.16803%)" offset="0.769531"/><stop stop-opacity="1" stop-color="rgb(0%, 78.814697%, 83.19397%)" offset="0.773438"/><stop stop-opacity="1" stop-color="rgb(0%, 78.970337%, 83.21991%)" offset="0.777344"/><stop stop-opacity="1" stop-color="rgb(0%, 79.127502%, 83.24585%)" offset="0.78125"/><stop stop-opacity="1" stop-color="rgb(0%, 79.283142%, 83.27179%)" offset="0.785156"/><stop stop-opacity="1" stop-color="rgb(0%, 79.440308%, 83.297729%)" offset="0.789062"/><stop stop-opacity="1" stop-color="rgb(0%, 79.595947%, 83.325195%)" offset="0.792969"/><stop stop-opacity="1" stop-color="rgb(0%, 79.751587%, 83.351135%)" offset="0.796875"/><stop stop-opacity="1" stop-color="rgb(0%, 79.908752%, 83.377075%)" offset="0.800781"/><stop stop-opacity="1" stop-color="rgb(0%, 80.064392%, 83.403015%)" offset="0.804688"/><stop stop-opacity="1" stop-color="rgb(0%, 80.221558%, 83.428955%)" offset="0.808594"/><stop stop-opacity="1" stop-color="rgb(0%, 80.377197%, 83.454895%)" offset="0.8125"/><stop stop-opacity="1" stop-color="rgb(0%, 80.610657%, 83.494568%)" offset="0.816406"/><stop stop-opacity="1" stop-color="rgb(0%, 80.923462%, 83.547974%)" offset="0.824219"/><stop stop-opacity="1" stop-color="rgb(0%, 81.236267%, 83.599854%)" offset="0.832031"/><stop stop-opacity="1" stop-color="rgb(0%, 81.549072%, 83.651733%)" offset="0.839844"/><stop stop-opacity="1" stop-color="rgb(0%, 81.861877%, 83.705139%)" offset="0.847656"/><stop stop-opacity="1" stop-color="rgb(0%, 82.173157%, 83.757019%)" offset="0.855469"/><stop stop-opacity="1" stop-color="rgb(0%, 82.485962%, 83.808899%)" offset="0.863281"/><stop stop-opacity="1" stop-color="rgb(0%, 82.798767%, 83.860779%)" offset="0.871094"/><stop stop-opacity="1" stop-color="rgb(0%, 83.033752%, 83.900452%)" offset="0.878906"/><stop stop-opacity="1" stop-color="rgb(0%, 83.189392%, 83.926392%)" offset="0.882812"/><stop stop-opacity="1" stop-color="rgb(0%, 83.346558%, 83.952332%)" offset="0.886719"/><stop stop-opacity="1" stop-color="rgb(0%, 83.502197%, 83.978271%)" offset="0.890625"/><stop stop-opacity="1" stop-color="rgb(0%, 83.657837%, 84.005737%)" offset="0.894531"/><stop stop-opacity="1" stop-color="rgb(0%, 83.815002%, 84.031677%)" offset="0.898438"/><stop stop-opacity="1" stop-color="rgb(0%, 83.970642%, 84.057617%)" offset="0.902344"/><stop stop-opacity="1" stop-color="rgb(0%, 84.127808%, 84.083557%)" offset="0.90625"/><stop stop-opacity="1" stop-color="rgb(0%, 84.361267%, 84.12323%)" offset="0.910156"/><stop stop-opacity="1" stop-color="rgb(0%, 84.674072%, 84.17511%)" offset="0.917969"/><stop stop-opacity="1" stop-color="rgb(0%, 84.986877%, 84.228516%)" offset="0.925781"/><stop stop-opacity="1" stop-color="rgb(0%, 85.298157%, 84.280396%)" offset="0.933594"/><stop stop-opacity="1" stop-color="rgb(0%, 85.533142%, 84.318542%)" offset="0.941406"/><stop stop-opacity="1" stop-color="rgb(0%, 85.690308%, 84.346008%)" offset="0.945312"/><stop stop-opacity="1" stop-color="rgb(0%, 85.845947%, 84.371948%)" offset="0.949219"/><stop stop-opacity="1" stop-color="rgb(0%, 86.001587%, 84.397888%)" offset="0.953125"/><stop stop-opacity="1" stop-color="rgb(0%, 86.236572%, 84.437561%)" offset="0.957031"/><stop stop-opacity="1" stop-color="rgb(0%, 86.549377%, 84.489441%)" offset="0.964844"/><stop stop-opacity="1" stop-color="rgb(0%, 86.782837%, 84.529114%)" offset="0.972656"/><stop stop-opacity="1" stop-color="rgb(0%, 86.940002%, 84.555054%)" offset="0.976562"/><stop stop-opacity="1" stop-color="rgb(0%, 87.173462%, 84.594727%)" offset="0.980469"/><stop stop-opacity="1" stop-color="rgb(0%, 87.408447%, 84.632874%)" offset="0.988281"/><stop stop-opacity="1" stop-color="rgb(0%, 87.641907%, 84.672546%)" offset="0.992188"/><stop stop-opacity="1" stop-color="rgb(0%, 87.799072%, 84.698486%)" offset="1"/></radialGradient><clipPath id="afba478ee6"><path d="M 147.882812 227.351562 L 367.179688 227.351562 L 367.179688 446.648438 L 147.882812 446.648438 Z M 147.882812 227.351562 " clip-rule="nonzero"/></clipPath><clipPath id="cf649ad5a8"><path d="M 257.53125 227.351562 C 196.972656 227.351562 147.882812 276.445312 147.882812 337 C 147.882812 397.558594 196.972656 446.648438 257.53125 446.648438 C 318.089844 446.648438 367.179688 397.558594 367.179688 337 C 367.179688 276.445312 318.089844 227.351562 257.53125 227.351562 Z M 257.53125 227.351562 " clip-rule="nonzero"/></clipPath></defs><g clip-path="url(#2546f89601)"><g clip-path="url(#a8635ea514)"><path fill="url(#c329c27d31)" d="M 22.734375 102.203125 L 22.734375 571.796875 L 492.328125 571.796875 L 492.328125 102.203125 Z M 22.734375 102.203125 " fill-rule="nonzero"/></g></g><g clip-path="url(#afba478ee6)"><g clip-path="url(#cf649ad5a8)"><path fill="#ffffff" d="M 147.882812 227.351562 L 367.179688 227.351562 L 367.179688 446.648438 L 147.882812 446.648438 Z M 147.882812 227.351562 " fill-opacity="1" fill-rule="nonzero"/></g></g><g fill="#d4dae3" fill-opacity="1"><g transform="translate(464.965507, 546.53717)"><g><path d="M 29.90625 1.765625 C 26.738281 1.765625 23.644531 1.359375 20.625 0.546875 C 17.613281 -0.253906 15.265625 -1.28125 13.578125 -2.53125 L 13.46875 -2.53125 L 13.796875 0.765625 L 5.40625 0.765625 L 4.96875 -18.203125 L 12.140625 -18.203125 C 12.503906 -14.816406 14.285156 -11.96875 17.484375 -9.65625 C 20.691406 -7.34375 24.613281 -6.1875 29.25 -6.1875 C 31.300781 -6.1875 33.082031 -6.660156 34.59375 -7.609375 C 36.101562 -8.566406 36.859375 -9.929688 36.859375 -11.703125 C 36.859375 -13.023438 36.378906 -14.125 35.421875 -15 C 34.460938 -15.882812 33.320312 -16.617188 32 -17.203125 C 30.675781 -17.796875 28.03125 -18.867188 24.0625 -20.421875 C 19.351562 -22.253906 15.820312 -23.757812 13.46875 -24.9375 C 11.113281 -26.113281 8.992188 -27.859375 7.109375 -30.171875 C 5.234375 -32.492188 4.296875 -35.492188 4.296875 -39.171875 C 4.296875 -42.191406 5.050781 -45.046875 6.5625 -47.734375 C 8.070312 -50.421875 10.390625 -52.628906 13.515625 -54.359375 C 16.640625 -56.085938 20.484375 -56.953125 25.046875 -56.953125 C 27.179688 -56.953125 29.5 -56.617188 32 -55.953125 C 34.5 -55.285156 36.597656 -54.363281 38.296875 -53.1875 L 38.40625 -53.1875 L 38.296875 -56.390625 L 46.6875 -56.390625 L 46.6875 -36.859375 L 39.515625 -36.859375 C 38.847656 -40.679688 37.148438 -43.695312 34.421875 -45.90625 C 31.703125 -48.113281 28.359375 -49.21875 24.390625 -49.21875 C 22.328125 -49.21875 20.597656 -48.738281 19.203125 -47.78125 C 17.804688 -46.820312 17.109375 -45.351562 17.109375 -43.375 C 17.109375 -41.3125 17.914062 -39.78125 19.53125 -38.78125 C 21.15625 -37.789062 23.878906 -36.671875 27.703125 -35.421875 C 28.140625 -35.347656 29.09375 -35.054688 30.5625 -34.546875 C 36.820312 -32.335938 41.625 -29.757812 44.96875 -26.8125 C 48.320312 -23.875 50 -20.015625 50 -15.234375 C 50 -11.554688 49.054688 -8.445312 47.171875 -5.90625 C 45.296875 -3.363281 42.832031 -1.445312 39.78125 -0.15625 C 36.726562 1.125 33.4375 1.765625 29.90625 1.765625 Z M 29.90625 1.765625 "/></g></g></g><g fill="#d4dae3" fill-opacity="1"><g transform="translate(518.488186, 546.53717)"><g><path d="M 31.5625 1.765625 C 26.1875 1.765625 21.363281 0.625 17.09375 -1.65625 C 12.832031 -3.9375 9.488281 -7.207031 7.0625 -11.46875 C 4.632812 -15.738281 3.421875 -20.707031 3.421875 -26.375 C 3.421875 -32.332031 4.671875 -37.628906 7.171875 -42.265625 C 9.671875 -46.898438 13.035156 -50.503906 17.265625 -53.078125 C 21.492188 -55.660156 26.148438 -56.953125 31.234375 -56.953125 C 36.523438 -56.953125 41.269531 -55.8125 45.46875 -53.53125 C 49.664062 -51.25 52.976562 -47.953125 55.40625 -43.640625 C 57.832031 -39.335938 59.046875 -34.316406 59.046875 -28.578125 C 59.046875 -22.472656 57.882812 -17.140625 55.5625 -12.578125 C 53.25 -8.015625 50.015625 -4.484375 45.859375 -1.984375 C 41.703125 0.515625 36.9375 1.765625 31.5625 1.765625 Z M 31.78125 -6.0625 C 35.832031 -6.0625 38.664062 -7.9375 40.28125 -11.6875 C 41.894531 -15.445312 42.703125 -20.160156 42.703125 -25.828125 C 42.703125 -32.148438 41.78125 -37.628906 39.9375 -42.265625 C 38.101562 -46.898438 35.203125 -49.21875 31.234375 -49.21875 C 27.179688 -49.21875 24.234375 -47.304688 22.390625 -43.484375 C 20.554688 -39.660156 19.640625 -34.953125 19.640625 -29.359375 C 19.640625 -22.953125 20.632812 -17.46875 22.625 -12.90625 C 24.613281 -8.34375 27.664062 -6.0625 31.78125 -6.0625 Z M 31.78125 -6.0625 "/></g></g></g><g fill="#d4dae3" fill-opacity="1"><g transform="translate(580.949706, 546.53717)"><g><path d="M 7.953125 -37.96875 C 7.140625 -40.25 6.546875 -41.992188 6.171875 -43.203125 C 5.804688 -44.421875 5.476562 -45.691406 5.1875 -47.015625 L 0.890625 -46.796875 L 0.890625 -55.1875 L 27.375 -55.1875 L 27.375 -48.109375 C 24.5 -48.035156 23.0625 -46.492188 23.0625 -43.484375 C 23.0625 -42.742188 23.285156 -41.421875 23.734375 -39.515625 L 27.484375 -26.046875 C 28.515625 -22.296875 29.285156 -18.800781 29.796875 -15.5625 L 29.90625 -15.5625 C 30.050781 -16.144531 30.34375 -17.539062 30.78125 -19.75 C 31.226562 -21.957031 31.894531 -24.535156 32.78125 -27.484375 L 40.828125 -55.1875 L 52.859375 -55.1875 L 61.6875 -24.71875 C 62.207031 -22.882812 63.09375 -19.570312 64.34375 -14.78125 L 64.453125 -14.78125 C 64.742188 -16.914062 65.585938 -20.117188 66.984375 -24.390625 L 71.296875 -38.40625 C 71.804688 -40.164062 72.316406 -41.765625 72.828125 -43.203125 C 73.347656 -44.640625 73.90625 -45.945312 74.5 -47.125 L 74.5 -47.234375 L 68.203125 -46.796875 L 68.203125 -55.1875 L 89.171875 -55.1875 L 89.171875 -48.109375 C 85.273438 -48.109375 81.960938 -44.140625 79.234375 -36.203125 L 66.65625 0.328125 L 54.953125 0.328125 L 47.34375 -23.171875 C 46.164062 -26.847656 44.878906 -31.375 43.484375 -36.75 L 43.375 -36.75 C 42.5625 -32.332031 40.867188 -26.039062 38.296875 -17.875 L 32.21875 0.328125 L 21.296875 0.328125 Z M 7.953125 -37.96875 "/></g></g></g><g fill="#d4dae3" fill-opacity="1"><g transform="translate(670.448464, 546.53717)"><g><path d="M 29.90625 1.765625 C 26.738281 1.765625 23.644531 1.359375 20.625 0.546875 C 17.613281 -0.253906 15.265625 -1.28125 13.578125 -2.53125 L 13.46875 -2.53125 L 13.796875 0.765625 L 5.40625 0.765625 L 4.96875 -18.203125 L 12.140625 -18.203125 C 12.503906 -14.816406 14.285156 -11.96875 17.484375 -9.65625 C 20.691406 -7.34375 24.613281 -6.1875 29.25 -6.1875 C 31.300781 -6.1875 33.082031 -6.660156 34.59375 -7.609375 C 36.101562 -8.566406 36.859375 -9.929688 36.859375 -11.703125 C 36.859375 -13.023438 36.378906 -14.125 35.421875 -15 C 34.460938 -15.882812 33.320312 -16.617188 32 -17.203125 C 30.675781 -17.796875 28.03125 -18.867188 24.0625 -20.421875 C 19.351562 -22.253906 15.820312 -23.757812 13.46875 -24.9375 C 11.113281 -26.113281 8.992188 -27.859375 7.109375 -30.171875 C 5.234375 -32.492188 4.296875 -35.492188 4.296875 -39.171875 C 4.296875 -42.191406 5.050781 -45.046875 6.5625 -47.734375 C 8.070312 -50.421875 10.390625 -52.628906 13.515625 -54.359375 C 16.640625 -56.085938 20.484375 -56.953125 25.046875 -56.953125 C 27.179688 -56.953125 29.5 -56.617188 32 -55.953125 C 34.5 -55.285156 36.597656 -54.363281 38.296875 -53.1875 L 38.40625 -53.1875 L 38.296875 -56.390625 L 46.6875 -56.390625 L 46.6875 -36.859375 L 39.515625 -36.859375 C 38.847656 -40.679688 37.148438 -43.695312 34.421875 -45.90625 C 31.703125 -48.113281 28.359375 -49.21875 24.390625 -49.21875 C 22.328125 -49.21875 20.597656 -48.738281 19.203125 -47.78125 C 17.804688 -46.820312 17.109375 -45.351562 17.109375 -43.375 C 17.109375 -41.3125 17.914062 -39.78125 19.53125 -38.78125 C 21.15625 -37.789062 23.878906 -36.671875 27.703125 -35.421875 C 28.140625 -35.347656 29.09375 -35.054688 30.5625 -34.546875 C 36.820312 -32.335938 41.625 -29.757812 44.96875 -26.8125 C 48.320312 -23.875 50 -20.015625 50 -15.234375 C 50 -11.554688 49.054688 -8.445312 47.171875 -5.90625 C 45.296875 -3.363281 42.832031 -1.445312 39.78125 -0.15625 C 36.726562 1.125 33.4375 1.765625 29.90625 1.765625 Z M 29.90625 1.765625 "/></g></g></g></svg>