<svg xmlns="http://www.w3.org/2000/svg" xmlns:xlink="http://www.w3.org/1999/xlink" width="200" zoomAndPan="magnify" viewBox="0 0 150 74.999997" height="100" preserveAspectRatio="xMidYMid meet" version="1.0"><defs><g/></defs><g fill="#00e0d8" fill-opacity="1"><g transform="translate(1.019534, 52.128019)"><g><path d="M 28.65625 -21.53125 C 27.789062 -23.8125 26.347656 -25.632812 24.328125 -27 C 22.316406 -28.363281 19.929688 -29.046875 17.171875 -29.046875 C 14.765625 -29.046875 12.585938 -28.476562 10.640625 -27.34375 C 8.703125 -26.21875 7.164062 -24.609375 6.03125 -22.515625 C 4.90625 -20.429688 4.34375 -18 4.34375 -15.21875 C 4.34375 -12.4375 4.90625 -10 6.03125 -7.90625 C 7.164062 -5.820312 8.703125 -4.222656 10.640625 -3.109375 C 12.585938 -1.992188 14.765625 -1.4375 17.171875 -1.4375 C 19.492188 -1.4375 21.597656 -1.957031 23.484375 -3 C 25.367188 -4.039062 26.875 -5.523438 28 -7.453125 C 29.132812 -9.378906 29.757812 -11.632812 29.875 -14.21875 L 16.265625 -14.21875 L 16.265625 -15.875 L 31.875 -15.875 L 31.875 -14.5625 C 31.789062 -11.726562 31.109375 -9.175781 29.828125 -6.90625 C 28.554688 -4.644531 26.816406 -2.878906 24.609375 -1.609375 C 22.410156 -0.335938 19.929688 0.296875 17.171875 0.296875 C 14.359375 0.296875 11.820312 -0.359375 9.5625 -1.671875 C 7.300781 -2.992188 5.53125 -4.832031 4.25 -7.1875 C 2.976562 -9.550781 2.34375 -12.226562 2.34375 -15.21875 C 2.34375 -18.226562 2.976562 -20.914062 4.25 -23.28125 C 5.53125 -25.644531 7.300781 -27.484375 9.5625 -28.796875 C 11.820312 -30.117188 14.359375 -30.78125 17.171875 -30.78125 C 20.453125 -30.78125 23.285156 -29.960938 25.671875 -28.328125 C 28.066406 -26.691406 29.816406 -24.425781 30.921875 -21.53125 Z M 28.65625 -21.53125 "/></g></g></g><g fill="#00e0d8" fill-opacity="1"><g transform="translate(35.235649, 52.128019)"><g><path d="M 24.828125 -13.390625 C 24.828125 -12.347656 24.800781 -11.566406 24.75 -11.046875 L 4.34375 -11.046875 C 4.40625 -8.929688 4.867188 -7.144531 5.734375 -5.6875 C 6.609375 -4.238281 7.753906 -3.148438 9.171875 -2.421875 C 10.597656 -1.703125 12.148438 -1.34375 13.828125 -1.34375 C 16.148438 -1.34375 18.09375 -1.914062 19.65625 -3.0625 C 21.21875 -4.207031 22.203125 -5.765625 22.609375 -7.734375 L 24.65625 -7.734375 C 24.1875 -5.328125 22.992188 -3.378906 21.078125 -1.890625 C 19.171875 -0.398438 16.753906 0.34375 13.828125 0.34375 C 11.617188 0.34375 9.644531 -0.144531 7.90625 -1.125 C 6.175781 -2.113281 4.816406 -3.523438 3.828125 -5.359375 C 2.835938 -7.203125 2.34375 -9.359375 2.34375 -11.828125 C 2.34375 -14.296875 2.828125 -16.441406 3.796875 -18.265625 C 4.773438 -20.085938 6.132812 -21.484375 7.875 -22.453125 C 9.613281 -23.429688 11.597656 -23.921875 13.828125 -23.921875 C 16.085938 -23.921875 18.050781 -23.429688 19.71875 -22.453125 C 21.382812 -21.484375 22.648438 -20.191406 23.515625 -18.578125 C 24.390625 -16.972656 24.828125 -15.242188 24.828125 -13.390625 Z M 22.875 -12.65625 C 22.957031 -14.738281 22.585938 -16.503906 21.765625 -17.953125 C 20.941406 -19.410156 19.816406 -20.492188 18.390625 -21.203125 C 16.972656 -21.910156 15.4375 -22.265625 13.78125 -22.265625 C 12.132812 -22.265625 10.609375 -21.910156 9.203125 -21.203125 C 7.796875 -20.492188 6.648438 -19.410156 5.765625 -17.953125 C 4.878906 -16.503906 4.40625 -14.738281 4.34375 -12.65625 Z M 22.875 -12.65625 "/></g></g></g><g fill="#00e0d8" fill-opacity="1"><g transform="translate(62.408544, 52.128019)"><g><path d="M 14.21875 -24.09375 C 17.03125 -24.09375 19.320312 -23.226562 21.09375 -21.5 C 22.863281 -19.78125 23.75 -17.222656 23.75 -13.828125 L 23.75 0 L 21.828125 0 L 21.828125 -13.703125 C 21.828125 -16.515625 21.113281 -18.664062 19.6875 -20.15625 C 18.269531 -21.644531 16.347656 -22.390625 13.921875 -22.390625 C 11.367188 -22.390625 9.328125 -21.578125 7.796875 -19.953125 C 6.273438 -18.335938 5.515625 -15.929688 5.515625 -12.734375 L 5.515625 0 L 3.5625 0 L 3.5625 -23.609375 L 5.515625 -23.609375 L 5.515625 -18.609375 C 6.179688 -20.378906 7.289062 -21.734375 8.84375 -22.671875 C 10.394531 -23.617188 12.1875 -24.09375 14.21875 -24.09375 Z M 14.21875 -24.09375 "/></g></g></g><g fill="#00e0d8" fill-opacity="1"><g transform="translate(89.494487, 52.128019)"><g><path d="M 22 -23.609375 L 8.265625 11.09375 L 6.265625 11.09375 L 10.65625 0 L 0.734375 -23.609375 L 2.875 -23.609375 L 11.734375 -2.171875 L 20 -23.609375 Z M 22 -23.609375 "/></g></g></g><g fill="#00e0d8" fill-opacity="1"><g transform="translate(112.276251, 52.128019)"><g><path d="M 11.4375 0.34375 C 8.800781 0.34375 6.648438 -0.234375 4.984375 -1.390625 C 3.316406 -2.546875 2.378906 -4.195312 2.171875 -6.34375 L 4.171875 -6.34375 C 4.316406 -4.8125 5.019531 -3.59375 6.28125 -2.6875 C 7.539062 -1.789062 9.257812 -1.34375 11.4375 -1.34375 C 13.226562 -1.34375 14.65625 -1.800781 15.71875 -2.71875 C 16.78125 -3.632812 17.3125 -4.757812 17.3125 -6.09375 C 17.3125 -7.019531 17.023438 -7.78125 16.453125 -8.375 C 15.890625 -8.96875 15.1875 -9.421875 14.34375 -9.734375 C 13.507812 -10.054688 12.367188 -10.40625 10.921875 -10.78125 C 9.179688 -11.25 7.773438 -11.707031 6.703125 -12.15625 C 5.628906 -12.601562 4.710938 -13.273438 3.953125 -14.171875 C 3.203125 -15.078125 2.828125 -16.28125 2.828125 -17.78125 C 2.828125 -18.882812 3.160156 -19.90625 3.828125 -20.84375 C 4.492188 -21.789062 5.421875 -22.539062 6.609375 -23.09375 C 7.796875 -23.644531 9.144531 -23.921875 10.65625 -23.921875 C 13.113281 -23.921875 15.101562 -23.300781 16.625 -22.0625 C 18.15625 -20.832031 18.976562 -19.128906 19.09375 -16.953125 L 17.140625 -16.953125 C 17.046875 -18.523438 16.429688 -19.800781 15.296875 -20.78125 C 14.171875 -21.769531 12.609375 -22.265625 10.609375 -22.265625 C 8.929688 -22.265625 7.539062 -21.828125 6.4375 -20.953125 C 5.332031 -20.085938 4.78125 -19.03125 4.78125 -17.78125 C 4.78125 -16.675781 5.09375 -15.785156 5.71875 -15.109375 C 6.34375 -14.429688 7.109375 -13.910156 8.015625 -13.546875 C 8.929688 -13.179688 10.144531 -12.796875 11.65625 -12.390625 C 13.300781 -11.953125 14.625 -11.523438 15.625 -11.109375 C 16.632812 -10.691406 17.484375 -10.082031 18.171875 -9.28125 C 18.867188 -8.488281 19.21875 -7.425781 19.21875 -6.09375 C 19.21875 -4.875 18.882812 -3.769531 18.21875 -2.78125 C 17.550781 -1.789062 16.625 -1.019531 15.4375 -0.46875 C 14.25 0.0703125 12.914062 0.34375 11.4375 0.34375 Z M 11.4375 0.34375 "/></g></g></g><g fill="#00e0d8" fill-opacity="1"><g transform="translate(133.884136, 52.128019)"><g><path d="M 6.484375 -21.921875 L 6.484375 -6.3125 C 6.484375 -4.570312 6.800781 -3.375 7.4375 -2.71875 C 8.070312 -2.0625 9.203125 -1.734375 10.828125 -1.734375 L 13.484375 -1.734375 L 13.484375 0 L 10.515625 0 C 8.460938 0 6.945312 -0.484375 5.96875 -1.453125 C 5 -2.421875 4.515625 -4.039062 4.515625 -6.3125 L 4.515625 -21.921875 L 0.953125 -21.921875 L 0.953125 -23.609375 L 4.515625 -23.609375 L 4.515625 -29.609375 L 6.484375 -29.609375 L 6.484375 -23.609375 L 13.484375 -23.609375 L 13.484375 -21.921875 Z M 6.484375 -21.921875 "/></g></g></g></svg>