<svg xmlns="http://www.w3.org/2000/svg" xmlns:xlink="http://www.w3.org/1999/xlink" width="200" zoomAndPan="magnify" viewBox="0 0 150 74.999997" height="100" preserveAspectRatio="xMidYMid meet" version="1.0"><defs><g/><clipPath id="078d3791a2"><path d="M 50.925781 3.320312 L 99.074219 3.320312 L 99.074219 51.472656 L 50.925781 51.472656 Z M 50.925781 3.320312 " clip-rule="nonzero"/></clipPath><clipPath id="5e22646e32"><path d="M 75 3.320312 C 61.703125 3.320312 50.925781 14.101562 50.925781 27.398438 C 50.925781 40.691406 61.703125 51.472656 75 51.472656 C 88.296875 51.472656 99.074219 40.691406 99.074219 27.398438 C 99.074219 14.101562 88.296875 3.320312 75 3.320312 Z M 75 3.320312 " clip-rule="nonzero"/></clipPath><radialGradient gradientTransform="matrix(1, 0, 0, 1, 50.924947, 3.321967)" gradientUnits="userSpaceOnUse" r="34.047264" cx="24.075052" id="dec0426bb3" cy="24.075052" fx="24.075052" fy="24.075052"><stop stop-opacity="1" stop-color="rgb(0%, 47.955322%, 78.025818%)" offset="0"/><stop stop-opacity="1" stop-color="rgb(0%, 48.190308%, 78.063965%)" offset="0.0078125"/><stop stop-opacity="1" stop-color="rgb(0%, 48.345947%, 78.089905%)" offset="0.0117188"/><stop stop-opacity="1" stop-color="rgb(0%, 48.501587%, 78.115845%)" offset="0.015625"/><stop stop-opacity="1" stop-color="rgb(0%, 48.658752%, 78.141785%)" offset="0.0195312"/><stop stop-opacity="1" stop-color="rgb(0%, 48.814392%, 78.16925%)" offset="0.0234375"/><stop stop-opacity="1" stop-color="rgb(0%, 48.971558%, 78.19519%)" offset="0.0273438"/><stop stop-opacity="1" stop-color="rgb(0%, 49.127197%, 78.22113%)" offset="0.03125"/><stop stop-opacity="1" stop-color="rgb(0%, 49.282837%, 78.24707%)" offset="0.0351562"/><stop stop-opacity="1" stop-color="rgb(0%, 49.440002%, 78.27301%)" offset="0.0390625"/><stop stop-opacity="1" stop-color="rgb(0%, 49.595642%, 78.29895%)" offset="0.0429688"/><stop stop-opacity="1" stop-color="rgb(0%, 49.752808%, 78.326416%)" offset="0.046875"/><stop stop-opacity="1" stop-color="rgb(0%, 49.908447%, 78.352356%)" offset="0.0507812"/><stop stop-opacity="1" stop-color="rgb(0%, 50.064087%, 78.378296%)" offset="0.0546875"/><stop stop-opacity="1" stop-color="rgb(0%, 50.221252%, 78.404236%)" offset="0.0585938"/><stop stop-opacity="1" stop-color="rgb(0%, 50.376892%, 78.430176%)" offset="0.0625"/><stop stop-opacity="1" stop-color="rgb(0%, 50.534058%, 78.456116%)" offset="0.0664062"/><stop stop-opacity="1" stop-color="rgb(0%, 50.689697%, 78.482056%)" offset="0.0703125"/><stop stop-opacity="1" stop-color="rgb(0%, 50.845337%, 78.509521%)" offset="0.0742188"/><stop stop-opacity="1" stop-color="rgb(0%, 51.002502%, 78.535461%)" offset="0.078125"/><stop stop-opacity="1" stop-color="rgb(0%, 51.158142%, 78.561401%)" offset="0.0820312"/><stop stop-opacity="1" stop-color="rgb(0%, 51.315308%, 78.587341%)" offset="0.0859375"/><stop stop-opacity="1" stop-color="rgb(0%, 51.470947%, 78.613281%)" offset="0.0898438"/><stop stop-opacity="1" stop-color="rgb(0%, 51.626587%, 78.639221%)" offset="0.09375"/><stop stop-opacity="1" stop-color="rgb(0%, 51.783752%, 78.666687%)" offset="0.0976562"/><stop stop-opacity="1" stop-color="rgb(0%, 51.939392%, 78.692627%)" offset="0.101562"/><stop stop-opacity="1" stop-color="rgb(0%, 52.096558%, 78.718567%)" offset="0.105469"/><stop stop-opacity="1" stop-color="rgb(0%, 52.252197%, 78.744507%)" offset="0.109375"/><stop stop-opacity="1" stop-color="rgb(0%, 52.407837%, 78.770447%)" offset="0.113281"/><stop stop-opacity="1" stop-color="rgb(0%, 52.565002%, 78.796387%)" offset="0.117188"/><stop stop-opacity="1" stop-color="rgb(0%, 52.720642%, 78.822327%)" offset="0.121094"/><stop stop-opacity="1" stop-color="rgb(0%, 52.877808%, 78.849792%)" offset="0.125"/><stop stop-opacity="1" stop-color="rgb(0%, 53.033447%, 78.875732%)" offset="0.128906"/><stop stop-opacity="1" stop-color="rgb(0%, 53.189087%, 78.901672%)" offset="0.132812"/><stop stop-opacity="1" stop-color="rgb(0%, 53.346252%, 78.927612%)" offset="0.136719"/><stop stop-opacity="1" stop-color="rgb(0%, 53.501892%, 78.953552%)" offset="0.140625"/><stop stop-opacity="1" stop-color="rgb(0%, 53.659058%, 78.979492%)" offset="0.144531"/><stop stop-opacity="1" stop-color="rgb(0%, 53.814697%, 79.006958%)" offset="0.148438"/><stop stop-opacity="1" stop-color="rgb(0%, 53.970337%, 79.032898%)" offset="0.152344"/><stop stop-opacity="1" stop-color="rgb(0%, 54.127502%, 79.058838%)" offset="0.15625"/><stop stop-opacity="1" stop-color="rgb(0%, 54.283142%, 79.084778%)" offset="0.160156"/><stop stop-opacity="1" stop-color="rgb(0%, 54.440308%, 79.110718%)" offset="0.164062"/><stop stop-opacity="1" stop-color="rgb(0%, 54.595947%, 79.136658%)" offset="0.167969"/><stop stop-opacity="1" stop-color="rgb(0%, 54.751587%, 79.162598%)" offset="0.171875"/><stop stop-opacity="1" stop-color="rgb(0%, 54.908752%, 79.190063%)" offset="0.175781"/><stop stop-opacity="1" stop-color="rgb(0%, 55.064392%, 79.216003%)" offset="0.179688"/><stop stop-opacity="1" stop-color="rgb(0%, 55.221558%, 79.241943%)" offset="0.183594"/><stop stop-opacity="1" stop-color="rgb(0%, 55.377197%, 79.267883%)" offset="0.1875"/><stop stop-opacity="1" stop-color="rgb(0%, 55.532837%, 79.293823%)" offset="0.191406"/><stop stop-opacity="1" stop-color="rgb(0%, 55.690002%, 79.319763%)" offset="0.195312"/><stop stop-opacity="1" stop-color="rgb(0%, 55.845642%, 79.345703%)" offset="0.199219"/><stop stop-opacity="1" stop-color="rgb(0%, 56.002808%, 79.373169%)" offset="0.203125"/><stop stop-opacity="1" stop-color="rgb(0%, 56.158447%, 79.399109%)" offset="0.207031"/><stop stop-opacity="1" stop-color="rgb(0%, 56.314087%, 79.425049%)" offset="0.210938"/><stop stop-opacity="1" stop-color="rgb(0%, 56.471252%, 79.450989%)" offset="0.214844"/><stop stop-opacity="1" stop-color="rgb(0%, 56.626892%, 79.476929%)" offset="0.21875"/><stop stop-opacity="1" stop-color="rgb(0%, 56.784058%, 79.502869%)" offset="0.222656"/><stop stop-opacity="1" stop-color="rgb(0%, 56.939697%, 79.530334%)" offset="0.226562"/><stop stop-opacity="1" stop-color="rgb(0%, 57.095337%, 79.556274%)" offset="0.230469"/><stop stop-opacity="1" stop-color="rgb(0%, 57.252502%, 79.582214%)" offset="0.234375"/><stop stop-opacity="1" stop-color="rgb(0%, 57.408142%, 79.608154%)" offset="0.238281"/><stop stop-opacity="1" stop-color="rgb(0%, 57.565308%, 79.634094%)" offset="0.242188"/><stop stop-opacity="1" stop-color="rgb(0%, 57.720947%, 79.660034%)" offset="0.246094"/><stop stop-opacity="1" stop-color="rgb(0%, 57.876587%, 79.685974%)" offset="0.25"/><stop stop-opacity="1" stop-color="rgb(0%, 58.111572%, 79.725647%)" offset="0.253906"/><stop stop-opacity="1" stop-color="rgb(0%, 58.424377%, 79.779053%)" offset="0.261719"/><stop stop-opacity="1" stop-color="rgb(0%, 58.735657%, 79.830933%)" offset="0.269531"/><stop stop-opacity="1" stop-color="rgb(0%, 59.048462%, 79.882812%)" offset="0.277344"/><stop stop-opacity="1" stop-color="rgb(0%, 59.361267%, 79.936218%)" offset="0.285156"/><stop stop-opacity="1" stop-color="rgb(0%, 59.674072%, 79.988098%)" offset="0.292969"/><stop stop-opacity="1" stop-color="rgb(0%, 59.986877%, 80.039978%)" offset="0.300781"/><stop stop-opacity="1" stop-color="rgb(0%, 60.298157%, 80.093384%)" offset="0.308594"/><stop stop-opacity="1" stop-color="rgb(0%, 60.610962%, 80.145264%)" offset="0.316406"/><stop stop-opacity="1" stop-color="rgb(0%, 60.923767%, 80.197144%)" offset="0.324219"/><stop stop-opacity="1" stop-color="rgb(0%, 61.236572%, 80.250549%)" offset="0.332031"/><stop stop-opacity="1" stop-color="rgb(0%, 61.549377%, 80.302429%)" offset="0.339844"/><stop stop-opacity="1" stop-color="rgb(0%, 61.860657%, 80.354309%)" offset="0.347656"/><stop stop-opacity="1" stop-color="rgb(0%, 62.173462%, 80.406189%)" offset="0.355469"/><stop stop-opacity="1" stop-color="rgb(0%, 62.486267%, 80.459595%)" offset="0.363281"/><stop stop-opacity="1" stop-color="rgb(0%, 62.799072%, 80.511475%)" offset="0.371094"/><stop stop-opacity="1" stop-color="rgb(0%, 63.111877%, 80.563354%)" offset="0.378906"/><stop stop-opacity="1" stop-color="rgb(0%, 63.423157%, 80.61676%)" offset="0.386719"/><stop stop-opacity="1" stop-color="rgb(0%, 63.735962%, 80.66864%)" offset="0.394531"/><stop stop-opacity="1" stop-color="rgb(0%, 64.048767%, 80.72052%)" offset="0.402344"/><stop stop-opacity="1" stop-color="rgb(0%, 64.361572%, 80.773926%)" offset="0.410156"/><stop stop-opacity="1" stop-color="rgb(0%, 64.674377%, 80.825806%)" offset="0.417969"/><stop stop-opacity="1" stop-color="rgb(0%, 64.985657%, 80.877686%)" offset="0.425781"/><stop stop-opacity="1" stop-color="rgb(0%, 65.298462%, 80.929565%)" offset="0.433594"/><stop stop-opacity="1" stop-color="rgb(0%, 65.611267%, 80.982971%)" offset="0.441406"/><stop stop-opacity="1" stop-color="rgb(0%, 65.924072%, 81.034851%)" offset="0.449219"/><stop stop-opacity="1" stop-color="rgb(0%, 66.236877%, 81.086731%)" offset="0.457031"/><stop stop-opacity="1" stop-color="rgb(0%, 66.548157%, 81.140137%)" offset="0.464844"/><stop stop-opacity="1" stop-color="rgb(0%, 66.860962%, 81.192017%)" offset="0.472656"/><stop stop-opacity="1" stop-color="rgb(0%, 67.173767%, 81.243896%)" offset="0.480469"/><stop stop-opacity="1" stop-color="rgb(0%, 67.486572%, 81.297302%)" offset="0.488281"/><stop stop-opacity="1" stop-color="rgb(0%, 67.799377%, 81.349182%)" offset="0.496094"/><stop stop-opacity="1" stop-color="rgb(0%, 68.032837%, 81.387329%)" offset="0.503906"/><stop stop-opacity="1" stop-color="rgb(0%, 68.190002%, 81.413269%)" offset="0.507812"/><stop stop-opacity="1" stop-color="rgb(0%, 68.345642%, 81.440735%)" offset="0.511719"/><stop stop-opacity="1" stop-color="rgb(0%, 68.502808%, 81.466675%)" offset="0.515625"/><stop stop-opacity="1" stop-color="rgb(0%, 68.658447%, 81.492615%)" offset="0.519531"/><stop stop-opacity="1" stop-color="rgb(0%, 68.814087%, 81.518555%)" offset="0.523438"/><stop stop-opacity="1" stop-color="rgb(0%, 68.971252%, 81.544495%)" offset="0.527344"/><stop stop-opacity="1" stop-color="rgb(0%, 69.126892%, 81.570435%)" offset="0.53125"/><stop stop-opacity="1" stop-color="rgb(0%, 69.284058%, 81.5979%)" offset="0.535156"/><stop stop-opacity="1" stop-color="rgb(0%, 69.439697%, 81.62384%)" offset="0.539062"/><stop stop-opacity="1" stop-color="rgb(0%, 69.595337%, 81.64978%)" offset="0.542969"/><stop stop-opacity="1" stop-color="rgb(0%, 69.752502%, 81.67572%)" offset="0.546875"/><stop stop-opacity="1" stop-color="rgb(0%, 69.908142%, 81.70166%)" offset="0.550781"/><stop stop-opacity="1" stop-color="rgb(0%, 70.065308%, 81.7276%)" offset="0.554688"/><stop stop-opacity="1" stop-color="rgb(0%, 70.220947%, 81.75354%)" offset="0.558594"/><stop stop-opacity="1" stop-color="rgb(0%, 70.376587%, 81.781006%)" offset="0.5625"/><stop stop-opacity="1" stop-color="rgb(0%, 70.533752%, 81.806946%)" offset="0.566406"/><stop stop-opacity="1" stop-color="rgb(0%, 70.689392%, 81.832886%)" offset="0.570312"/><stop stop-opacity="1" stop-color="rgb(0%, 70.846558%, 81.858826%)" offset="0.574219"/><stop stop-opacity="1" stop-color="rgb(0%, 71.002197%, 81.884766%)" offset="0.578125"/><stop stop-opacity="1" stop-color="rgb(0%, 71.157837%, 81.910706%)" offset="0.582031"/><stop stop-opacity="1" stop-color="rgb(0%, 71.315002%, 81.938171%)" offset="0.585938"/><stop stop-opacity="1" stop-color="rgb(0%, 71.470642%, 81.964111%)" offset="0.589844"/><stop stop-opacity="1" stop-color="rgb(0%, 71.627808%, 81.990051%)" offset="0.59375"/><stop stop-opacity="1" stop-color="rgb(0%, 71.783447%, 82.015991%)" offset="0.597656"/><stop stop-opacity="1" stop-color="rgb(0%, 71.939087%, 82.041931%)" offset="0.601562"/><stop stop-opacity="1" stop-color="rgb(0%, 72.096252%, 82.067871%)" offset="0.605469"/><stop stop-opacity="1" stop-color="rgb(0%, 72.251892%, 82.093811%)" offset="0.609375"/><stop stop-opacity="1" stop-color="rgb(0%, 72.409058%, 82.121277%)" offset="0.613281"/><stop stop-opacity="1" stop-color="rgb(0%, 72.564697%, 82.147217%)" offset="0.617188"/><stop stop-opacity="1" stop-color="rgb(0%, 72.720337%, 82.173157%)" offset="0.621094"/><stop stop-opacity="1" stop-color="rgb(0%, 72.877502%, 82.199097%)" offset="0.625"/><stop stop-opacity="1" stop-color="rgb(0%, 73.110962%, 82.23877%)" offset="0.628906"/><stop stop-opacity="1" stop-color="rgb(0%, 73.423767%, 82.290649%)" offset="0.636719"/><stop stop-opacity="1" stop-color="rgb(0%, 73.736572%, 82.344055%)" offset="0.644531"/><stop stop-opacity="1" stop-color="rgb(0%, 74.049377%, 82.395935%)" offset="0.652344"/><stop stop-opacity="1" stop-color="rgb(0%, 74.360657%, 82.447815%)" offset="0.660156"/><stop stop-opacity="1" stop-color="rgb(0%, 74.673462%, 82.501221%)" offset="0.667969"/><stop stop-opacity="1" stop-color="rgb(0%, 74.986267%, 82.553101%)" offset="0.675781"/><stop stop-opacity="1" stop-color="rgb(0%, 75.299072%, 82.60498%)" offset="0.683594"/><stop stop-opacity="1" stop-color="rgb(0%, 75.611877%, 82.65686%)" offset="0.691406"/><stop stop-opacity="1" stop-color="rgb(0%, 75.923157%, 82.710266%)" offset="0.699219"/><stop stop-opacity="1" stop-color="rgb(0%, 76.235962%, 82.762146%)" offset="0.707031"/><stop stop-opacity="1" stop-color="rgb(0%, 76.548767%, 82.814026%)" offset="0.714844"/><stop stop-opacity="1" stop-color="rgb(0%, 76.861572%, 82.867432%)" offset="0.722656"/><stop stop-opacity="1" stop-color="rgb(0%, 77.174377%, 82.919312%)" offset="0.730469"/><stop stop-opacity="1" stop-color="rgb(0%, 77.485657%, 82.971191%)" offset="0.738281"/><stop stop-opacity="1" stop-color="rgb(0%, 77.798462%, 83.024597%)" offset="0.746094"/><stop stop-opacity="1" stop-color="rgb(0%, 78.033447%, 83.062744%)" offset="0.753906"/><stop stop-opacity="1" stop-color="rgb(0%, 78.189087%, 83.088684%)" offset="0.757812"/><stop stop-opacity="1" stop-color="rgb(0%, 78.346252%, 83.114624%)" offset="0.761719"/><stop stop-opacity="1" stop-color="rgb(0%, 78.501892%, 83.14209%)" offset="0.765625"/><stop stop-opacity="1" stop-color="rgb(0%, 78.659058%, 83.16803%)" offset="0.769531"/><stop stop-opacity="1" stop-color="rgb(0%, 78.814697%, 83.19397%)" offset="0.773438"/><stop stop-opacity="1" stop-color="rgb(0%, 78.970337%, 83.21991%)" offset="0.777344"/><stop stop-opacity="1" stop-color="rgb(0%, 79.127502%, 83.24585%)" offset="0.78125"/><stop stop-opacity="1" stop-color="rgb(0%, 79.283142%, 83.27179%)" offset="0.785156"/><stop stop-opacity="1" stop-color="rgb(0%, 79.440308%, 83.297729%)" offset="0.789062"/><stop stop-opacity="1" stop-color="rgb(0%, 79.595947%, 83.325195%)" offset="0.792969"/><stop stop-opacity="1" stop-color="rgb(0%, 79.751587%, 83.351135%)" offset="0.796875"/><stop stop-opacity="1" stop-color="rgb(0%, 79.908752%, 83.377075%)" offset="0.800781"/><stop stop-opacity="1" stop-color="rgb(0%, 80.064392%, 83.403015%)" offset="0.804688"/><stop stop-opacity="1" stop-color="rgb(0%, 80.221558%, 83.428955%)" offset="0.808594"/><stop stop-opacity="1" stop-color="rgb(0%, 80.377197%, 83.454895%)" offset="0.8125"/><stop stop-opacity="1" stop-color="rgb(0%, 80.610657%, 83.494568%)" offset="0.816406"/><stop stop-opacity="1" stop-color="rgb(0%, 80.923462%, 83.547974%)" offset="0.824219"/><stop stop-opacity="1" stop-color="rgb(0%, 81.236267%, 83.599854%)" offset="0.832031"/><stop stop-opacity="1" stop-color="rgb(0%, 81.549072%, 83.651733%)" offset="0.839844"/><stop stop-opacity="1" stop-color="rgb(0%, 81.861877%, 83.705139%)" offset="0.847656"/><stop stop-opacity="1" stop-color="rgb(0%, 82.173157%, 83.757019%)" offset="0.855469"/><stop stop-opacity="1" stop-color="rgb(0%, 82.485962%, 83.808899%)" offset="0.863281"/><stop stop-opacity="1" stop-color="rgb(0%, 82.798767%, 83.860779%)" offset="0.871094"/><stop stop-opacity="1" stop-color="rgb(0%, 83.033752%, 83.900452%)" offset="0.878906"/><stop stop-opacity="1" stop-color="rgb(0%, 83.189392%, 83.926392%)" offset="0.882812"/><stop stop-opacity="1" stop-color="rgb(0%, 83.346558%, 83.952332%)" offset="0.886719"/><stop stop-opacity="1" stop-color="rgb(0%, 83.502197%, 83.978271%)" offset="0.890625"/><stop stop-opacity="1" stop-color="rgb(0%, 83.657837%, 84.005737%)" offset="0.894531"/><stop stop-opacity="1" stop-color="rgb(0%, 83.815002%, 84.031677%)" offset="0.898438"/><stop stop-opacity="1" stop-color="rgb(0%, 83.970642%, 84.057617%)" offset="0.902344"/><stop stop-opacity="1" stop-color="rgb(0%, 84.127808%, 84.083557%)" offset="0.90625"/><stop stop-opacity="1" stop-color="rgb(0%, 84.361267%, 84.12323%)" offset="0.910156"/><stop stop-opacity="1" stop-color="rgb(0%, 84.674072%, 84.17511%)" offset="0.917969"/><stop stop-opacity="1" stop-color="rgb(0%, 84.986877%, 84.228516%)" offset="0.925781"/><stop stop-opacity="1" stop-color="rgb(0%, 85.298157%, 84.280396%)" offset="0.933594"/><stop stop-opacity="1" stop-color="rgb(0%, 85.533142%, 84.318542%)" offset="0.941406"/><stop stop-opacity="1" stop-color="rgb(0%, 85.690308%, 84.346008%)" offset="0.945312"/><stop stop-opacity="1" stop-color="rgb(0%, 85.845947%, 84.371948%)" offset="0.949219"/><stop stop-opacity="1" stop-color="rgb(0%, 86.001587%, 84.397888%)" offset="0.953125"/><stop stop-opacity="1" stop-color="rgb(0%, 86.236572%, 84.437561%)" offset="0.957031"/><stop stop-opacity="1" stop-color="rgb(0%, 86.549377%, 84.489441%)" offset="0.964844"/><stop stop-opacity="1" stop-color="rgb(0%, 86.782837%, 84.529114%)" offset="0.972656"/><stop stop-opacity="1" stop-color="rgb(0%, 86.940002%, 84.555054%)" offset="0.976562"/><stop stop-opacity="1" stop-color="rgb(0%, 87.173462%, 84.594727%)" offset="0.980469"/><stop stop-opacity="1" stop-color="rgb(0%, 87.408447%, 84.632874%)" offset="0.988281"/><stop stop-opacity="1" stop-color="rgb(0%, 87.641907%, 84.672546%)" offset="0.992188"/><stop stop-opacity="1" stop-color="rgb(0%, 87.799072%, 84.698486%)" offset="1"/></radialGradient><clipPath id="5a793821be"><path d="M 63.757812 16.152344 L 86.242188 16.152344 L 86.242188 38.640625 L 63.757812 38.640625 Z M 63.757812 16.152344 " clip-rule="nonzero"/></clipPath><clipPath id="ee7b50da85"><path d="M 75 16.152344 C 68.789062 16.152344 63.757812 21.1875 63.757812 27.398438 C 63.757812 33.605469 68.789062 38.640625 75 38.640625 C 81.210938 38.640625 86.242188 33.605469 86.242188 27.398438 C 86.242188 21.1875 81.210938 16.152344 75 16.152344 Z M 75 16.152344 " clip-rule="nonzero"/></clipPath></defs><g clip-path="url(#078d3791a2)"><g clip-path="url(#5e22646e32)"><path fill="url(#dec0426bb3)" d="M 50.925781 3.320312 L 50.925781 51.472656 L 99.074219 51.472656 L 99.074219 3.320312 Z M 50.925781 3.320312 " fill-rule="nonzero"/></g></g><g clip-path="url(#5a793821be)"><g clip-path="url(#ee7b50da85)"><path fill="#ffffff" d="M 63.757812 16.152344 L 86.242188 16.152344 L 86.242188 38.640625 L 63.757812 38.640625 Z M 63.757812 16.152344 " fill-opacity="1" fill-rule="nonzero"/></g></g><g fill="#ffffff" fill-opacity="1"><g transform="translate(50.686807, 70.678997)"><g><path d="M 4.90625 0.265625 C 4.132812 0.265625 3.425781 0.0820312 2.78125 -0.28125 C 2.132812 -0.644531 1.625 -1.148438 1.25 -1.796875 C 0.875 -2.441406 0.6875 -3.175781 0.6875 -4 C 0.6875 -4.863281 0.867188 -5.648438 1.234375 -6.359375 C 1.609375 -7.078125 2.113281 -7.640625 2.75 -8.046875 C 3.394531 -8.453125 4.113281 -8.65625 4.90625 -8.65625 C 5.675781 -8.65625 6.382812 -8.46875 7.03125 -8.09375 C 7.675781 -7.71875 8.1875 -7.207031 8.5625 -6.5625 C 8.9375 -5.914062 9.125 -5.191406 9.125 -4.390625 C 9.125 -3.546875 8.9375 -2.765625 8.5625 -2.046875 C 8.1875 -1.328125 7.675781 -0.757812 7.03125 -0.34375 C 6.394531 0.0625 5.6875 0.265625 4.90625 0.265625 Z M 5.03125 -0.40625 C 5.851562 -0.40625 6.457031 -0.738281 6.84375 -1.40625 C 7.226562 -2.082031 7.421875 -2.914062 7.421875 -3.90625 C 7.421875 -5.039062 7.207031 -6.007812 6.78125 -6.8125 C 6.363281 -7.613281 5.738281 -8.015625 4.90625 -8.015625 C 4.070312 -8.015625 3.445312 -7.671875 3.03125 -6.984375 C 2.613281 -6.304688 2.40625 -5.472656 2.40625 -4.484375 C 2.40625 -3.765625 2.5 -3.09375 2.6875 -2.46875 C 2.882812 -1.851562 3.179688 -1.351562 3.578125 -0.96875 C 3.972656 -0.59375 4.457031 -0.40625 5.03125 -0.40625 Z M 5.03125 -0.40625 "/></g></g></g><g fill="#ffffff" fill-opacity="1"><g transform="translate(60.50388, 70.678997)"><g><path d="M 4.171875 0.265625 C 3.648438 0.265625 3.171875 0.191406 2.734375 0.046875 C 2.296875 -0.0859375 1.921875 -0.257812 1.609375 -0.46875 L 1.671875 0.125 L 0.96875 0.125 L 0.875 -2.765625 L 1.390625 -2.765625 C 1.410156 -2.304688 1.535156 -1.894531 1.765625 -1.53125 C 1.992188 -1.175781 2.296875 -0.894531 2.671875 -0.6875 C 3.046875 -0.488281 3.445312 -0.390625 3.875 -0.390625 C 4.351562 -0.390625 4.78125 -0.503906 5.15625 -0.734375 C 5.53125 -0.960938 5.71875 -1.289062 5.71875 -1.71875 C 5.71875 -2.03125 5.625 -2.289062 5.4375 -2.5 C 5.257812 -2.707031 5.03125 -2.878906 4.75 -3.015625 C 4.476562 -3.160156 4.097656 -3.332031 3.609375 -3.53125 C 3.015625 -3.75 2.535156 -3.957031 2.171875 -4.15625 C 1.816406 -4.351562 1.507812 -4.617188 1.25 -4.953125 C 1 -5.285156 0.875 -5.707031 0.875 -6.21875 C 0.875 -6.59375 0.960938 -6.960938 1.140625 -7.328125 C 1.316406 -7.703125 1.617188 -8.015625 2.046875 -8.265625 C 2.472656 -8.523438 3.039062 -8.65625 3.75 -8.65625 C 4.09375 -8.65625 4.445312 -8.597656 4.8125 -8.484375 C 5.175781 -8.378906 5.515625 -8.195312 5.828125 -7.9375 L 5.796875 -8.578125 L 6.5 -8.578125 L 6.5 -5.640625 L 5.953125 -5.640625 C 5.921875 -6.285156 5.722656 -6.84375 5.359375 -7.3125 C 4.992188 -7.789062 4.484375 -8.03125 3.828125 -8.03125 C 3.328125 -8.03125 2.925781 -7.90625 2.625 -7.65625 C 2.332031 -7.40625 2.1875 -7.109375 2.1875 -6.765625 C 2.1875 -6.441406 2.28125 -6.164062 2.46875 -5.9375 C 2.664062 -5.71875 2.910156 -5.53125 3.203125 -5.375 C 3.492188 -5.21875 3.882812 -5.039062 4.375 -4.84375 C 4.957031 -4.613281 5.425781 -4.394531 5.78125 -4.1875 C 6.144531 -3.988281 6.453125 -3.722656 6.703125 -3.390625 C 6.953125 -3.066406 7.078125 -2.671875 7.078125 -2.203125 C 7.078125 -1.660156 6.941406 -1.203125 6.671875 -0.828125 C 6.398438 -0.460938 6.039062 -0.1875 5.59375 0 C 5.15625 0.175781 4.679688 0.265625 4.171875 0.265625 Z M 4.171875 0.265625 "/></g></g></g><g fill="#ffffff" fill-opacity="1"><g transform="translate(68.27364, 70.678997)"><g><path d="M 4.90625 0.265625 C 4.132812 0.265625 3.425781 0.0820312 2.78125 -0.28125 C 2.132812 -0.644531 1.625 -1.148438 1.25 -1.796875 C 0.875 -2.441406 0.6875 -3.175781 0.6875 -4 C 0.6875 -4.863281 0.867188 -5.648438 1.234375 -6.359375 C 1.609375 -7.078125 2.113281 -7.640625 2.75 -8.046875 C 3.394531 -8.453125 4.113281 -8.65625 4.90625 -8.65625 C 5.675781 -8.65625 6.382812 -8.46875 7.03125 -8.09375 C 7.675781 -7.71875 8.1875 -7.207031 8.5625 -6.5625 C 8.9375 -5.914062 9.125 -5.191406 9.125 -4.390625 C 9.125 -3.546875 8.9375 -2.765625 8.5625 -2.046875 C 8.1875 -1.328125 7.675781 -0.757812 7.03125 -0.34375 C 6.394531 0.0625 5.6875 0.265625 4.90625 0.265625 Z M 5.03125 -0.40625 C 5.851562 -0.40625 6.457031 -0.738281 6.84375 -1.40625 C 7.226562 -2.082031 7.421875 -2.914062 7.421875 -3.90625 C 7.421875 -5.039062 7.207031 -6.007812 6.78125 -6.8125 C 6.363281 -7.613281 5.738281 -8.015625 4.90625 -8.015625 C 4.070312 -8.015625 3.445312 -7.671875 3.03125 -6.984375 C 2.613281 -6.304688 2.40625 -5.472656 2.40625 -4.484375 C 2.40625 -3.765625 2.5 -3.09375 2.6875 -2.46875 C 2.882812 -1.851562 3.179688 -1.351562 3.578125 -0.96875 C 3.972656 -0.59375 4.457031 -0.40625 5.03125 -0.40625 Z M 5.03125 -0.40625 "/></g></g></g><g fill="#ffffff" fill-opacity="1"><g transform="translate(78.090713, 70.678997)"><g><path d="M 1.421875 -6.390625 C 1.210938 -6.992188 1.066406 -7.445312 0.984375 -7.75 L 0.09375 -7.703125 L 0.09375 -8.390625 L 3.65625 -8.390625 L 3.65625 -7.890625 C 3.082031 -7.878906 2.796875 -7.617188 2.796875 -7.109375 C 2.796875 -6.859375 2.867188 -6.515625 3.015625 -6.078125 L 4.328125 -2.09375 L 4.828125 -3.59375 C 5.523438 -5.625 6.0625 -7.222656 6.4375 -8.390625 L 7.125 -8.390625 L 9.359375 -1.984375 L 10.96875 -6.625 C 11.164062 -7.195312 11.335938 -7.570312 11.484375 -7.75 L 10.5 -7.703125 L 10.5 -8.390625 L 13.421875 -8.390625 L 13.421875 -7.890625 C 13.054688 -7.867188 12.765625 -7.800781 12.546875 -7.6875 C 12.335938 -7.582031 12.175781 -7.441406 12.0625 -7.265625 C 11.945312 -7.097656 11.835938 -6.863281 11.734375 -6.5625 L 9.3125 0.046875 L 8.640625 0.046875 L 6.4375 -6.296875 L 4.265625 0.046875 L 3.625 0.046875 Z M 1.421875 -6.390625 "/></g></g></g><g fill="#ffffff" fill-opacity="1"><g transform="translate(91.532553, 70.678997)"><g><path d="M 4.171875 0.265625 C 3.648438 0.265625 3.171875 0.191406 2.734375 0.046875 C 2.296875 -0.0859375 1.921875 -0.257812 1.609375 -0.46875 L 1.671875 0.125 L 0.96875 0.125 L 0.875 -2.765625 L 1.390625 -2.765625 C 1.410156 -2.304688 1.535156 -1.894531 1.765625 -1.53125 C 1.992188 -1.175781 2.296875 -0.894531 2.671875 -0.6875 C 3.046875 -0.488281 3.445312 -0.390625 3.875 -0.390625 C 4.351562 -0.390625 4.78125 -0.503906 5.15625 -0.734375 C 5.53125 -0.960938 5.71875 -1.289062 5.71875 -1.71875 C 5.71875 -2.03125 5.625 -2.289062 5.4375 -2.5 C 5.257812 -2.707031 5.03125 -2.878906 4.75 -3.015625 C 4.476562 -3.160156 4.097656 -3.332031 3.609375 -3.53125 C 3.015625 -3.75 2.535156 -3.957031 2.171875 -4.15625 C 1.816406 -4.351562 1.507812 -4.617188 1.25 -4.953125 C 1 -5.285156 0.875 -5.707031 0.875 -6.21875 C 0.875 -6.59375 0.960938 -6.960938 1.140625 -7.328125 C 1.316406 -7.703125 1.617188 -8.015625 2.046875 -8.265625 C 2.472656 -8.523438 3.039062 -8.65625 3.75 -8.65625 C 4.09375 -8.65625 4.445312 -8.597656 4.8125 -8.484375 C 5.175781 -8.378906 5.515625 -8.195312 5.828125 -7.9375 L 5.796875 -8.578125 L 6.5 -8.578125 L 6.5 -5.640625 L 5.953125 -5.640625 C 5.921875 -6.285156 5.722656 -6.84375 5.359375 -7.3125 C 4.992188 -7.789062 4.484375 -8.03125 3.828125 -8.03125 C 3.328125 -8.03125 2.925781 -7.90625 2.625 -7.65625 C 2.332031 -7.40625 2.1875 -7.109375 2.1875 -6.765625 C 2.1875 -6.441406 2.28125 -6.164062 2.46875 -5.9375 C 2.664062 -5.71875 2.910156 -5.53125 3.203125 -5.375 C 3.492188 -5.21875 3.882812 -5.039062 4.375 -4.84375 C 4.957031 -4.613281 5.425781 -4.394531 5.78125 -4.1875 C 6.144531 -3.988281 6.453125 -3.722656 6.703125 -3.390625 C 6.953125 -3.066406 7.078125 -2.671875 7.078125 -2.203125 C 7.078125 -1.660156 6.941406 -1.203125 6.671875 -0.828125 C 6.398438 -0.460938 6.039062 -0.1875 5.59375 0 C 5.15625 0.175781 4.679688 0.265625 4.171875 0.265625 Z M 4.171875 0.265625 "/></g></g></g></svg>