<svg xmlns="http://www.w3.org/2000/svg" xmlns:xlink="http://www.w3.org/1999/xlink" width="200" zoomAndPan="magnify" viewBox="0 0 150 74.999997" height="100" preserveAspectRatio="xMidYMid meet" version="1.0"><defs><g/><clipPath id="1daa35fb6d"><path d="M 20.753906 1.777344 L 92.199219 1.777344 L 92.199219 73.222656 L 20.753906 73.222656 Z M 20.753906 1.777344 " clip-rule="nonzero"/></clipPath><clipPath id="2dffa57543"><path d="M 56.476562 1.777344 C 36.746094 1.777344 20.753906 17.769531 20.753906 37.5 C 20.753906 57.230469 36.746094 73.222656 56.476562 73.222656 C 76.203125 73.222656 92.199219 57.230469 92.199219 37.5 C 92.199219 17.769531 76.203125 1.777344 56.476562 1.777344 Z M 56.476562 1.777344 " clip-rule="nonzero"/></clipPath><radialGradient gradientTransform="matrix(1, 0, 0, 1, 20.754189, 1.77793)" gradientUnits="userSpaceOnUse" r="50.518635" cx="35.722071" id="27b9cec779" cy="35.722071" fx="35.722071" fy="35.722071"><stop stop-opacity="1" stop-color="rgb(0%, 47.955322%, 78.025818%)" offset="0"/><stop stop-opacity="1" stop-color="rgb(0%, 48.190308%, 78.063965%)" offset="0.0078125"/><stop stop-opacity="1" stop-color="rgb(0%, 48.345947%, 78.089905%)" offset="0.0117188"/><stop stop-opacity="1" stop-color="rgb(0%, 48.501587%, 78.115845%)" offset="0.015625"/><stop stop-opacity="1" stop-color="rgb(0%, 48.658752%, 78.141785%)" offset="0.0195312"/><stop stop-opacity="1" stop-color="rgb(0%, 48.814392%, 78.16925%)" offset="0.0234375"/><stop stop-opacity="1" stop-color="rgb(0%, 48.971558%, 78.19519%)" offset="0.0273438"/><stop stop-opacity="1" stop-color="rgb(0%, 49.127197%, 78.22113%)" offset="0.03125"/><stop stop-opacity="1" stop-color="rgb(0%, 49.282837%, 78.24707%)" offset="0.0351562"/><stop stop-opacity="1" stop-color="rgb(0%, 49.440002%, 78.27301%)" offset="0.0390625"/><stop stop-opacity="1" stop-color="rgb(0%, 49.595642%, 78.29895%)" offset="0.0429688"/><stop stop-opacity="1" stop-color="rgb(0%, 49.752808%, 78.326416%)" offset="0.046875"/><stop stop-opacity="1" stop-color="rgb(0%, 49.908447%, 78.352356%)" offset="0.0507812"/><stop stop-opacity="1" stop-color="rgb(0%, 50.064087%, 78.378296%)" offset="0.0546875"/><stop stop-opacity="1" stop-color="rgb(0%, 50.221252%, 78.404236%)" offset="0.0585938"/><stop stop-opacity="1" stop-color="rgb(0%, 50.376892%, 78.430176%)" offset="0.0625"/><stop stop-opacity="1" stop-color="rgb(0%, 50.534058%, 78.456116%)" offset="0.0664062"/><stop stop-opacity="1" stop-color="rgb(0%, 50.689697%, 78.482056%)" offset="0.0703125"/><stop stop-opacity="1" stop-color="rgb(0%, 50.845337%, 78.509521%)" offset="0.0742188"/><stop stop-opacity="1" stop-color="rgb(0%, 51.002502%, 78.535461%)" offset="0.078125"/><stop stop-opacity="1" stop-color="rgb(0%, 51.158142%, 78.561401%)" offset="0.0820312"/><stop stop-opacity="1" stop-color="rgb(0%, 51.315308%, 78.587341%)" offset="0.0859375"/><stop stop-opacity="1" stop-color="rgb(0%, 51.470947%, 78.613281%)" offset="0.0898438"/><stop stop-opacity="1" stop-color="rgb(0%, 51.626587%, 78.639221%)" offset="0.09375"/><stop stop-opacity="1" stop-color="rgb(0%, 51.783752%, 78.666687%)" offset="0.0976562"/><stop stop-opacity="1" stop-color="rgb(0%, 51.939392%, 78.692627%)" offset="0.101562"/><stop stop-opacity="1" stop-color="rgb(0%, 52.096558%, 78.718567%)" offset="0.105469"/><stop stop-opacity="1" stop-color="rgb(0%, 52.252197%, 78.744507%)" offset="0.109375"/><stop stop-opacity="1" stop-color="rgb(0%, 52.407837%, 78.770447%)" offset="0.113281"/><stop stop-opacity="1" stop-color="rgb(0%, 52.565002%, 78.796387%)" offset="0.117188"/><stop stop-opacity="1" stop-color="rgb(0%, 52.720642%, 78.822327%)" offset="0.121094"/><stop stop-opacity="1" stop-color="rgb(0%, 52.877808%, 78.849792%)" offset="0.125"/><stop stop-opacity="1" stop-color="rgb(0%, 53.033447%, 78.875732%)" offset="0.128906"/><stop stop-opacity="1" stop-color="rgb(0%, 53.189087%, 78.901672%)" offset="0.132812"/><stop stop-opacity="1" stop-color="rgb(0%, 53.346252%, 78.927612%)" offset="0.136719"/><stop stop-opacity="1" stop-color="rgb(0%, 53.501892%, 78.953552%)" offset="0.140625"/><stop stop-opacity="1" stop-color="rgb(0%, 53.659058%, 78.979492%)" offset="0.144531"/><stop stop-opacity="1" stop-color="rgb(0%, 53.814697%, 79.006958%)" offset="0.148438"/><stop stop-opacity="1" stop-color="rgb(0%, 53.970337%, 79.032898%)" offset="0.152344"/><stop stop-opacity="1" stop-color="rgb(0%, 54.127502%, 79.058838%)" offset="0.15625"/><stop stop-opacity="1" stop-color="rgb(0%, 54.283142%, 79.084778%)" offset="0.160156"/><stop stop-opacity="1" stop-color="rgb(0%, 54.440308%, 79.110718%)" offset="0.164062"/><stop stop-opacity="1" stop-color="rgb(0%, 54.595947%, 79.136658%)" offset="0.167969"/><stop stop-opacity="1" stop-color="rgb(0%, 54.751587%, 79.162598%)" offset="0.171875"/><stop stop-opacity="1" stop-color="rgb(0%, 54.908752%, 79.190063%)" offset="0.175781"/><stop stop-opacity="1" stop-color="rgb(0%, 55.064392%, 79.216003%)" offset="0.179688"/><stop stop-opacity="1" stop-color="rgb(0%, 55.221558%, 79.241943%)" offset="0.183594"/><stop stop-opacity="1" stop-color="rgb(0%, 55.377197%, 79.267883%)" offset="0.1875"/><stop stop-opacity="1" stop-color="rgb(0%, 55.532837%, 79.293823%)" offset="0.191406"/><stop stop-opacity="1" stop-color="rgb(0%, 55.690002%, 79.319763%)" offset="0.195312"/><stop stop-opacity="1" stop-color="rgb(0%, 55.845642%, 79.345703%)" offset="0.199219"/><stop stop-opacity="1" stop-color="rgb(0%, 56.002808%, 79.373169%)" offset="0.203125"/><stop stop-opacity="1" stop-color="rgb(0%, 56.158447%, 79.399109%)" offset="0.207031"/><stop stop-opacity="1" stop-color="rgb(0%, 56.314087%, 79.425049%)" offset="0.210938"/><stop stop-opacity="1" stop-color="rgb(0%, 56.471252%, 79.450989%)" offset="0.214844"/><stop stop-opacity="1" stop-color="rgb(0%, 56.626892%, 79.476929%)" offset="0.21875"/><stop stop-opacity="1" stop-color="rgb(0%, 56.784058%, 79.502869%)" offset="0.222656"/><stop stop-opacity="1" stop-color="rgb(0%, 56.939697%, 79.530334%)" offset="0.226562"/><stop stop-opacity="1" stop-color="rgb(0%, 57.095337%, 79.556274%)" offset="0.230469"/><stop stop-opacity="1" stop-color="rgb(0%, 57.252502%, 79.582214%)" offset="0.234375"/><stop stop-opacity="1" stop-color="rgb(0%, 57.408142%, 79.608154%)" offset="0.238281"/><stop stop-opacity="1" stop-color="rgb(0%, 57.565308%, 79.634094%)" offset="0.242188"/><stop stop-opacity="1" stop-color="rgb(0%, 57.720947%, 79.660034%)" offset="0.246094"/><stop stop-opacity="1" stop-color="rgb(0%, 57.876587%, 79.685974%)" offset="0.25"/><stop stop-opacity="1" stop-color="rgb(0%, 58.111572%, 79.725647%)" offset="0.253906"/><stop stop-opacity="1" stop-color="rgb(0%, 58.424377%, 79.779053%)" offset="0.261719"/><stop stop-opacity="1" stop-color="rgb(0%, 58.735657%, 79.830933%)" offset="0.269531"/><stop stop-opacity="1" stop-color="rgb(0%, 59.048462%, 79.882812%)" offset="0.277344"/><stop stop-opacity="1" stop-color="rgb(0%, 59.361267%, 79.936218%)" offset="0.285156"/><stop stop-opacity="1" stop-color="rgb(0%, 59.674072%, 79.988098%)" offset="0.292969"/><stop stop-opacity="1" stop-color="rgb(0%, 59.986877%, 80.039978%)" offset="0.300781"/><stop stop-opacity="1" stop-color="rgb(0%, 60.298157%, 80.093384%)" offset="0.308594"/><stop stop-opacity="1" stop-color="rgb(0%, 60.610962%, 80.145264%)" offset="0.316406"/><stop stop-opacity="1" stop-color="rgb(0%, 60.923767%, 80.197144%)" offset="0.324219"/><stop stop-opacity="1" stop-color="rgb(0%, 61.236572%, 80.250549%)" offset="0.332031"/><stop stop-opacity="1" stop-color="rgb(0%, 61.549377%, 80.302429%)" offset="0.339844"/><stop stop-opacity="1" stop-color="rgb(0%, 61.860657%, 80.354309%)" offset="0.347656"/><stop stop-opacity="1" stop-color="rgb(0%, 62.173462%, 80.406189%)" offset="0.355469"/><stop stop-opacity="1" stop-color="rgb(0%, 62.486267%, 80.459595%)" offset="0.363281"/><stop stop-opacity="1" stop-color="rgb(0%, 62.799072%, 80.511475%)" offset="0.371094"/><stop stop-opacity="1" stop-color="rgb(0%, 63.111877%, 80.563354%)" offset="0.378906"/><stop stop-opacity="1" stop-color="rgb(0%, 63.423157%, 80.61676%)" offset="0.386719"/><stop stop-opacity="1" stop-color="rgb(0%, 63.735962%, 80.66864%)" offset="0.394531"/><stop stop-opacity="1" stop-color="rgb(0%, 64.048767%, 80.72052%)" offset="0.402344"/><stop stop-opacity="1" stop-color="rgb(0%, 64.361572%, 80.773926%)" offset="0.410156"/><stop stop-opacity="1" stop-color="rgb(0%, 64.674377%, 80.825806%)" offset="0.417969"/><stop stop-opacity="1" stop-color="rgb(0%, 64.985657%, 80.877686%)" offset="0.425781"/><stop stop-opacity="1" stop-color="rgb(0%, 65.298462%, 80.929565%)" offset="0.433594"/><stop stop-opacity="1" stop-color="rgb(0%, 65.611267%, 80.982971%)" offset="0.441406"/><stop stop-opacity="1" stop-color="rgb(0%, 65.924072%, 81.034851%)" offset="0.449219"/><stop stop-opacity="1" stop-color="rgb(0%, 66.236877%, 81.086731%)" offset="0.457031"/><stop stop-opacity="1" stop-color="rgb(0%, 66.548157%, 81.140137%)" offset="0.464844"/><stop stop-opacity="1" stop-color="rgb(0%, 66.860962%, 81.192017%)" offset="0.472656"/><stop stop-opacity="1" stop-color="rgb(0%, 67.173767%, 81.243896%)" offset="0.480469"/><stop stop-opacity="1" stop-color="rgb(0%, 67.486572%, 81.297302%)" offset="0.488281"/><stop stop-opacity="1" stop-color="rgb(0%, 67.799377%, 81.349182%)" offset="0.496094"/><stop stop-opacity="1" stop-color="rgb(0%, 68.032837%, 81.387329%)" offset="0.503906"/><stop stop-opacity="1" stop-color="rgb(0%, 68.190002%, 81.413269%)" offset="0.507812"/><stop stop-opacity="1" stop-color="rgb(0%, 68.345642%, 81.440735%)" offset="0.511719"/><stop stop-opacity="1" stop-color="rgb(0%, 68.502808%, 81.466675%)" offset="0.515625"/><stop stop-opacity="1" stop-color="rgb(0%, 68.658447%, 81.492615%)" offset="0.519531"/><stop stop-opacity="1" stop-color="rgb(0%, 68.814087%, 81.518555%)" offset="0.523438"/><stop stop-opacity="1" stop-color="rgb(0%, 68.971252%, 81.544495%)" offset="0.527344"/><stop stop-opacity="1" stop-color="rgb(0%, 69.126892%, 81.570435%)" offset="0.53125"/><stop stop-opacity="1" stop-color="rgb(0%, 69.284058%, 81.5979%)" offset="0.535156"/><stop stop-opacity="1" stop-color="rgb(0%, 69.439697%, 81.62384%)" offset="0.539062"/><stop stop-opacity="1" stop-color="rgb(0%, 69.595337%, 81.64978%)" offset="0.542969"/><stop stop-opacity="1" stop-color="rgb(0%, 69.752502%, 81.67572%)" offset="0.546875"/><stop stop-opacity="1" stop-color="rgb(0%, 69.908142%, 81.70166%)" offset="0.550781"/><stop stop-opacity="1" stop-color="rgb(0%, 70.065308%, 81.7276%)" offset="0.554688"/><stop stop-opacity="1" stop-color="rgb(0%, 70.220947%, 81.75354%)" offset="0.558594"/><stop stop-opacity="1" stop-color="rgb(0%, 70.376587%, 81.781006%)" offset="0.5625"/><stop stop-opacity="1" stop-color="rgb(0%, 70.533752%, 81.806946%)" offset="0.566406"/><stop stop-opacity="1" stop-color="rgb(0%, 70.689392%, 81.832886%)" offset="0.570312"/><stop stop-opacity="1" stop-color="rgb(0%, 70.846558%, 81.858826%)" offset="0.574219"/><stop stop-opacity="1" stop-color="rgb(0%, 71.002197%, 81.884766%)" offset="0.578125"/><stop stop-opacity="1" stop-color="rgb(0%, 71.157837%, 81.910706%)" offset="0.582031"/><stop stop-opacity="1" stop-color="rgb(0%, 71.315002%, 81.938171%)" offset="0.585938"/><stop stop-opacity="1" stop-color="rgb(0%, 71.470642%, 81.964111%)" offset="0.589844"/><stop stop-opacity="1" stop-color="rgb(0%, 71.627808%, 81.990051%)" offset="0.59375"/><stop stop-opacity="1" stop-color="rgb(0%, 71.783447%, 82.015991%)" offset="0.597656"/><stop stop-opacity="1" stop-color="rgb(0%, 71.939087%, 82.041931%)" offset="0.601562"/><stop stop-opacity="1" stop-color="rgb(0%, 72.096252%, 82.067871%)" offset="0.605469"/><stop stop-opacity="1" stop-color="rgb(0%, 72.251892%, 82.093811%)" offset="0.609375"/><stop stop-opacity="1" stop-color="rgb(0%, 72.409058%, 82.121277%)" offset="0.613281"/><stop stop-opacity="1" stop-color="rgb(0%, 72.564697%, 82.147217%)" offset="0.617188"/><stop stop-opacity="1" stop-color="rgb(0%, 72.720337%, 82.173157%)" offset="0.621094"/><stop stop-opacity="1" stop-color="rgb(0%, 72.877502%, 82.199097%)" offset="0.625"/><stop stop-opacity="1" stop-color="rgb(0%, 73.110962%, 82.23877%)" offset="0.628906"/><stop stop-opacity="1" stop-color="rgb(0%, 73.423767%, 82.290649%)" offset="0.636719"/><stop stop-opacity="1" stop-color="rgb(0%, 73.736572%, 82.344055%)" offset="0.644531"/><stop stop-opacity="1" stop-color="rgb(0%, 74.049377%, 82.395935%)" offset="0.652344"/><stop stop-opacity="1" stop-color="rgb(0%, 74.360657%, 82.447815%)" offset="0.660156"/><stop stop-opacity="1" stop-color="rgb(0%, 74.673462%, 82.501221%)" offset="0.667969"/><stop stop-opacity="1" stop-color="rgb(0%, 74.986267%, 82.553101%)" offset="0.675781"/><stop stop-opacity="1" stop-color="rgb(0%, 75.299072%, 82.60498%)" offset="0.683594"/><stop stop-opacity="1" stop-color="rgb(0%, 75.611877%, 82.65686%)" offset="0.691406"/><stop stop-opacity="1" stop-color="rgb(0%, 75.923157%, 82.710266%)" offset="0.699219"/><stop stop-opacity="1" stop-color="rgb(0%, 76.235962%, 82.762146%)" offset="0.707031"/><stop stop-opacity="1" stop-color="rgb(0%, 76.548767%, 82.814026%)" offset="0.714844"/><stop stop-opacity="1" stop-color="rgb(0%, 76.861572%, 82.867432%)" offset="0.722656"/><stop stop-opacity="1" stop-color="rgb(0%, 77.174377%, 82.919312%)" offset="0.730469"/><stop stop-opacity="1" stop-color="rgb(0%, 77.485657%, 82.971191%)" offset="0.738281"/><stop stop-opacity="1" stop-color="rgb(0%, 77.798462%, 83.024597%)" offset="0.746094"/><stop stop-opacity="1" stop-color="rgb(0%, 78.033447%, 83.062744%)" offset="0.753906"/><stop stop-opacity="1" stop-color="rgb(0%, 78.189087%, 83.088684%)" offset="0.757812"/><stop stop-opacity="1" stop-color="rgb(0%, 78.346252%, 83.114624%)" offset="0.761719"/><stop stop-opacity="1" stop-color="rgb(0%, 78.501892%, 83.14209%)" offset="0.765625"/><stop stop-opacity="1" stop-color="rgb(0%, 78.659058%, 83.16803%)" offset="0.769531"/><stop stop-opacity="1" stop-color="rgb(0%, 78.814697%, 83.19397%)" offset="0.773438"/><stop stop-opacity="1" stop-color="rgb(0%, 78.970337%, 83.21991%)" offset="0.777344"/><stop stop-opacity="1" stop-color="rgb(0%, 79.127502%, 83.24585%)" offset="0.78125"/><stop stop-opacity="1" stop-color="rgb(0%, 79.283142%, 83.27179%)" offset="0.785156"/><stop stop-opacity="1" stop-color="rgb(0%, 79.440308%, 83.297729%)" offset="0.789062"/><stop stop-opacity="1" stop-color="rgb(0%, 79.595947%, 83.325195%)" offset="0.792969"/><stop stop-opacity="1" stop-color="rgb(0%, 79.751587%, 83.351135%)" offset="0.796875"/><stop stop-opacity="1" stop-color="rgb(0%, 79.908752%, 83.377075%)" offset="0.800781"/><stop stop-opacity="1" stop-color="rgb(0%, 80.064392%, 83.403015%)" offset="0.804688"/><stop stop-opacity="1" stop-color="rgb(0%, 80.221558%, 83.428955%)" offset="0.808594"/><stop stop-opacity="1" stop-color="rgb(0%, 80.377197%, 83.454895%)" offset="0.8125"/><stop stop-opacity="1" stop-color="rgb(0%, 80.610657%, 83.494568%)" offset="0.816406"/><stop stop-opacity="1" stop-color="rgb(0%, 80.923462%, 83.547974%)" offset="0.824219"/><stop stop-opacity="1" stop-color="rgb(0%, 81.236267%, 83.599854%)" offset="0.832031"/><stop stop-opacity="1" stop-color="rgb(0%, 81.549072%, 83.651733%)" offset="0.839844"/><stop stop-opacity="1" stop-color="rgb(0%, 81.861877%, 83.705139%)" offset="0.847656"/><stop stop-opacity="1" stop-color="rgb(0%, 82.173157%, 83.757019%)" offset="0.855469"/><stop stop-opacity="1" stop-color="rgb(0%, 82.485962%, 83.808899%)" offset="0.863281"/><stop stop-opacity="1" stop-color="rgb(0%, 82.798767%, 83.860779%)" offset="0.871094"/><stop stop-opacity="1" stop-color="rgb(0%, 83.033752%, 83.900452%)" offset="0.878906"/><stop stop-opacity="1" stop-color="rgb(0%, 83.189392%, 83.926392%)" offset="0.882812"/><stop stop-opacity="1" stop-color="rgb(0%, 83.346558%, 83.952332%)" offset="0.886719"/><stop stop-opacity="1" stop-color="rgb(0%, 83.502197%, 83.978271%)" offset="0.890625"/><stop stop-opacity="1" stop-color="rgb(0%, 83.657837%, 84.005737%)" offset="0.894531"/><stop stop-opacity="1" stop-color="rgb(0%, 83.815002%, 84.031677%)" offset="0.898438"/><stop stop-opacity="1" stop-color="rgb(0%, 83.970642%, 84.057617%)" offset="0.902344"/><stop stop-opacity="1" stop-color="rgb(0%, 84.127808%, 84.083557%)" offset="0.90625"/><stop stop-opacity="1" stop-color="rgb(0%, 84.361267%, 84.12323%)" offset="0.910156"/><stop stop-opacity="1" stop-color="rgb(0%, 84.674072%, 84.17511%)" offset="0.917969"/><stop stop-opacity="1" stop-color="rgb(0%, 84.986877%, 84.228516%)" offset="0.925781"/><stop stop-opacity="1" stop-color="rgb(0%, 85.298157%, 84.280396%)" offset="0.933594"/><stop stop-opacity="1" stop-color="rgb(0%, 85.533142%, 84.318542%)" offset="0.941406"/><stop stop-opacity="1" stop-color="rgb(0%, 85.690308%, 84.346008%)" offset="0.945312"/><stop stop-opacity="1" stop-color="rgb(0%, 85.845947%, 84.371948%)" offset="0.949219"/><stop stop-opacity="1" stop-color="rgb(0%, 86.001587%, 84.397888%)" offset="0.953125"/><stop stop-opacity="1" stop-color="rgb(0%, 86.236572%, 84.437561%)" offset="0.957031"/><stop stop-opacity="1" stop-color="rgb(0%, 86.549377%, 84.489441%)" offset="0.964844"/><stop stop-opacity="1" stop-color="rgb(0%, 86.782837%, 84.529114%)" offset="0.972656"/><stop stop-opacity="1" stop-color="rgb(0%, 86.940002%, 84.555054%)" offset="0.976562"/><stop stop-opacity="1" stop-color="rgb(0%, 87.173462%, 84.594727%)" offset="0.980469"/><stop stop-opacity="1" stop-color="rgb(0%, 87.408447%, 84.632874%)" offset="0.988281"/><stop stop-opacity="1" stop-color="rgb(0%, 87.641907%, 84.672546%)" offset="0.992188"/><stop stop-opacity="1" stop-color="rgb(0%, 87.799072%, 84.698486%)" offset="1"/></radialGradient><clipPath id="679eec377f"><path d="M 39.792969 20.816406 L 73.15625 20.816406 L 73.15625 54.183594 L 39.792969 54.183594 Z M 39.792969 20.816406 " clip-rule="nonzero"/></clipPath><clipPath id="2518f8e61e"><path d="M 56.476562 20.816406 C 47.261719 20.816406 39.792969 28.285156 39.792969 37.5 C 39.792969 46.714844 47.261719 54.183594 56.476562 54.183594 C 65.6875 54.183594 73.15625 46.714844 73.15625 37.5 C 73.15625 28.285156 65.6875 20.816406 56.476562 20.816406 Z M 56.476562 20.816406 " clip-rule="nonzero"/></clipPath></defs><g clip-path="url(#1daa35fb6d)"><g clip-path="url(#2dffa57543)"><path fill="url(#27b9cec779)" d="M 20.753906 1.777344 L 20.753906 73.222656 L 92.199219 73.222656 L 92.199219 1.777344 Z M 20.753906 1.777344 " fill-rule="nonzero"/></g></g><g clip-path="url(#679eec377f)"><g clip-path="url(#2518f8e61e)"><path fill="#ffffff" d="M 39.792969 20.816406 L 73.15625 20.816406 L 73.15625 54.183594 L 39.792969 54.183594 Z M 39.792969 20.816406 " fill-opacity="1" fill-rule="nonzero"/></g></g><g fill="#d4dae3" fill-opacity="1"><g transform="translate(89.839743, 69.204239)"><g><path d="M 4.546875 0.265625 C 4.066406 0.265625 3.597656 0.203125 3.140625 0.078125 C 2.679688 -0.0351562 2.320312 -0.191406 2.0625 -0.390625 L 2.046875 -0.390625 L 2.09375 0.125 L 0.828125 0.125 L 0.75 -2.765625 L 1.84375 -2.765625 C 1.90625 -2.253906 2.175781 -1.820312 2.65625 -1.46875 C 3.144531 -1.113281 3.742188 -0.9375 4.453125 -0.9375 C 4.765625 -0.9375 5.035156 -1.007812 5.265625 -1.15625 C 5.492188 -1.300781 5.609375 -1.507812 5.609375 -1.78125 C 5.609375 -1.976562 5.535156 -2.144531 5.390625 -2.28125 C 5.242188 -2.414062 5.066406 -2.523438 4.859375 -2.609375 C 4.660156 -2.703125 4.257812 -2.867188 3.65625 -3.109375 C 2.945312 -3.390625 2.410156 -3.617188 2.046875 -3.796875 C 1.691406 -3.972656 1.367188 -4.238281 1.078125 -4.59375 C 0.796875 -4.945312 0.65625 -5.40625 0.65625 -5.96875 C 0.65625 -6.425781 0.769531 -6.859375 1 -7.265625 C 1.226562 -7.671875 1.578125 -8.003906 2.046875 -8.265625 C 2.523438 -8.535156 3.113281 -8.671875 3.8125 -8.671875 C 4.132812 -8.671875 4.484375 -8.617188 4.859375 -8.515625 C 5.242188 -8.410156 5.566406 -8.269531 5.828125 -8.09375 L 5.84375 -8.09375 L 5.828125 -8.578125 L 7.109375 -8.578125 L 7.109375 -5.609375 L 6.015625 -5.609375 C 5.910156 -6.191406 5.648438 -6.648438 5.234375 -6.984375 C 4.828125 -7.316406 4.320312 -7.484375 3.71875 -7.484375 C 3.394531 -7.484375 3.128906 -7.410156 2.921875 -7.265625 C 2.710938 -7.117188 2.609375 -6.894531 2.609375 -6.59375 C 2.609375 -6.28125 2.726562 -6.046875 2.96875 -5.890625 C 3.21875 -5.742188 3.632812 -5.578125 4.21875 -5.390625 C 4.28125 -5.378906 4.425781 -5.332031 4.65625 -5.25 C 5.601562 -4.914062 6.332031 -4.523438 6.84375 -4.078125 C 7.351562 -3.628906 7.609375 -3.039062 7.609375 -2.3125 C 7.609375 -1.757812 7.460938 -1.285156 7.171875 -0.890625 C 6.890625 -0.503906 6.515625 -0.210938 6.046875 -0.015625 C 5.585938 0.171875 5.085938 0.265625 4.546875 0.265625 Z M 4.546875 0.265625 "/></g></g></g><g fill="#d4dae3" fill-opacity="1"><g transform="translate(97.982717, 69.204239)"><g><path d="M 4.796875 0.265625 C 3.984375 0.265625 3.25 0.09375 2.59375 -0.25 C 1.945312 -0.59375 1.4375 -1.085938 1.0625 -1.734375 C 0.695312 -2.390625 0.515625 -3.148438 0.515625 -4.015625 C 0.515625 -4.921875 0.703125 -5.722656 1.078125 -6.421875 C 1.460938 -7.128906 1.976562 -7.679688 2.625 -8.078125 C 3.269531 -8.472656 3.976562 -8.671875 4.75 -8.671875 C 5.5625 -8.671875 6.285156 -8.492188 6.921875 -8.140625 C 7.554688 -7.796875 8.054688 -7.296875 8.421875 -6.640625 C 8.796875 -5.984375 8.984375 -5.21875 8.984375 -4.34375 C 8.984375 -3.414062 8.804688 -2.601562 8.453125 -1.90625 C 8.097656 -1.21875 7.601562 -0.679688 6.96875 -0.296875 C 6.34375 0.078125 5.617188 0.265625 4.796875 0.265625 Z M 4.84375 -0.921875 C 5.457031 -0.921875 5.882812 -1.207031 6.125 -1.78125 C 6.375 -2.351562 6.5 -3.070312 6.5 -3.9375 C 6.5 -4.894531 6.359375 -5.722656 6.078125 -6.421875 C 5.796875 -7.128906 5.351562 -7.484375 4.75 -7.484375 C 4.132812 -7.484375 3.6875 -7.191406 3.40625 -6.609375 C 3.125 -6.035156 2.984375 -5.320312 2.984375 -4.46875 C 2.984375 -3.488281 3.132812 -2.648438 3.4375 -1.953125 C 3.738281 -1.265625 4.207031 -0.921875 4.84375 -0.921875 Z M 4.84375 -0.921875 "/></g></g></g><g fill="#d4dae3" fill-opacity="1"><g transform="translate(107.485652, 69.204239)"><g><path d="M 1.203125 -5.78125 C 1.085938 -6.125 1 -6.390625 0.9375 -6.578125 C 0.882812 -6.765625 0.835938 -6.957031 0.796875 -7.15625 L 0.140625 -7.125 L 0.140625 -8.390625 L 4.171875 -8.390625 L 4.171875 -7.328125 C 3.734375 -7.316406 3.515625 -7.082031 3.515625 -6.625 C 3.515625 -6.507812 3.546875 -6.304688 3.609375 -6.015625 L 4.1875 -3.96875 C 4.34375 -3.394531 4.457031 -2.863281 4.53125 -2.375 L 4.546875 -2.375 C 4.566406 -2.457031 4.609375 -2.664062 4.671875 -3 C 4.742188 -3.34375 4.847656 -3.738281 4.984375 -4.1875 L 6.21875 -8.390625 L 8.046875 -8.390625 L 9.390625 -3.765625 C 9.460938 -3.484375 9.597656 -2.976562 9.796875 -2.25 L 9.8125 -2.25 C 9.851562 -2.570312 9.984375 -3.0625 10.203125 -3.71875 L 10.84375 -5.84375 C 10.925781 -6.113281 11.003906 -6.359375 11.078125 -6.578125 C 11.160156 -6.796875 11.25 -6.992188 11.34375 -7.171875 L 11.34375 -7.1875 L 10.375 -7.125 L 10.375 -8.390625 L 13.578125 -8.390625 L 13.578125 -7.328125 C 12.984375 -7.328125 12.476562 -6.722656 12.0625 -5.515625 L 10.140625 0.046875 L 8.359375 0.046875 L 7.203125 -3.53125 C 7.023438 -4.082031 6.832031 -4.769531 6.625 -5.59375 L 6.59375 -5.59375 C 6.476562 -4.914062 6.222656 -3.957031 5.828125 -2.71875 L 4.90625 0.046875 L 3.234375 0.046875 Z M 1.203125 -5.78125 "/></g></g></g><g fill="#d4dae3" fill-opacity="1"><g transform="translate(121.10205, 69.204239)"><g><path d="M 4.546875 0.265625 C 4.066406 0.265625 3.597656 0.203125 3.140625 0.078125 C 2.679688 -0.0351562 2.320312 -0.191406 2.0625 -0.390625 L 2.046875 -0.390625 L 2.09375 0.125 L 0.828125 0.125 L 0.75 -2.765625 L 1.84375 -2.765625 C 1.90625 -2.253906 2.175781 -1.820312 2.65625 -1.46875 C 3.144531 -1.113281 3.742188 -0.9375 4.453125 -0.9375 C 4.765625 -0.9375 5.035156 -1.007812 5.265625 -1.15625 C 5.492188 -1.300781 5.609375 -1.507812 5.609375 -1.78125 C 5.609375 -1.976562 5.535156 -2.144531 5.390625 -2.28125 C 5.242188 -2.414062 5.066406 -2.523438 4.859375 -2.609375 C 4.660156 -2.703125 4.257812 -2.867188 3.65625 -3.109375 C 2.945312 -3.390625 2.410156 -3.617188 2.046875 -3.796875 C 1.691406 -3.972656 1.367188 -4.238281 1.078125 -4.59375 C 0.796875 -4.945312 0.65625 -5.40625 0.65625 -5.96875 C 0.65625 -6.425781 0.769531 -6.859375 1 -7.265625 C 1.226562 -7.671875 1.578125 -8.003906 2.046875 -8.265625 C 2.523438 -8.535156 3.113281 -8.671875 3.8125 -8.671875 C 4.132812 -8.671875 4.484375 -8.617188 4.859375 -8.515625 C 5.242188 -8.410156 5.566406 -8.269531 5.828125 -8.09375 L 5.84375 -8.09375 L 5.828125 -8.578125 L 7.109375 -8.578125 L 7.109375 -5.609375 L 6.015625 -5.609375 C 5.910156 -6.191406 5.648438 -6.648438 5.234375 -6.984375 C 4.828125 -7.316406 4.320312 -7.484375 3.71875 -7.484375 C 3.394531 -7.484375 3.128906 -7.410156 2.921875 -7.265625 C 2.710938 -7.117188 2.609375 -6.894531 2.609375 -6.59375 C 2.609375 -6.28125 2.726562 -6.046875 2.96875 -5.890625 C 3.21875 -5.742188 3.632812 -5.578125 4.21875 -5.390625 C 4.28125 -5.378906 4.425781 -5.332031 4.65625 -5.25 C 5.601562 -4.914062 6.332031 -4.523438 6.84375 -4.078125 C 7.351562 -3.628906 7.609375 -3.039062 7.609375 -2.3125 C 7.609375 -1.757812 7.460938 -1.285156 7.171875 -0.890625 C 6.890625 -0.503906 6.515625 -0.210938 6.046875 -0.015625 C 5.585938 0.171875 5.085938 0.265625 4.546875 0.265625 Z M 4.546875 0.265625 "/></g></g></g></svg>