<svg xmlns="http://www.w3.org/2000/svg" xmlns:xlink="http://www.w3.org/1999/xlink" width="200" zoomAndPan="magnify" viewBox="0 0 150 74.999997" height="100" preserveAspectRatio="xMidYMid meet" version="1.0"><defs><g/></defs><g fill="#00e0d8" fill-opacity="1"><g transform="translate(0.0343087, 52.503021)"><g><path d="M 27.390625 -21.53125 C 26.523438 -23.53125 25.195312 -25.097656 23.40625 -26.234375 C 21.625 -27.378906 19.535156 -27.953125 17.140625 -27.953125 C 14.867188 -27.953125 12.832031 -27.429688 11.03125 -26.390625 C 9.238281 -25.347656 7.820312 -23.863281 6.78125 -21.9375 C 5.738281 -20.007812 5.21875 -17.769531 5.21875 -15.21875 C 5.21875 -12.664062 5.738281 -10.414062 6.78125 -8.46875 C 7.820312 -6.53125 9.238281 -5.039062 11.03125 -4 C 12.832031 -2.957031 14.867188 -2.4375 17.140625 -2.4375 C 19.253906 -2.4375 21.15625 -2.890625 22.84375 -3.796875 C 24.539062 -4.710938 25.90625 -6.019531 26.9375 -7.71875 C 27.96875 -9.414062 28.554688 -11.394531 28.703125 -13.65625 L 15.921875 -13.65625 L 15.921875 -16.125 L 31.921875 -16.125 L 31.921875 -13.921875 C 31.773438 -11.253906 31.046875 -8.835938 29.734375 -6.671875 C 28.429688 -4.515625 26.6875 -2.8125 24.5 -1.5625 C 22.3125 -0.320312 19.859375 0.296875 17.140625 0.296875 C 14.328125 0.296875 11.773438 -0.359375 9.484375 -1.671875 C 7.191406 -2.992188 5.382812 -4.832031 4.0625 -7.1875 C 2.75 -9.550781 2.09375 -12.226562 2.09375 -15.21875 C 2.09375 -18.207031 2.75 -20.878906 4.0625 -23.234375 C 5.382812 -25.597656 7.191406 -27.441406 9.484375 -28.765625 C 11.773438 -30.085938 14.328125 -30.75 17.140625 -30.75 C 20.378906 -30.75 23.21875 -29.9375 25.65625 -28.3125 C 28.09375 -26.6875 29.859375 -24.425781 30.953125 -21.53125 Z M 27.390625 -21.53125 "/></g></g></g><g fill="#00e0d8" fill-opacity="1"><g transform="translate(34.03315, 52.503021)"><g><path d="M 24.953125 -13.09375 C 24.953125 -12.039062 24.925781 -11.242188 24.875 -10.703125 L 5.171875 -10.703125 C 5.265625 -8.898438 5.703125 -7.359375 6.484375 -6.078125 C 7.265625 -4.804688 8.289062 -3.84375 9.5625 -3.1875 C 10.84375 -2.539062 12.234375 -2.21875 13.734375 -2.21875 C 15.710938 -2.21875 17.375 -2.695312 18.71875 -3.65625 C 20.0625 -4.613281 20.953125 -5.898438 21.390625 -7.515625 L 24.609375 -7.515625 C 24.035156 -5.203125 22.796875 -3.3125 20.890625 -1.84375 C 18.992188 -0.382812 16.609375 0.34375 13.734375 0.34375 C 11.503906 0.34375 9.503906 -0.15625 7.734375 -1.15625 C 5.972656 -2.15625 4.59375 -3.570312 3.59375 -5.40625 C 2.59375 -7.25 2.09375 -9.40625 2.09375 -11.875 C 2.09375 -14.332031 2.582031 -16.488281 3.5625 -18.34375 C 4.550781 -20.207031 5.925781 -21.628906 7.6875 -22.609375 C 9.457031 -23.597656 11.472656 -24.09375 13.734375 -24.09375 C 16.003906 -24.09375 17.984375 -23.597656 19.671875 -22.609375 C 21.367188 -21.628906 22.671875 -20.300781 23.578125 -18.625 C 24.492188 -16.957031 24.953125 -15.113281 24.953125 -13.09375 Z M 21.875 -13.171875 C 21.90625 -14.941406 21.550781 -16.445312 20.8125 -17.6875 C 20.070312 -18.9375 19.0625 -19.878906 17.78125 -20.515625 C 16.507812 -21.160156 15.117188 -21.484375 13.609375 -21.484375 C 11.347656 -21.484375 9.421875 -20.757812 7.828125 -19.3125 C 6.234375 -17.863281 5.347656 -15.816406 5.171875 -13.171875 Z M 21.875 -13.171875 "/></g></g></g><g fill="#00e0d8" fill-opacity="1"><g transform="translate(61.075708, 52.503021)"><g><path d="M 14.609375 -24.171875 C 17.453125 -24.171875 19.769531 -23.296875 21.5625 -21.546875 C 23.363281 -19.796875 24.265625 -17.253906 24.265625 -13.921875 L 24.265625 0 L 21.265625 0 L 21.265625 -13.5625 C 21.265625 -16.144531 20.617188 -18.117188 19.328125 -19.484375 C 18.035156 -20.847656 16.273438 -21.53125 14.046875 -21.53125 C 11.753906 -21.53125 9.925781 -20.800781 8.5625 -19.34375 C 7.195312 -17.894531 6.515625 -15.765625 6.515625 -12.953125 L 6.515625 0 L 3.484375 0 L 3.484375 -23.75 L 6.515625 -23.75 L 6.515625 -19.703125 C 7.273438 -21.148438 8.363281 -22.253906 9.78125 -23.015625 C 11.207031 -23.785156 12.816406 -24.171875 14.609375 -24.171875 Z M 14.609375 -24.171875 "/></g></g></g><g fill="#00e0d8" fill-opacity="1"><g transform="translate(88.596502, 52.503021)"><g><path d="M 23.046875 -23.75 L 8.953125 11.171875 L 5.78125 11.171875 L 10.390625 -0.125 L 0.65625 -23.75 L 4 -23.75 L 12.09375 -3.484375 L 19.921875 -23.75 Z M 23.046875 -23.75 "/></g></g></g><g fill="#00e0d8" fill-opacity="1"><g transform="translate(112.29134, 52.503021)"><g><path d="M 11.65625 0.34375 C 8.925781 0.34375 6.695312 -0.285156 4.96875 -1.546875 C 3.25 -2.804688 2.289062 -4.523438 2.09375 -6.703125 L 5.21875 -6.703125 C 5.363281 -5.367188 5.992188 -4.285156 7.109375 -3.453125 C 8.222656 -2.628906 9.722656 -2.21875 11.609375 -2.21875 C 13.265625 -2.21875 14.5625 -2.609375 15.5 -3.390625 C 16.445312 -4.171875 16.921875 -5.144531 16.921875 -6.3125 C 16.921875 -7.113281 16.65625 -7.773438 16.125 -8.296875 C 15.601562 -8.828125 14.941406 -9.242188 14.140625 -9.546875 C 13.347656 -9.847656 12.273438 -10.171875 10.921875 -10.515625 C 9.148438 -10.984375 7.710938 -11.445312 6.609375 -11.90625 C 5.503906 -12.375 4.566406 -13.0625 3.796875 -13.96875 C 3.035156 -14.882812 2.65625 -16.113281 2.65625 -17.65625 C 2.65625 -18.8125 3 -19.878906 3.6875 -20.859375 C 4.382812 -21.847656 5.367188 -22.632812 6.640625 -23.21875 C 7.921875 -23.800781 9.375 -24.09375 11 -24.09375 C 13.550781 -24.09375 15.609375 -23.445312 17.171875 -22.15625 C 18.742188 -20.863281 19.585938 -19.085938 19.703125 -16.828125 L 16.65625 -16.828125 C 16.570312 -18.222656 16.03125 -19.347656 15.03125 -20.203125 C 14.03125 -21.054688 12.660156 -21.484375 10.921875 -21.484375 C 9.378906 -21.484375 8.128906 -21.117188 7.171875 -20.390625 C 6.210938 -19.671875 5.734375 -18.773438 5.734375 -17.703125 C 5.734375 -16.773438 6.015625 -16.015625 6.578125 -15.421875 C 7.148438 -14.828125 7.851562 -14.363281 8.6875 -14.03125 C 9.53125 -13.695312 10.664062 -13.328125 12.09375 -12.921875 C 13.800781 -12.453125 15.160156 -12 16.171875 -11.5625 C 17.191406 -11.132812 18.0625 -10.5 18.78125 -9.65625 C 19.507812 -8.8125 19.890625 -7.695312 19.921875 -6.3125 C 19.921875 -5.03125 19.570312 -3.890625 18.875 -2.890625 C 18.175781 -1.890625 17.203125 -1.097656 15.953125 -0.515625 C 14.710938 0.0546875 13.28125 0.34375 11.65625 0.34375 Z M 11.65625 0.34375 "/></g></g></g><g fill="#00e0d8" fill-opacity="1"><g transform="translate(134.4645, 52.503021)"><g><path d="M 7.4375 -21.171875 L 7.4375 -6.4375 C 7.4375 -4.988281 7.710938 -3.988281 8.265625 -3.4375 C 8.816406 -2.882812 9.785156 -2.609375 11.171875 -2.609375 L 13.953125 -2.609375 L 13.953125 0 L 10.703125 0 C 8.554688 0 6.957031 -0.5 5.90625 -1.5 C 4.863281 -2.5 4.34375 -4.144531 4.34375 -6.4375 L 4.34375 -21.171875 L 1.046875 -21.171875 L 1.046875 -23.75 L 4.34375 -23.75 L 4.34375 -29.703125 L 7.4375 -29.703125 L 7.4375 -23.75 L 13.953125 -23.75 L 13.953125 -21.171875 Z M 7.4375 -21.171875 "/></g></g></g></svg>