<svg xmlns="http://www.w3.org/2000/svg" xmlns:xlink="http://www.w3.org/1999/xlink" width="1000" zoomAndPan="magnify" viewBox="0 0 750 675.000002" height="900" preserveAspectRatio="xMidYMid meet" version="1.0"><defs><g/><clipPath id="42ae106000"><path d="M 22.734375 102.203125 L 492.328125 102.203125 L 492.328125 571.796875 L 22.734375 571.796875 Z M 22.734375 102.203125 " clip-rule="nonzero"/></clipPath><clipPath id="c55efda06f"><path d="M 257.53125 102.203125 C 127.855469 102.203125 22.734375 207.328125 22.734375 337 C 22.734375 466.675781 127.855469 571.796875 257.53125 571.796875 C 387.207031 571.796875 492.328125 466.675781 492.328125 337 C 492.328125 207.328125 387.207031 102.203125 257.53125 102.203125 Z M 257.53125 102.203125 " clip-rule="nonzero"/></clipPath><clipPath id="1c4780aa0a"><path d="M 112.027344 191.496094 L 403.035156 191.496094 L 403.035156 482.507812 L 112.027344 482.507812 Z M 112.027344 191.496094 " clip-rule="nonzero"/></clipPath><clipPath id="7891b99abf"><path d="M 257.53125 191.496094 C 177.171875 191.496094 112.027344 256.640625 112.027344 337 C 112.027344 417.359375 177.171875 482.507812 257.53125 482.507812 C 337.890625 482.507812 403.035156 417.359375 403.035156 337 C 403.035156 256.640625 337.890625 191.496094 257.53125 191.496094 Z M 257.53125 191.496094 " clip-rule="nonzero"/></clipPath></defs><g clip-path="url(#42ae106000)"><g clip-path="url(#c55efda06f)"><path fill="#081f5c" d="M 22.734375 102.203125 L 492.328125 102.203125 L 492.328125 571.796875 L 22.734375 571.796875 Z M 22.734375 102.203125 " fill-opacity="1" fill-rule="nonzero"/></g></g><g clip-path="url(#1c4780aa0a)"><g clip-path="url(#7891b99abf)"><path fill="#f7f2eb" d="M 112.027344 191.496094 L 403.035156 191.496094 L 403.035156 482.507812 L 112.027344 482.507812 Z M 112.027344 191.496094 " fill-opacity="1" fill-rule="nonzero"/></g></g><g fill="#081f5c" fill-opacity="1"><g transform="translate(464.965507, 546.53717)"><g><path d="M 29.90625 1.765625 C 26.738281 1.765625 23.644531 1.359375 20.625 0.546875 C 17.613281 -0.253906 15.265625 -1.28125 13.578125 -2.53125 L 13.46875 -2.53125 L 13.796875 0.765625 L 5.40625 0.765625 L 4.96875 -18.203125 L 12.140625 -18.203125 C 12.503906 -14.816406 14.285156 -11.96875 17.484375 -9.65625 C 20.691406 -7.34375 24.613281 -6.1875 29.25 -6.1875 C 31.300781 -6.1875 33.082031 -6.660156 34.59375 -7.609375 C 36.101562 -8.566406 36.859375 -9.929688 36.859375 -11.703125 C 36.859375 -13.023438 36.378906 -14.125 35.421875 -15 C 34.460938 -15.882812 33.320312 -16.617188 32 -17.203125 C 30.675781 -17.796875 28.03125 -18.867188 24.0625 -20.421875 C 19.351562 -22.253906 15.820312 -23.757812 13.46875 -24.9375 C 11.113281 -26.113281 8.992188 -27.859375 7.109375 -30.171875 C 5.234375 -32.492188 4.296875 -35.492188 4.296875 -39.171875 C 4.296875 -42.191406 5.050781 -45.046875 6.5625 -47.734375 C 8.070312 -50.421875 10.390625 -52.628906 13.515625 -54.359375 C 16.640625 -56.085938 20.484375 -56.953125 25.046875 -56.953125 C 27.179688 -56.953125 29.5 -56.617188 32 -55.953125 C 34.5 -55.285156 36.597656 -54.363281 38.296875 -53.1875 L 38.40625 -53.1875 L 38.296875 -56.390625 L 46.6875 -56.390625 L 46.6875 -36.859375 L 39.515625 -36.859375 C 38.847656 -40.679688 37.148438 -43.695312 34.421875 -45.90625 C 31.703125 -48.113281 28.359375 -49.21875 24.390625 -49.21875 C 22.328125 -49.21875 20.597656 -48.738281 19.203125 -47.78125 C 17.804688 -46.820312 17.109375 -45.351562 17.109375 -43.375 C 17.109375 -41.3125 17.914062 -39.78125 19.53125 -38.78125 C 21.15625 -37.789062 23.878906 -36.671875 27.703125 -35.421875 C 28.140625 -35.347656 29.09375 -35.054688 30.5625 -34.546875 C 36.820312 -32.335938 41.625 -29.757812 44.96875 -26.8125 C 48.320312 -23.875 50 -20.015625 50 -15.234375 C 50 -11.554688 49.054688 -8.445312 47.171875 -5.90625 C 45.296875 -3.363281 42.832031 -1.445312 39.78125 -0.15625 C 36.726562 1.125 33.4375 1.765625 29.90625 1.765625 Z M 29.90625 1.765625 "/></g></g></g><g fill="#081f5c" fill-opacity="1"><g transform="translate(518.488186, 546.53717)"><g><path d="M 31.5625 1.765625 C 26.1875 1.765625 21.363281 0.625 17.09375 -1.65625 C 12.832031 -3.9375 9.488281 -7.207031 7.0625 -11.46875 C 4.632812 -15.738281 3.421875 -20.707031 3.421875 -26.375 C 3.421875 -32.332031 4.671875 -37.628906 7.171875 -42.265625 C 9.671875 -46.898438 13.035156 -50.503906 17.265625 -53.078125 C 21.492188 -55.660156 26.148438 -56.953125 31.234375 -56.953125 C 36.523438 -56.953125 41.269531 -55.8125 45.46875 -53.53125 C 49.664062 -51.25 52.976562 -47.953125 55.40625 -43.640625 C 57.832031 -39.335938 59.046875 -34.316406 59.046875 -28.578125 C 59.046875 -22.472656 57.882812 -17.140625 55.5625 -12.578125 C 53.25 -8.015625 50.015625 -4.484375 45.859375 -1.984375 C 41.703125 0.515625 36.9375 1.765625 31.5625 1.765625 Z M 31.78125 -6.0625 C 35.832031 -6.0625 38.664062 -7.9375 40.28125 -11.6875 C 41.894531 -15.445312 42.703125 -20.160156 42.703125 -25.828125 C 42.703125 -32.148438 41.78125 -37.628906 39.9375 -42.265625 C 38.101562 -46.898438 35.203125 -49.21875 31.234375 -49.21875 C 27.179688 -49.21875 24.234375 -47.304688 22.390625 -43.484375 C 20.554688 -39.660156 19.640625 -34.953125 19.640625 -29.359375 C 19.640625 -22.953125 20.632812 -17.46875 22.625 -12.90625 C 24.613281 -8.34375 27.664062 -6.0625 31.78125 -6.0625 Z M 31.78125 -6.0625 "/></g></g></g><g fill="#081f5c" fill-opacity="1"><g transform="translate(580.949706, 546.53717)"><g><path d="M 7.953125 -37.96875 C 7.140625 -40.25 6.546875 -41.992188 6.171875 -43.203125 C 5.804688 -44.421875 5.476562 -45.691406 5.1875 -47.015625 L 0.890625 -46.796875 L 0.890625 -55.1875 L 27.375 -55.1875 L 27.375 -48.109375 C 24.5 -48.035156 23.0625 -46.492188 23.0625 -43.484375 C 23.0625 -42.742188 23.285156 -41.421875 23.734375 -39.515625 L 27.484375 -26.046875 C 28.515625 -22.296875 29.285156 -18.800781 29.796875 -15.5625 L 29.90625 -15.5625 C 30.050781 -16.144531 30.34375 -17.539062 30.78125 -19.75 C 31.226562 -21.957031 31.894531 -24.535156 32.78125 -27.484375 L 40.828125 -55.1875 L 52.859375 -55.1875 L 61.6875 -24.71875 C 62.207031 -22.882812 63.09375 -19.570312 64.34375 -14.78125 L 64.453125 -14.78125 C 64.742188 -16.914062 65.585938 -20.117188 66.984375 -24.390625 L 71.296875 -38.40625 C 71.804688 -40.164062 72.316406 -41.765625 72.828125 -43.203125 C 73.347656 -44.640625 73.90625 -45.945312 74.5 -47.125 L 74.5 -47.234375 L 68.203125 -46.796875 L 68.203125 -55.1875 L 89.171875 -55.1875 L 89.171875 -48.109375 C 85.273438 -48.109375 81.960938 -44.140625 79.234375 -36.203125 L 66.65625 0.328125 L 54.953125 0.328125 L 47.34375 -23.171875 C 46.164062 -26.847656 44.878906 -31.375 43.484375 -36.75 L 43.375 -36.75 C 42.5625 -32.332031 40.867188 -26.039062 38.296875 -17.875 L 32.21875 0.328125 L 21.296875 0.328125 Z M 7.953125 -37.96875 "/></g></g></g><g fill="#081f5c" fill-opacity="1"><g transform="translate(670.448464, 546.53717)"><g><path d="M 29.90625 1.765625 C 26.738281 1.765625 23.644531 1.359375 20.625 0.546875 C 17.613281 -0.253906 15.265625 -1.28125 13.578125 -2.53125 L 13.46875 -2.53125 L 13.796875 0.765625 L 5.40625 0.765625 L 4.96875 -18.203125 L 12.140625 -18.203125 C 12.503906 -14.816406 14.285156 -11.96875 17.484375 -9.65625 C 20.691406 -7.34375 24.613281 -6.1875 29.25 -6.1875 C 31.300781 -6.1875 33.082031 -6.660156 34.59375 -7.609375 C 36.101562 -8.566406 36.859375 -9.929688 36.859375 -11.703125 C 36.859375 -13.023438 36.378906 -14.125 35.421875 -15 C 34.460938 -15.882812 33.320312 -16.617188 32 -17.203125 C 30.675781 -17.796875 28.03125 -18.867188 24.0625 -20.421875 C 19.351562 -22.253906 15.820312 -23.757812 13.46875 -24.9375 C 11.113281 -26.113281 8.992188 -27.859375 7.109375 -30.171875 C 5.234375 -32.492188 4.296875 -35.492188 4.296875 -39.171875 C 4.296875 -42.191406 5.050781 -45.046875 6.5625 -47.734375 C 8.070312 -50.421875 10.390625 -52.628906 13.515625 -54.359375 C 16.640625 -56.085938 20.484375 -56.953125 25.046875 -56.953125 C 27.179688 -56.953125 29.5 -56.617188 32 -55.953125 C 34.5 -55.285156 36.597656 -54.363281 38.296875 -53.1875 L 38.40625 -53.1875 L 38.296875 -56.390625 L 46.6875 -56.390625 L 46.6875 -36.859375 L 39.515625 -36.859375 C 38.847656 -40.679688 37.148438 -43.695312 34.421875 -45.90625 C 31.703125 -48.113281 28.359375 -49.21875 24.390625 -49.21875 C 22.328125 -49.21875 20.597656 -48.738281 19.203125 -47.78125 C 17.804688 -46.820312 17.109375 -45.351562 17.109375 -43.375 C 17.109375 -41.3125 17.914062 -39.78125 19.53125 -38.78125 C 21.15625 -37.789062 23.878906 -36.671875 27.703125 -35.421875 C 28.140625 -35.347656 29.09375 -35.054688 30.5625 -34.546875 C 36.820312 -32.335938 41.625 -29.757812 44.96875 -26.8125 C 48.320312 -23.875 50 -20.015625 50 -15.234375 C 50 -11.554688 49.054688 -8.445312 47.171875 -5.90625 C 45.296875 -3.363281 42.832031 -1.445312 39.78125 -0.15625 C 36.726562 1.125 33.4375 1.765625 29.90625 1.765625 Z M 29.90625 1.765625 "/></g></g></g></svg>