<svg xmlns="http://www.w3.org/2000/svg" xmlns:xlink="http://www.w3.org/1999/xlink" width="624" zoomAndPan="magnify" viewBox="0 0 468 341.249999" height="455" preserveAspectRatio="xMidYMid meet" version="1.0"><defs><clipPath id="817f47b53d"><path d="M 40 78 L 268 78 L 268 340.5 L 40 340.5 Z M 40 78 " clip-rule="nonzero"/></clipPath><clipPath id="4c8b1b4a0f"><path d="M 128.925781 56.484375 L 289.796875 359.679688 L 179.859375 418.011719 L 18.988281 114.816406 Z M 128.925781 56.484375 " clip-rule="nonzero"/></clipPath><clipPath id="aa06c9ed3f"><path d="M 260.484375 304.433594 C 276.59375 334.789062 265.039062 372.460938 234.679688 388.566406 C 204.320312 404.675781 166.652344 393.125 150.542969 362.765625 L 48.152344 169.789062 C 32.046875 139.429688 43.597656 101.757812 73.957031 85.652344 C 104.316406 69.542969 141.984375 81.09375 158.09375 111.453125 Z M 260.484375 304.433594 " clip-rule="nonzero"/></clipPath><clipPath id="6a2e9daad1"><path d="M 40 78 L 268 78 L 268 340.5 L 40 340.5 Z M 40 78 " clip-rule="nonzero"/></clipPath><clipPath id="d487e852ba"><path d="M 128.925781 56.484375 L 289.570312 359.253906 L 179.835938 417.476562 L 19.191406 114.710938 Z M 128.925781 56.484375 " clip-rule="nonzero"/></clipPath><clipPath id="6761d97b93"><path d="M 128.933594 56.492188 L 291.160156 362.246094 L 181.226562 420.574219 L 19 114.820312 Z M 128.933594 56.492188 " clip-rule="nonzero"/></clipPath><clipPath id="2228e872b3"><path d="M 260.480469 304.421875 C 276.585938 334.78125 265.035156 372.449219 234.675781 388.554688 C 204.320312 404.660156 166.652344 393.109375 150.546875 362.753906 L 48.164062 169.789062 C 32.054688 139.429688 43.609375 101.761719 73.964844 85.65625 C 104.324219 69.550781 141.988281 81.101562 158.097656 111.457031 Z M 260.480469 304.421875 " clip-rule="nonzero"/></clipPath><clipPath id="6128167b8c"><path d="M 220 70 L 467.484375 70 L 467.484375 340.5 L 220 340.5 Z M 220 70 " clip-rule="nonzero"/></clipPath><clipPath id="e49e33919f"><path d="M 308.53125 48.84375 L 489.222656 389.398438 L 379.285156 447.730469 L 198.589844 107.175781 Z M 308.53125 48.84375 " clip-rule="nonzero"/></clipPath><clipPath id="cbacbcd21e"><path d="M 459.839844 334.019531 C 475.949219 364.378906 464.394531 402.046875 434.035156 418.15625 C 403.675781 434.265625 366.007812 422.710938 349.898438 392.351562 L 227.757812 162.144531 C 211.648438 131.785156 223.199219 94.117188 253.558594 78.007812 C 283.917969 61.902344 321.589844 73.453125 337.695312 103.8125 Z M 459.839844 334.019531 " clip-rule="nonzero"/></clipPath><clipPath id="db1c573abb"><path d="M 220 70 L 467.484375 70 L 467.484375 340.5 L 220 340.5 Z M 220 70 " clip-rule="nonzero"/></clipPath><clipPath id="ca53ff565b"><path d="M 308.53125 48.84375 L 489.167969 389.292969 L 379.429688 447.515625 L 198.792969 107.066406 Z M 308.53125 48.84375 " clip-rule="nonzero"/></clipPath><clipPath id="bf27c4f5ef"><path d="M 308.535156 48.847656 L 490.8125 392.390625 L 380.878906 450.71875 L 198.601562 107.179688 Z M 308.535156 48.847656 " clip-rule="nonzero"/></clipPath><clipPath id="ebb8d6b5fc"><path d="M 459.835938 334.007812 C 475.941406 364.367188 464.390625 402.03125 434.03125 418.140625 C 403.675781 434.246094 366.007812 422.695312 349.902344 392.335938 L 227.765625 162.144531 C 211.65625 131.789062 223.210938 94.121094 253.566406 78.011719 C 283.925781 61.90625 321.589844 73.457031 337.699219 103.816406 Z M 459.835938 334.007812 " clip-rule="nonzero"/></clipPath><clipPath id="c52599d865"><path d="M 100 1 L 382 1 L 382 340.5 L 100 340.5 Z M 100 1 " clip-rule="nonzero"/></clipPath><clipPath id="eb7d5259bc"><path d="M 188.203125 -20.003906 L 403.078125 384.96875 L 293.136719 443.300781 L 78.265625 38.328125 Z M 188.203125 -20.003906 " clip-rule="nonzero"/></clipPath><clipPath id="afc7ae35b2"><path d="M 373.785156 329.761719 C 389.894531 360.121094 378.339844 397.789062 347.980469 413.898438 C 317.621094 430.007812 279.953125 418.453125 263.84375 388.09375 L 107.429688 93.296875 C 91.324219 62.9375 102.875 25.269531 133.234375 9.160156 C 163.59375 -6.949219 201.261719 4.605469 217.371094 34.964844 Z M 373.785156 329.761719 " clip-rule="nonzero"/></clipPath><clipPath id="df7b4d4b0c"><path d="M 188.203125 -20.003906 L 402.851562 384.539062 L 292.910156 442.871094 L 78.265625 38.328125 Z M 188.203125 -20.003906 " clip-rule="nonzero"/></clipPath><linearGradient x1="-57.051051" gradientTransform="matrix(0.227862, 0.429455, -0.429455, 0.227862, 188.204589, -20.005801)" y1="0" x2="849.489796" gradientUnits="userSpaceOnUse" y2="0" id="7a19bdb2c6"><stop stop-opacity="1" stop-color="rgb(0%, 47.799683%, 77.999878%)" offset="0"/><stop stop-opacity="1" stop-color="rgb(0%, 47.799683%, 77.999878%)" offset="0.0625"/><stop stop-opacity="1" stop-color="rgb(0%, 47.628784%, 78.053284%)" offset="0.0703125"/><stop stop-opacity="1" stop-color="rgb(0%, 47.279358%, 78.164673%)" offset="0.078125"/><stop stop-opacity="1" stop-color="rgb(0%, 46.920776%, 78.279114%)" offset="0.0859375"/><stop stop-opacity="1" stop-color="rgb(0%, 46.562195%, 78.395081%)" offset="0.09375"/><stop stop-opacity="1" stop-color="rgb(0%, 46.202087%, 78.509521%)" offset="0.101562"/><stop stop-opacity="1" stop-color="rgb(0%, 45.843506%, 78.625488%)" offset="0.109375"/><stop stop-opacity="1" stop-color="rgb(0%, 45.483398%, 78.739929%)" offset="0.117188"/><stop stop-opacity="1" stop-color="rgb(0%, 45.124817%, 78.85437%)" offset="0.125"/><stop stop-opacity="1" stop-color="rgb(0%, 44.764709%, 78.970337%)" offset="0.132812"/><stop stop-opacity="1" stop-color="rgb(0%, 44.406128%, 79.084778%)" offset="0.140625"/><stop stop-opacity="1" stop-color="rgb(0%, 44.047546%, 79.199219%)" offset="0.148438"/><stop stop-opacity="1" stop-color="rgb(0%, 43.687439%, 79.315186%)" offset="0.15625"/><stop stop-opacity="1" stop-color="rgb(0%, 43.328857%, 79.429626%)" offset="0.164062"/><stop stop-opacity="1" stop-color="rgb(0%, 42.96875%, 79.544067%)" offset="0.171875"/><stop stop-opacity="1" stop-color="rgb(0%, 42.610168%, 79.660034%)" offset="0.179688"/><stop stop-opacity="1" stop-color="rgb(0%, 42.251587%, 79.774475%)" offset="0.1875"/><stop stop-opacity="1" stop-color="rgb(0%, 41.891479%, 79.888916%)" offset="0.195312"/><stop stop-opacity="1" stop-color="rgb(0%, 41.532898%, 80.004883%)" offset="0.203125"/><stop stop-opacity="1" stop-color="rgb(0%, 41.172791%, 80.119324%)" offset="0.210937"/><stop stop-opacity="1" stop-color="rgb(0%, 40.814209%, 80.233765%)" offset="0.21875"/><stop stop-opacity="1" stop-color="rgb(0%, 40.454102%, 80.349731%)" offset="0.226562"/><stop stop-opacity="1" stop-color="rgb(0%, 40.09552%, 80.464172%)" offset="0.234375"/><stop stop-opacity="1" stop-color="rgb(0%, 39.736938%, 80.580139%)" offset="0.242187"/><stop stop-opacity="1" stop-color="rgb(0%, 39.376831%, 80.69458%)" offset="0.25"/><stop stop-opacity="1" stop-color="rgb(0%, 39.01825%, 80.809021%)" offset="0.257812"/><stop stop-opacity="1" stop-color="rgb(0%, 38.658142%, 80.924988%)" offset="0.265625"/><stop stop-opacity="1" stop-color="rgb(0%, 38.299561%, 81.039429%)" offset="0.273437"/><stop stop-opacity="1" stop-color="rgb(0%, 37.940979%, 81.15387%)" offset="0.28125"/><stop stop-opacity="1" stop-color="rgb(0%, 37.580872%, 81.269836%)" offset="0.289062"/><stop stop-opacity="1" stop-color="rgb(0%, 37.22229%, 81.384277%)" offset="0.296875"/><stop stop-opacity="1" stop-color="rgb(0%, 36.862183%, 81.498718%)" offset="0.304688"/><stop stop-opacity="1" stop-color="rgb(0%, 36.503601%, 81.614685%)" offset="0.3125"/><stop stop-opacity="1" stop-color="rgb(0%, 36.143494%, 81.729126%)" offset="0.320312"/><stop stop-opacity="1" stop-color="rgb(0%, 35.784912%, 81.843567%)" offset="0.328125"/><stop stop-opacity="1" stop-color="rgb(0%, 35.426331%, 81.959534%)" offset="0.335938"/><stop stop-opacity="1" stop-color="rgb(0%, 35.066223%, 82.073975%)" offset="0.34375"/><stop stop-opacity="1" stop-color="rgb(0%, 34.707642%, 82.188416%)" offset="0.351562"/><stop stop-opacity="1" stop-color="rgb(0%, 34.347534%, 82.304382%)" offset="0.359375"/><stop stop-opacity="1" stop-color="rgb(0%, 33.988953%, 82.418823%)" offset="0.367188"/><stop stop-opacity="1" stop-color="rgb(0%, 33.630371%, 82.533264%)" offset="0.375"/><stop stop-opacity="1" stop-color="rgb(0%, 33.270264%, 82.649231%)" offset="0.382812"/><stop stop-opacity="1" stop-color="rgb(0%, 32.911682%, 82.763672%)" offset="0.390625"/><stop stop-opacity="1" stop-color="rgb(0%, 32.551575%, 82.879639%)" offset="0.398437"/><stop stop-opacity="1" stop-color="rgb(0%, 32.192993%, 82.99408%)" offset="0.40625"/><stop stop-opacity="1" stop-color="rgb(0%, 31.834412%, 83.108521%)" offset="0.414063"/><stop stop-opacity="1" stop-color="rgb(0%, 31.474304%, 83.224487%)" offset="0.421875"/><stop stop-opacity="1" stop-color="rgb(0%, 31.115723%, 83.338928%)" offset="0.429688"/><stop stop-opacity="1" stop-color="rgb(0%, 30.755615%, 83.453369%)" offset="0.4375"/><stop stop-opacity="1" stop-color="rgb(0%, 30.397034%, 83.569336%)" offset="0.445312"/><stop stop-opacity="1" stop-color="rgb(0%, 30.036926%, 83.683777%)" offset="0.453125"/><stop stop-opacity="1" stop-color="rgb(0%, 29.678345%, 83.798218%)" offset="0.460938"/><stop stop-opacity="1" stop-color="rgb(0%, 29.319763%, 83.914185%)" offset="0.46875"/><stop stop-opacity="1" stop-color="rgb(0%, 28.959656%, 84.028625%)" offset="0.476562"/><stop stop-opacity="1" stop-color="rgb(0%, 28.601074%, 84.143066%)" offset="0.484375"/><stop stop-opacity="1" stop-color="rgb(0%, 28.240967%, 84.259033%)" offset="0.492187"/><stop stop-opacity="1" stop-color="rgb(0%, 27.882385%, 84.373474%)" offset="0.5"/><stop stop-opacity="1" stop-color="rgb(0%, 27.523804%, 84.487915%)" offset="0.507812"/><stop stop-opacity="1" stop-color="rgb(0%, 27.163696%, 84.603882%)" offset="0.515625"/><stop stop-opacity="1" stop-color="rgb(0%, 26.805115%, 84.718323%)" offset="0.523438"/><stop stop-opacity="1" stop-color="rgb(0%, 26.445007%, 84.83429%)" offset="0.53125"/><stop stop-opacity="1" stop-color="rgb(0%, 26.086426%, 84.94873%)" offset="0.539062"/><stop stop-opacity="1" stop-color="rgb(0%, 25.726318%, 85.063171%)" offset="0.546875"/><stop stop-opacity="1" stop-color="rgb(0%, 25.367737%, 85.179138%)" offset="0.554688"/><stop stop-opacity="1" stop-color="rgb(0%, 25.009155%, 85.293579%)" offset="0.5625"/><stop stop-opacity="1" stop-color="rgb(0%, 24.649048%, 85.40802%)" offset="0.570312"/><stop stop-opacity="1" stop-color="rgb(0%, 24.290466%, 85.523987%)" offset="0.578125"/><stop stop-opacity="1" stop-color="rgb(0%, 23.930359%, 85.638428%)" offset="0.585938"/><stop stop-opacity="1" stop-color="rgb(0%, 23.571777%, 85.752869%)" offset="0.59375"/><stop stop-opacity="1" stop-color="rgb(0%, 23.213196%, 85.868835%)" offset="0.601562"/><stop stop-opacity="1" stop-color="rgb(0%, 22.853088%, 85.983276%)" offset="0.609375"/><stop stop-opacity="1" stop-color="rgb(0%, 22.494507%, 86.097717%)" offset="0.617188"/><stop stop-opacity="1" stop-color="rgb(0%, 22.134399%, 86.213684%)" offset="0.625"/><stop stop-opacity="1" stop-color="rgb(0%, 21.775818%, 86.328125%)" offset="0.632812"/><stop stop-opacity="1" stop-color="rgb(0%, 21.417236%, 86.442566%)" offset="0.640625"/><stop stop-opacity="1" stop-color="rgb(0%, 21.057129%, 86.558533%)" offset="0.648437"/><stop stop-opacity="1" stop-color="rgb(0%, 20.698547%, 86.672974%)" offset="0.65625"/><stop stop-opacity="1" stop-color="rgb(0%, 20.33844%, 86.78894%)" offset="0.664063"/><stop stop-opacity="1" stop-color="rgb(0%, 19.979858%, 86.903381%)" offset="0.671875"/><stop stop-opacity="1" stop-color="rgb(0%, 19.619751%, 87.017822%)" offset="0.679688"/><stop stop-opacity="1" stop-color="rgb(0%, 19.261169%, 87.133789%)" offset="0.6875"/><stop stop-opacity="1" stop-color="rgb(0%, 18.902588%, 87.24823%)" offset="0.695312"/><stop stop-opacity="1" stop-color="rgb(0%, 18.54248%, 87.362671%)" offset="0.703125"/><stop stop-opacity="1" stop-color="rgb(0%, 18.183899%, 87.478638%)" offset="0.710938"/><stop stop-opacity="1" stop-color="rgb(0%, 17.823792%, 87.593079%)" offset="0.71875"/><stop stop-opacity="1" stop-color="rgb(0%, 17.46521%, 87.70752%)" offset="0.726562"/><stop stop-opacity="1" stop-color="rgb(0%, 17.106628%, 87.823486%)" offset="0.734375"/><stop stop-opacity="1" stop-color="rgb(0%, 16.746521%, 87.937927%)" offset="0.742187"/><stop stop-opacity="1" stop-color="rgb(0%, 16.387939%, 88.052368%)" offset="0.75"/><stop stop-opacity="1" stop-color="rgb(0%, 16.027832%, 88.168335%)" offset="0.757813"/><stop stop-opacity="1" stop-color="rgb(0%, 15.66925%, 88.282776%)" offset="0.765625"/><stop stop-opacity="1" stop-color="rgb(0%, 15.309143%, 88.397217%)" offset="0.773438"/><stop stop-opacity="1" stop-color="rgb(0%, 14.950562%, 88.513184%)" offset="0.78125"/><stop stop-opacity="1" stop-color="rgb(0%, 14.59198%, 88.627625%)" offset="0.789062"/><stop stop-opacity="1" stop-color="rgb(0%, 14.231873%, 88.743591%)" offset="0.796875"/><stop stop-opacity="1" stop-color="rgb(0%, 13.873291%, 88.858032%)" offset="0.804688"/><stop stop-opacity="1" stop-color="rgb(0%, 13.513184%, 88.972473%)" offset="0.8125"/><stop stop-opacity="1" stop-color="rgb(0%, 13.154602%, 89.08844%)" offset="0.820312"/><stop stop-opacity="1" stop-color="rgb(0%, 12.796021%, 89.202881%)" offset="0.828125"/><stop stop-opacity="1" stop-color="rgb(0%, 12.435913%, 89.317322%)" offset="0.835937"/><stop stop-opacity="1" stop-color="rgb(0%, 12.077332%, 89.433289%)" offset="0.84375"/><stop stop-opacity="1" stop-color="rgb(0%, 11.717224%, 89.547729%)" offset="0.851563"/><stop stop-opacity="1" stop-color="rgb(0%, 11.358643%, 89.66217%)" offset="0.859375"/><stop stop-opacity="1" stop-color="rgb(0%, 10.998535%, 89.778137%)" offset="0.867188"/><stop stop-opacity="1" stop-color="rgb(0%, 10.639954%, 89.892578%)" offset="0.875"/><stop stop-opacity="1" stop-color="rgb(0%, 10.281372%, 90.007019%)" offset="0.882812"/><stop stop-opacity="1" stop-color="rgb(0%, 9.921265%, 90.122986%)" offset="0.890625"/><stop stop-opacity="1" stop-color="rgb(0%, 9.562683%, 90.237427%)" offset="0.898438"/><stop stop-opacity="1" stop-color="rgb(0%, 9.202576%, 90.351868%)" offset="0.90625"/><stop stop-opacity="1" stop-color="rgb(0%, 8.843994%, 90.467834%)" offset="0.914062"/><stop stop-opacity="1" stop-color="rgb(0%, 8.485413%, 90.582275%)" offset="0.921875"/><stop stop-opacity="1" stop-color="rgb(0%, 8.125305%, 90.698242%)" offset="0.929687"/><stop stop-opacity="1" stop-color="rgb(0%, 7.766724%, 90.812683%)" offset="0.9375"/><stop stop-opacity="1" stop-color="rgb(0%, 7.406616%, 90.927124%)" offset="0.945313"/><stop stop-opacity="1" stop-color="rgb(0%, 7.048035%, 91.043091%)" offset="0.953125"/><stop stop-opacity="1" stop-color="rgb(0%, 6.689453%, 91.157532%)" offset="0.960938"/><stop stop-opacity="1" stop-color="rgb(0%, 6.329346%, 91.271973%)" offset="0.96875"/><stop stop-opacity="1" stop-color="rgb(0%, 5.970764%, 91.387939%)" offset="0.976563"/><stop stop-opacity="1" stop-color="rgb(0%, 5.610657%, 91.50238%)" offset="0.984375"/><stop stop-opacity="1" stop-color="rgb(0%, 5.252075%, 91.616821%)" offset="0.992188"/><stop stop-opacity="1" stop-color="rgb(0%, 4.891968%, 91.732788%)" offset="1"/></linearGradient><clipPath id="4c2f865469"><path d="M 100 1 L 382 1 L 382 340.5 L 100 340.5 Z M 100 1 " clip-rule="nonzero"/></clipPath><clipPath id="c7ccfc26a8"><path d="M 188.203125 -20.003906 L 402.863281 384.566406 L 293.128906 442.792969 L 78.46875 38.21875 Z M 188.203125 -20.003906 " clip-rule="nonzero"/></clipPath><clipPath id="e578e0b29c"><path d="M 188.207031 -19.996094 L 403.296875 385.382812 L 293.363281 443.710938 L 78.277344 38.332031 Z M 188.207031 -19.996094 " clip-rule="nonzero"/></clipPath><clipPath id="3d105d73b5"><path d="M 373.777344 329.746094 C 389.886719 360.105469 378.332031 397.769531 347.976562 413.878906 C 317.617188 429.984375 279.953125 418.433594 263.84375 388.074219 L 107.441406 93.296875 C 91.332031 62.941406 102.886719 25.273438 133.242188 9.167969 C 163.597656 -6.941406 201.265625 4.613281 217.375 34.96875 Z M 373.777344 329.746094 " clip-rule="nonzero"/></clipPath></defs><g clip-path="url(#817f47b53d)"><g clip-path="url(#4c8b1b4a0f)"><g clip-path="url(#aa06c9ed3f)"><path fill="#00e0d8" d="M 128.925781 56.484375 L 289.570312 359.25 L 179.628906 417.582031 L 18.988281 114.816406 Z M 128.925781 56.484375 " fill-opacity="1" fill-rule="nonzero"/></g></g></g><g clip-path="url(#6a2e9daad1)"><g clip-path="url(#d487e852ba)"><g clip-path="url(#6761d97b93)"><g clip-path="url(#2228e872b3)"><path stroke-linecap="butt" transform="matrix(0.350751, 0.661067, -0.661067, 0.350751, 128.931764, 56.492202)" fill="none" stroke-linejoin="miter" d="M 375.045681 -0.00154805 C 420.968808 0.0016563 458.197859 37.22772 458.194655 83.150847 C 458.193897 129.069364 420.967834 166.298415 375.049317 166.297657 L 83.15084 166.2963 C 37.225266 166.297707 -0.00133894 129.067032 -0.000581074 83.148516 C 0.00262328 37.225388 37.22624 0.000948436 83.147203 -0.00290464 Z M 375.045681 -0.00154805 " stroke="#000000" stroke-width="1" stroke-opacity="1" stroke-miterlimit="4"/></g></g></g></g><g clip-path="url(#6128167b8c)"><g clip-path="url(#e49e33919f)"><g clip-path="url(#cbacbcd21e)"><path fill="#00e0d8" d="M 308.53125 48.84375 L 488.996094 388.96875 L 379.054688 447.304688 L 198.589844 107.175781 Z M 308.53125 48.84375 " fill-opacity="1" fill-rule="nonzero"/></g></g></g><g clip-path="url(#db1c573abb)"><g clip-path="url(#ca53ff565b)"><g clip-path="url(#bf27c4f5ef)"><g clip-path="url(#ebb8d6b5fc)"><path stroke-linecap="butt" transform="matrix(0.350751, 0.661067, -0.661067, 0.350751, 308.534066, 48.849248)" fill="none" stroke-linejoin="miter" d="M 431.362153 -0.00170334 C 477.28528 0.00150102 514.50972 37.225118 514.511127 83.150692 C 514.510369 129.069208 477.284306 166.298259 431.361178 166.295055 L 83.148513 166.296185 C 37.22755 166.300038 0.000945952 129.069364 -0.00290713 83.148401 C 0.000297227 37.225273 37.223914 0.000833181 83.149488 -0.000573408 Z M 431.362153 -0.00170334 " stroke="#000000" stroke-width="1" stroke-opacity="1" stroke-miterlimit="4"/></g></g></g></g><g clip-path="url(#c52599d865)"><g clip-path="url(#eb7d5259bc)"><g clip-path="url(#afc7ae35b2)"><g clip-path="url(#df7b4d4b0c)"><path fill="url(#7a19bdb2c6)" d="M 324.304688 -123.617188 L -49.65625 74.800781 L 156.910156 464.117188 L 530.871094 265.703125 Z M 324.304688 -123.617188 " fill-rule="nonzero"/></g></g></g></g><g clip-path="url(#4c2f865469)"><g clip-path="url(#c7ccfc26a8)"><g clip-path="url(#e578e0b29c)"><g clip-path="url(#3d105d73b5)"><path stroke-linecap="butt" transform="matrix(0.350751, 0.661067, -0.661067, 0.350751, 188.20885, -19.997737)" fill="none" stroke-linejoin="miter" d="M 529.059928 -0.000222751 C 574.985502 -0.00162934 612.207496 37.226598 612.211349 83.147562 C 612.208144 129.070689 574.984528 166.295129 529.058954 166.296536 L 83.148346 166.294588 C 37.227383 166.298441 0.000778993 129.067766 0.00153686 83.14925 C -0.00231622 37.228287 37.228358 0.00168221 83.149321 -0.00217087 Z M 529.059928 -0.000222751 " stroke="#000000" stroke-width="1" stroke-opacity="1" stroke-miterlimit="4"/></g></g></g></g></svg>