<svg xmlns="http://www.w3.org/2000/svg" xmlns:xlink="http://www.w3.org/1999/xlink" width="200" zoomAndPan="magnify" viewBox="0 0 150 74.999997" height="100" preserveAspectRatio="xMidYMid meet" version="1.0"><defs><g/></defs><g fill="#00e0d8" fill-opacity="1"><g transform="translate(3.855471, 53.249995)"><g><path d="M 15.0625 0.328125 C 12.738281 0.328125 10.644531 -0.1875 8.78125 -1.21875 C 6.925781 -2.257812 5.460938 -3.75 4.390625 -5.6875 C 3.316406 -7.625 2.78125 -9.910156 2.78125 -12.546875 C 2.78125 -15.179688 3.316406 -17.46875 4.390625 -19.40625 C 5.460938 -21.34375 6.925781 -22.828125 8.78125 -23.859375 C 10.644531 -24.898438 12.738281 -25.421875 15.0625 -25.421875 C 17.382812 -25.421875 19.472656 -24.898438 21.328125 -23.859375 C 23.191406 -22.828125 24.648438 -21.34375 25.703125 -19.40625 C 26.753906 -17.46875 27.28125 -15.179688 27.28125 -12.546875 C 27.28125 -9.910156 26.753906 -7.625 25.703125 -5.6875 C 24.648438 -3.75 23.191406 -2.257812 21.328125 -1.21875 C 19.472656 -0.1875 17.382812 0.328125 15.0625 0.328125 Z M 15.0625 -0.515625 C 17.070312 -0.515625 18.925781 -0.953125 20.625 -1.828125 C 22.332031 -2.710938 23.710938 -4.050781 24.765625 -5.84375 C 25.816406 -7.644531 26.34375 -9.878906 26.34375 -12.546875 C 26.34375 -15.210938 25.816406 -17.441406 24.765625 -19.234375 C 23.710938 -21.035156 22.332031 -22.375 20.625 -23.25 C 18.925781 -24.132812 17.070312 -24.578125 15.0625 -24.578125 C 13.039062 -24.578125 11.171875 -24.132812 9.453125 -23.25 C 7.734375 -22.375 6.347656 -21.03125 5.296875 -19.21875 C 4.242188 -17.40625 3.71875 -15.179688 3.71875 -12.546875 C 3.71875 -9.910156 4.242188 -7.6875 5.296875 -5.875 C 6.347656 -4.0625 7.734375 -2.710938 9.453125 -1.828125 C 11.171875 -0.953125 13.039062 -0.515625 15.0625 -0.515625 Z M 15.0625 -0.515625 "/></g></g></g><g fill="#00e0d8" fill-opacity="1"><g transform="translate(33.910675, 53.249995)"><g><path d="M 12.03125 0.328125 C 9.28125 0.328125 7.054688 -0.226562 5.359375 -1.34375 C 3.671875 -2.457031 2.691406 -4.144531 2.421875 -6.40625 L 3.34375 -6.40625 C 3.53125 -4.550781 4.359375 -3.101562 5.828125 -2.0625 C 7.304688 -1.03125 9.390625 -0.515625 12.078125 -0.515625 C 13.441406 -0.515625 14.640625 -0.773438 15.671875 -1.296875 C 16.710938 -1.828125 17.507812 -2.53125 18.0625 -3.40625 C 18.625 -4.289062 18.90625 -5.242188 18.90625 -6.265625 C 18.90625 -7.390625 18.585938 -8.296875 17.953125 -8.984375 C 17.316406 -9.679688 16.523438 -10.21875 15.578125 -10.59375 C 14.640625 -10.96875 13.347656 -11.367188 11.703125 -11.796875 C 9.878906 -12.265625 8.398438 -12.726562 7.265625 -13.1875 C 6.140625 -13.65625 5.179688 -14.367188 4.390625 -15.328125 C 3.597656 -16.296875 3.203125 -17.566406 3.203125 -19.140625 C 3.203125 -20.253906 3.539062 -21.289062 4.21875 -22.25 C 4.90625 -23.21875 5.84375 -23.988281 7.03125 -24.5625 C 8.226562 -25.132812 9.570312 -25.421875 11.0625 -25.421875 C 13.601562 -25.421875 15.644531 -24.785156 17.1875 -23.515625 C 18.738281 -22.242188 19.578125 -20.476562 19.703125 -18.21875 L 18.765625 -18.21875 C 18.679688 -20.070312 17.976562 -21.59375 16.65625 -22.78125 C 15.34375 -23.976562 13.476562 -24.578125 11.0625 -24.578125 C 9.757812 -24.578125 8.582031 -24.328125 7.53125 -23.828125 C 6.476562 -23.335938 5.648438 -22.671875 5.046875 -21.828125 C 4.441406 -20.992188 4.140625 -20.097656 4.140625 -19.140625 C 4.140625 -17.773438 4.492188 -16.675781 5.203125 -15.84375 C 5.910156 -15.007812 6.785156 -14.390625 7.828125 -13.984375 C 8.867188 -13.585938 10.253906 -13.15625 11.984375 -12.6875 C 13.753906 -12.1875 15.140625 -11.734375 16.140625 -11.328125 C 17.148438 -10.929688 18.007812 -10.320312 18.71875 -9.5 C 19.4375 -8.675781 19.796875 -7.597656 19.796875 -6.265625 C 19.796875 -5.035156 19.453125 -3.914062 18.765625 -2.90625 C 18.085938 -1.894531 17.160156 -1.101562 15.984375 -0.53125 C 14.804688 0.0390625 13.488281 0.328125 12.03125 0.328125 Z M 12.03125 0.328125 "/></g></g></g><g fill="#00e0d8" fill-opacity="1"><g transform="translate(56.347559, 53.249995)"><g><path d="M 15.0625 0.328125 C 12.738281 0.328125 10.644531 -0.1875 8.78125 -1.21875 C 6.925781 -2.257812 5.460938 -3.75 4.390625 -5.6875 C 3.316406 -7.625 2.78125 -9.910156 2.78125 -12.546875 C 2.78125 -15.179688 3.316406 -17.46875 4.390625 -19.40625 C 5.460938 -21.34375 6.925781 -22.828125 8.78125 -23.859375 C 10.644531 -24.898438 12.738281 -25.421875 15.0625 -25.421875 C 17.382812 -25.421875 19.472656 -24.898438 21.328125 -23.859375 C 23.191406 -22.828125 24.648438 -21.34375 25.703125 -19.40625 C 26.753906 -17.46875 27.28125 -15.179688 27.28125 -12.546875 C 27.28125 -9.910156 26.753906 -7.625 25.703125 -5.6875 C 24.648438 -3.75 23.191406 -2.257812 21.328125 -1.21875 C 19.472656 -0.1875 17.382812 0.328125 15.0625 0.328125 Z M 15.0625 -0.515625 C 17.070312 -0.515625 18.925781 -0.953125 20.625 -1.828125 C 22.332031 -2.710938 23.710938 -4.050781 24.765625 -5.84375 C 25.816406 -7.644531 26.34375 -9.878906 26.34375 -12.546875 C 26.34375 -15.210938 25.816406 -17.441406 24.765625 -19.234375 C 23.710938 -21.035156 22.332031 -22.375 20.625 -23.25 C 18.925781 -24.132812 17.070312 -24.578125 15.0625 -24.578125 C 13.039062 -24.578125 11.171875 -24.132812 9.453125 -23.25 C 7.734375 -22.375 6.347656 -21.03125 5.296875 -19.21875 C 4.242188 -17.40625 3.71875 -15.179688 3.71875 -12.546875 C 3.71875 -9.910156 4.242188 -7.6875 5.296875 -5.875 C 6.347656 -4.0625 7.734375 -2.710938 9.453125 -1.828125 C 11.171875 -0.953125 13.039062 -0.515625 15.0625 -0.515625 Z M 15.0625 -0.515625 "/></g></g></g><g fill="#00e0d8" fill-opacity="1"><g transform="translate(86.402763, 53.249995)"><g><path d="M 36.390625 -25.09375 L 28.484375 0 L 27.78125 0 L 18.640625 -23.375 L 9.53125 0 L 8.828125 0 L 0.921875 -25.09375 L 1.90625 -25.09375 L 9.25 -1.671875 L 18.3125 -25.09375 L 19 -25.09375 L 28.0625 -1.671875 L 35.40625 -25.09375 Z M 36.390625 -25.09375 "/></g></g></g><g fill="#00e0d8" fill-opacity="1"><g transform="translate(123.704662, 53.249995)"><g><path d="M 12.03125 0.328125 C 9.28125 0.328125 7.054688 -0.226562 5.359375 -1.34375 C 3.671875 -2.457031 2.691406 -4.144531 2.421875 -6.40625 L 3.34375 -6.40625 C 3.53125 -4.550781 4.359375 -3.101562 5.828125 -2.0625 C 7.304688 -1.03125 9.390625 -0.515625 12.078125 -0.515625 C 13.441406 -0.515625 14.640625 -0.773438 15.671875 -1.296875 C 16.710938 -1.828125 17.507812 -2.53125 18.0625 -3.40625 C 18.625 -4.289062 18.90625 -5.242188 18.90625 -6.265625 C 18.90625 -7.390625 18.585938 -8.296875 17.953125 -8.984375 C 17.316406 -9.679688 16.523438 -10.21875 15.578125 -10.59375 C 14.640625 -10.96875 13.347656 -11.367188 11.703125 -11.796875 C 9.878906 -12.265625 8.398438 -12.726562 7.265625 -13.1875 C 6.140625 -13.65625 5.179688 -14.367188 4.390625 -15.328125 C 3.597656 -16.296875 3.203125 -17.566406 3.203125 -19.140625 C 3.203125 -20.253906 3.539062 -21.289062 4.21875 -22.25 C 4.90625 -23.21875 5.84375 -23.988281 7.03125 -24.5625 C 8.226562 -25.132812 9.570312 -25.421875 11.0625 -25.421875 C 13.601562 -25.421875 15.644531 -24.785156 17.1875 -23.515625 C 18.738281 -22.242188 19.578125 -20.476562 19.703125 -18.21875 L 18.765625 -18.21875 C 18.679688 -20.070312 17.976562 -21.59375 16.65625 -22.78125 C 15.34375 -23.976562 13.476562 -24.578125 11.0625 -24.578125 C 9.757812 -24.578125 8.582031 -24.328125 7.53125 -23.828125 C 6.476562 -23.335938 5.648438 -22.671875 5.046875 -21.828125 C 4.441406 -20.992188 4.140625 -20.097656 4.140625 -19.140625 C 4.140625 -17.773438 4.492188 -16.675781 5.203125 -15.84375 C 5.910156 -15.007812 6.785156 -14.390625 7.828125 -13.984375 C 8.867188 -13.585938 10.253906 -13.15625 11.984375 -12.6875 C 13.753906 -12.1875 15.140625 -11.734375 16.140625 -11.328125 C 17.148438 -10.929688 18.007812 -10.320312 18.71875 -9.5 C 19.4375 -8.675781 19.796875 -7.597656 19.796875 -6.265625 C 19.796875 -5.035156 19.453125 -3.914062 18.765625 -2.90625 C 18.085938 -1.894531 17.160156 -1.101562 15.984375 -0.53125 C 14.804688 0.0390625 13.488281 0.328125 12.03125 0.328125 Z M 12.03125 0.328125 "/></g></g></g></svg>